<svg width="11204" height="542" viewBox="0 0 11204 542" fill="none" xmlns="http://www.w3.org/2000/svg">
<g id="logo-metrix">
<g id="Frame-1">
<circle id="Ellipse 10" cx="406.5" cy="521.5" r="20.5" fill="#E59D9D"/>
</g>
<g id="Frame-2">
<g id="Group 8">
<circle id="Ellipse 9" cx="986.5" cy="365" r="20.5" fill="#E59D9D"/>
<circle id="Ellipse 10_2" cx="1065.5" cy="521" r="20.5" fill="#E59D9D"/>
<circle id="Ellipse 8" cx="1297.5" cy="365" r="20.5" fill="#E59D9D"/>
</g>
</g>
<g id="Frame-3">
<g id="Group 7">
<circle id="Ellipse 1" cx="1945.5" cy="198" r="20.5" fill="#E59D9D"/>
<circle id="Ellipse 13" cx="1338.5" cy="214" r="20.5" fill="#E59D9D"/>
<circle id="Ellipse 14" cx="1347.5" cy="280" r="20.5" fill="#E59D9D"/>
<circle id="Ellipse 15" cx="1397.5" cy="365" r="20.5" fill="#E59D9D"/>
<circle id="Ellipse 9_2" cx="1645.5" cy="365" r="20.5" fill="#E59D9D"/>
<circle id="Ellipse 11" cx="1520.5" cy="337" r="20.5" fill="#E59D9D"/>
<circle id="Ellipse 10_3" cx="1724.5" cy="521" r="20.5" fill="#E59D9D"/>
<circle id="Ellipse 8_2" cx="1956.5" cy="365" r="20.5" fill="#E59D9D"/>
</g>
</g>
<g id="Frame-4">
<g id="Group 6">
<circle id="Ellipse 1_2" cx="2604.5" cy="198" r="20.5" fill="#E59D9D"/>
<circle id="Ellipse 2" cx="2449.5" cy="51" r="20.5" fill="#E59D9D"/>
<circle id="Ellipse 3" cx="2248.5" cy="21" r="20.5" fill="#E59D9D"/>
<circle id="Ellipse 12" cx="2075.5" cy="87" r="20.5" fill="#E59D9D"/>
<circle id="Ellipse 13_2" cx="1997.5" cy="214" r="20.5" fill="#E59D9D"/>
<circle id="Ellipse 14_2" cx="2006.5" cy="280" r="20.5" fill="#E59D9D"/>
<circle id="Ellipse 15_2" cx="2056.5" cy="365" r="20.5" fill="#E59D9D"/>
<circle id="Ellipse 9_3" cx="2304.5" cy="365" r="20.5" fill="#E59D9D"/>
<circle id="Ellipse 11_2" cx="2179.5" cy="337" r="20.5" fill="#E59D9D"/>
<circle id="Ellipse 10_4" cx="2383.5" cy="521" r="20.5" fill="#E59D9D"/>
<circle id="Ellipse 8_3" cx="2615.5" cy="365" r="20.5" fill="#E59D9D"/>
</g>
</g>
<g id="Frame-5">
<g id="Group 5">
<rect id="Rectangle 4" x="2974.57" y="377.645" width="144.999" height="8" transform="rotate(63.1112 2974.57 377.645)" fill="#E59D9D"/>
<rect id="Rectangle 3" x="3267.49" y="377.564" width="252.248" height="8" transform="rotate(146.81 3267.49 377.564)" fill="#E59D9D"/>
<circle id="Ellipse 1_3" cx="3263.5" cy="198" r="20.5" fill="#E59D9D"/>
<circle id="Ellipse 2_2" cx="3108.5" cy="51" r="20.5" fill="#E59D9D"/>
<circle id="Ellipse 3_2" cx="2907.5" cy="21" r="20.5" fill="#E59D9D"/>
<circle id="Ellipse 12_2" cx="2734.5" cy="87" r="20.5" fill="#E59D9D"/>
<circle id="Ellipse 13_3" cx="2656.5" cy="214" r="20.5" fill="#E59D9D"/>
<circle id="Ellipse 14_3" cx="2665.5" cy="280" r="20.5" fill="#E59D9D"/>
<circle id="Ellipse 15_3" cx="2715.5" cy="365" r="20.5" fill="#E59D9D"/>
<circle id="Ellipse 9_4" cx="2963.5" cy="365" r="20.5" fill="#E59D9D"/>
<circle id="Ellipse 11_3" cx="2838.5" cy="337" r="20.5" fill="#E59D9D"/>
<circle id="Ellipse 10_5" cx="3042.5" cy="521" r="20.5" fill="#E59D9D"/>
<circle id="Ellipse 8_4" cx="3274.5" cy="365" r="20.5" fill="#E59D9D"/>
</g>
</g>
<g id="Frame-6">
<g id="Group 4">
<rect id="Rectangle 4_2" x="3633.57" y="377.645" width="144.999" height="8" transform="rotate(63.1112 3633.57 377.645)" fill="#E59D9D"/>
<rect id="Rectangle 5" x="3512.83" y="335.927" width="96.3905" height="8" transform="rotate(13.4014 3512.83 335.927)" fill="#E59D9D"/>
<rect id="Rectangle 6" x="3387.43" y="362.852" width="96.3905" height="8" transform="rotate(-16.0941 3387.43 362.852)" fill="#E59D9D"/>
<rect id="Rectangle 3_2" x="3926.49" y="377.564" width="252.248" height="8" transform="rotate(146.81 3926.49 377.564)" fill="#E59D9D"/>
<circle id="Ellipse 1_4" cx="3922.5" cy="198" r="20.5" fill="#E59D9D"/>
<circle id="Ellipse 2_3" cx="3767.5" cy="51" r="20.5" fill="#E59D9D"/>
<circle id="Ellipse 3_3" cx="3566.5" cy="21" r="20.5" fill="#E59D9D"/>
<circle id="Ellipse 12_3" cx="3393.5" cy="87" r="20.5" fill="#E59D9D"/>
<circle id="Ellipse 13_4" cx="3315.5" cy="214" r="20.5" fill="#E59D9D"/>
<circle id="Ellipse 14_4" cx="3324.5" cy="280" r="20.5" fill="#E59D9D"/>
<circle id="Ellipse 15_4" cx="3374.5" cy="365" r="20.5" fill="#E59D9D"/>
<circle id="Ellipse 9_5" cx="3622.5" cy="365" r="20.5" fill="#E59D9D"/>
<circle id="Ellipse 11_4" cx="3497.5" cy="337" r="20.5" fill="#E59D9D"/>
<circle id="Ellipse 10_6" cx="3701.5" cy="521" r="20.5" fill="#E59D9D"/>
<circle id="Ellipse 8_5" cx="3933.5" cy="365" r="20.5" fill="#E59D9D"/>
</g>
</g>
<g id="Frame-7">
<g id="Group 3">
<rect id="Rectangle 2" x="4585.79" y="209.442" width="144.999" height="8" transform="rotate(83.9072 4585.79 209.442)" fill="#E59D9D"/>
<rect id="Rectangle 4_3" x="4292.57" y="377.645" width="144.999" height="8" transform="rotate(63.1112 4292.57 377.645)" fill="#E59D9D"/>
<rect id="Rectangle 5_2" x="4171.83" y="335.927" width="96.3905" height="8" transform="rotate(13.4014 4171.83 335.927)" fill="#E59D9D"/>
<rect id="Rectangle 6_2" x="4046.43" y="362.852" width="96.3905" height="8" transform="rotate(-16.0941 4046.43 362.852)" fill="#E59D9D"/>
<rect id="Rectangle 7" x="4020.37" y="358.718" width="73.8679" height="8" transform="rotate(-120 4020.37 358.718)" fill="#E59D9D"/>
<rect id="Rectangle 8" x="3974.91" y="266.618" width="34.4647" height="8" transform="rotate(-94.6109 3974.91 266.618)" fill="#E59D9D"/>
<rect id="Rectangle 3_3" x="4585.49" y="377.564" width="252.248" height="8" transform="rotate(146.81 4585.49 377.564)" fill="#E59D9D"/>
<circle id="Ellipse 1_5" cx="4581.5" cy="198" r="20.5" fill="#E59D9D"/>
<circle id="Ellipse 2_4" cx="4426.5" cy="51" r="20.5" fill="#E59D9D"/>
<circle id="Ellipse 3_4" cx="4225.5" cy="21" r="20.5" fill="#E59D9D"/>
<circle id="Ellipse 12_4" cx="4052.5" cy="87" r="20.5" fill="#E59D9D"/>
<circle id="Ellipse 13_5" cx="3974.5" cy="214" r="20.5" fill="#E59D9D"/>
<circle id="Ellipse 14_5" cx="3983.5" cy="280" r="20.5" fill="#E59D9D"/>
<circle id="Ellipse 15_5" cx="4033.5" cy="365" r="20.5" fill="#E59D9D"/>
<circle id="Ellipse 9_6" cx="4281.5" cy="365" r="20.5" fill="#E59D9D"/>
<circle id="Ellipse 11_5" cx="4156.5" cy="337" r="20.5" fill="#E59D9D"/>
<circle id="Ellipse 10_7" cx="4360.5" cy="521" r="20.5" fill="#E59D9D"/>
<circle id="Ellipse 8_6" cx="4592.5" cy="365" r="20.5" fill="#E59D9D"/>
</g>
</g>
<g id="Frame-8">
<g id="Group 2">
<rect id="Rectangle 9" x="4640.55" y="195.827" width="112.785" height="8" transform="rotate(-61.2264 4640.55 195.827)" fill="#E59D9D"/>
<rect id="Rectangle 1" x="5099.38" y="53.2507" width="188.022" height="8" transform="rotate(44.5863 5099.38 53.2507)" fill="#E59D9D"/>
<rect id="Rectangle 2_2" x="5244.79" y="209.442" width="144.999" height="8" transform="rotate(83.9072 5244.79 209.442)" fill="#E59D9D"/>
<rect id="Rectangle 4_4" x="4951.57" y="377.645" width="144.999" height="8" transform="rotate(63.1112 4951.57 377.645)" fill="#E59D9D"/>
<rect id="Rectangle 5_3" x="4830.83" y="335.927" width="96.3905" height="8" transform="rotate(13.4014 4830.83 335.927)" fill="#E59D9D"/>
<rect id="Rectangle 6_3" x="4705.43" y="362.852" width="96.3905" height="8" transform="rotate(-16.0941 4705.43 362.852)" fill="#E59D9D"/>
<rect id="Rectangle 7_2" x="4679.37" y="358.718" width="73.8679" height="8" transform="rotate(-120 4679.37 358.718)" fill="#E59D9D"/>
<rect id="Rectangle 8_2" x="4633.91" y="266.618" width="34.4647" height="8" transform="rotate(-94.6109 4633.91 266.618)" fill="#E59D9D"/>
<rect id="Rectangle 3_4" x="5244.49" y="377.564" width="252.248" height="8" transform="rotate(146.81 5244.49 377.564)" fill="#E59D9D"/>
<circle id="Ellipse 1_6" cx="5240.5" cy="198" r="20.5" fill="#E59D9D"/>
<circle id="Ellipse 2_5" cx="5085.5" cy="51" r="20.5" fill="#E59D9D"/>
<circle id="Ellipse 3_5" cx="4884.5" cy="21" r="20.5" fill="#E59D9D"/>
<circle id="Ellipse 12_5" cx="4711.5" cy="87" r="20.5" fill="#E59D9D"/>
<circle id="Ellipse 13_6" cx="4633.5" cy="214" r="20.5" fill="#E59D9D"/>
<circle id="Ellipse 14_6" cx="4642.5" cy="280" r="20.5" fill="#E59D9D"/>
<circle id="Ellipse 15_6" cx="4692.5" cy="365" r="20.5" fill="#E59D9D"/>
<circle id="Ellipse 9_7" cx="4940.5" cy="365" r="20.5" fill="#E59D9D"/>
<circle id="Ellipse 11_6" cx="4815.5" cy="337" r="20.5" fill="#E59D9D"/>
<circle id="Ellipse 10_8" cx="5019.5" cy="521" r="20.5" fill="#E59D9D"/>
<circle id="Ellipse 8_7" cx="5251.5" cy="365" r="20.5" fill="#E59D9D"/>
</g>
</g>
<g id="Frame-9">
<g id="Group 1">
<rect id="Rectangle 9_2" x="5299.55" y="195.827" width="112.785" height="8" transform="rotate(-61.2264 5299.55 195.827)" fill="#E59D9D"/>
<rect id="Rectangle 10" x="5383.76" y="71.3391" width="150.953" height="8" transform="rotate(-21.2378 5383.76 71.3391)" fill="#E59D9D"/>
<rect id="Rectangle 11" x="5562.53" y="14.7589" width="167.208" height="8" transform="rotate(8.61255 5562.53 14.7589)" fill="#E59D9D"/>
<rect id="Rectangle 1_2" x="5758.38" y="53.2507" width="188.022" height="8" transform="rotate(44.5863 5758.38 53.2507)" fill="#E59D9D"/>
<rect id="Rectangle 2_3" x="5903.79" y="209.442" width="144.999" height="8" transform="rotate(83.9072 5903.79 209.442)" fill="#E59D9D"/>
<rect id="Rectangle 4_5" x="5610.57" y="377.645" width="144.999" height="8" transform="rotate(63.1112 5610.57 377.645)" fill="#E59D9D"/>
<rect id="Rectangle 5_4" x="5489.83" y="335.927" width="96.3905" height="8" transform="rotate(13.4014 5489.83 335.927)" fill="#E59D9D"/>
<rect id="Rectangle 6_4" x="5364.43" y="362.852" width="96.3905" height="8" transform="rotate(-16.0941 5364.43 362.852)" fill="#E59D9D"/>
<rect id="Rectangle 7_3" x="5338.37" y="358.718" width="73.8679" height="8" transform="rotate(-120 5338.37 358.718)" fill="#E59D9D"/>
<rect id="Rectangle 8_3" x="5292.91" y="266.618" width="34.4647" height="8" transform="rotate(-94.6109 5292.91 266.618)" fill="#E59D9D"/>
<rect id="Rectangle 3_5" x="5903.49" y="377.564" width="252.248" height="8" transform="rotate(146.81 5903.49 377.564)" fill="#E59D9D"/>
<circle id="Ellipse 1_7" cx="5899.5" cy="198" r="20.5" fill="#E59D9D"/>
<circle id="Ellipse 2_6" cx="5744.5" cy="51" r="20.5" fill="#E59D9D"/>
<circle id="Ellipse 3_6" cx="5543.5" cy="21" r="20.5" fill="#E59D9D"/>
<circle id="Ellipse 12_6" cx="5370.5" cy="87" r="20.5" fill="#E59D9D"/>
<circle id="Ellipse 13_7" cx="5292.5" cy="214" r="20.5" fill="#E59D9D"/>
<circle id="Ellipse 14_7" cx="5301.5" cy="280" r="20.5" fill="#E59D9D"/>
<circle id="Ellipse 15_7" cx="5351.5" cy="365" r="20.5" fill="#E59D9D"/>
<circle id="Ellipse 9_8" cx="5599.5" cy="365" r="20.5" fill="#E59D9D"/>
<circle id="Ellipse 11_7" cx="5474.5" cy="337" r="20.5" fill="#E59D9D"/>
<circle id="Ellipse 10_9" cx="5678.5" cy="521" r="20.5" fill="#E59D9D"/>
<circle id="Ellipse 8_8" cx="5910.5" cy="365" r="20.5" fill="#E59D9D"/>
</g>
</g>
<g id="Frame-10">
<g id="Group 10">
<rect id="Rectangle 9_3" x="5958.55" y="195.827" width="112.785" height="8" transform="rotate(-61.2264 5958.55 195.827)" fill="#E59D9D"/>
<rect id="Rectangle 10_2" x="6042.76" y="71.3391" width="150.953" height="8" transform="rotate(-21.2378 6042.76 71.3391)" fill="#E59D9D"/>
<rect id="Rectangle 11_2" x="6221.53" y="14.7589" width="167.208" height="8" transform="rotate(8.61255 6221.53 14.7589)" fill="#E59D9D"/>
<rect id="Rectangle 1_3" x="6417.38" y="53.2507" width="188.022" height="8" transform="rotate(44.5863 6417.38 53.2507)" fill="#E59D9D"/>
<rect id="Rectangle 2_4" x="6562.79" y="209.442" width="144.999" height="8" transform="rotate(83.9072 6562.79 209.442)" fill="#E59D9D"/>
<rect id="Rectangle 4_6" x="6269.57" y="377.645" width="144.999" height="8" transform="rotate(63.1112 6269.57 377.645)" fill="#E59D9D"/>
<rect id="Rectangle 5_5" x="6148.83" y="335.927" width="96.3905" height="8" transform="rotate(13.4014 6148.83 335.927)" fill="#E59D9D"/>
<rect id="Rectangle 6_5" x="6023.43" y="362.852" width="96.3905" height="8" transform="rotate(-16.0941 6023.43 362.852)" fill="#E59D9D"/>
<rect id="Rectangle 7_4" x="5997.37" y="358.718" width="73.8679" height="8" transform="rotate(-120 5997.37 358.718)" fill="#E59D9D"/>
<rect id="Rectangle 8_4" x="5951.91" y="266.618" width="34.4647" height="8" transform="rotate(-94.6109 5951.91 266.618)" fill="#E59D9D"/>
<rect id="Rectangle 3_6" x="6562.49" y="377.564" width="252.248" height="8" transform="rotate(146.81 6562.49 377.564)" fill="#E59D9D"/>
<circle id="Ellipse 1_8" cx="6558.5" cy="198" r="20.5" fill="#E59D9D"/>
<circle id="Ellipse 2_7" cx="6403.5" cy="51" r="20.5" fill="#E59D9D"/>
<circle id="Ellipse 3_7" cx="6202.5" cy="21" r="20.5" fill="#E59D9D"/>
<circle id="Ellipse 12_7" cx="6029.5" cy="87" r="20.5" fill="#E59D9D"/>
<circle id="Ellipse 13_8" cx="5951.5" cy="214" r="20.5" fill="#E59D9D"/>
<circle id="Ellipse 14_8" cx="5960.5" cy="280" r="20.5" fill="#E59D9D"/>
<circle id="Ellipse 15_8" cx="6010.5" cy="365" r="20.5" fill="#E59D9D"/>
<circle id="Ellipse 5" cx="6302.5" cy="76" r="20.5" fill="#E59D9D"/>
<circle id="Ellipse 4" cx="6185.5" cy="121" r="20.5" fill="#E59D9D"/>
<circle id="Ellipse 6" cx="6267.5" cy="210" r="20.5" fill="#E59D9D"/>
<circle id="Ellipse 9_9" cx="6258.5" cy="365" r="20.5" fill="#E59D9D"/>
<circle id="Ellipse 11_8" cx="6133.5" cy="337" r="20.5" fill="#E59D9D"/>
<circle id="Ellipse 10_10" cx="6337.5" cy="521" r="20.5" fill="#E59D9D"/>
<circle id="Ellipse 7" cx="6400.5" cy="269" r="20.5" fill="#E59D9D"/>
<circle id="Ellipse 8_9" cx="6569.5" cy="365" r="20.5" fill="#E59D9D"/>
</g>
</g>
<g id="Frame-11">
<g id="Group 11">
<rect id="Rectangle 9_4" x="6617.55" y="195.827" width="112.785" height="8" transform="rotate(-61.2264 6617.55 195.827)" fill="#E59D9D"/>
<rect id="Rectangle 10_3" x="6701.76" y="71.3391" width="150.953" height="8" transform="rotate(-21.2378 6701.76 71.3391)" fill="#E59D9D"/>
<rect id="Rectangle 40" x="7131.32" y="346.29" width="203.055" height="8" transform="rotate(126.783 7131.32 346.29)" fill="#E59D9D"/>
<rect id="Rectangle 34" x="6997.7" y="502.886" width="165.348" height="8" transform="rotate(-76.075 6997.7 502.886)" fill="#E59D9D"/>
<rect id="Rectangle 30" x="6925.99" y="283.112" width="63.667" height="8" transform="rotate(93.2324 6925.99 283.112)" fill="#E59D9D"/>
<rect id="Rectangle 11_3" x="6880.53" y="14.7589" width="167.208" height="8" transform="rotate(8.61255 6880.53 14.7589)" fill="#E59D9D"/>
<rect id="Rectangle 1_4" x="7076.38" y="53.2507" width="188.022" height="8" transform="rotate(44.5863 7076.38 53.2507)" fill="#E59D9D"/>
<rect id="Rectangle 2_5" x="7221.79" y="209.442" width="144.999" height="8" transform="rotate(83.9072 7221.79 209.442)" fill="#E59D9D"/>
<rect id="Rectangle 4_7" x="6928.57" y="377.645" width="144.999" height="8" transform="rotate(63.1112 6928.57 377.645)" fill="#E59D9D"/>
<rect id="Rectangle 5_6" x="6807.83" y="335.927" width="96.3905" height="8" transform="rotate(13.4014 6807.83 335.927)" fill="#E59D9D"/>
<rect id="Rectangle 6_6" x="6682.43" y="362.852" width="96.3905" height="8" transform="rotate(-16.0941 6682.43 362.852)" fill="#E59D9D"/>
<rect id="Rectangle 7_5" x="6656.37" y="358.718" width="73.8679" height="8" transform="rotate(-120 6656.37 358.718)" fill="#E59D9D"/>
<rect id="Rectangle 8_5" x="6610.91" y="266.618" width="34.4647" height="8" transform="rotate(-94.6109 6610.91 266.618)" fill="#E59D9D"/>
<rect id="Rectangle 3_7" x="7221.49" y="377.564" width="252.248" height="8" transform="rotate(146.81 7221.49 377.564)" fill="#E59D9D"/>
<circle id="Ellipse 1_9" cx="7217.5" cy="198" r="20.5" fill="#E59D9D"/>
<circle id="Ellipse 2_8" cx="7062.5" cy="51" r="20.5" fill="#E59D9D"/>
<circle id="Ellipse 3_8" cx="6861.5" cy="21" r="20.5" fill="#E59D9D"/>
<circle id="Ellipse 12_8" cx="6688.5" cy="87" r="20.5" fill="#E59D9D"/>
<circle id="Ellipse 13_9" cx="6610.5" cy="214" r="20.5" fill="#E59D9D"/>
<circle id="Ellipse 14_9" cx="6619.5" cy="280" r="20.5" fill="#E59D9D"/>
<circle id="Ellipse 15_9" cx="6669.5" cy="365" r="20.5" fill="#E59D9D"/>
<circle id="Ellipse 5_2" cx="6961.5" cy="76" r="20.5" fill="#E59D9D"/>
<circle id="Ellipse 4_2" cx="6844.5" cy="121" r="20.5" fill="#E59D9D"/>
<circle id="Ellipse 6_2" cx="6926.5" cy="210" r="20.5" fill="#E59D9D"/>
<circle id="Ellipse 9_10" cx="6917.5" cy="365" r="20.5" fill="#E59D9D"/>
<circle id="Ellipse 11_9" cx="6792.5" cy="337" r="20.5" fill="#E59D9D"/>
<circle id="Ellipse 10_11" cx="6996.5" cy="521" r="20.5" fill="#E59D9D"/>
<circle id="Ellipse 7_2" cx="7059.5" cy="269" r="20.5" fill="#E59D9D"/>
<circle id="Ellipse 8_10" cx="7228.5" cy="365" r="20.5" fill="#E59D9D"/>
</g>
</g>
<g id="Frame-12">
<g id="Group 12">
<rect id="Rectangle 9_5" x="7276.55" y="195.827" width="112.785" height="8" transform="rotate(-61.2264 7276.55 195.827)" fill="#E59D9D"/>
<rect id="Rectangle 10_4" x="7360.76" y="71.3391" width="150.953" height="8" transform="rotate(-21.2378 7360.76 71.3391)" fill="#E59D9D"/>
<rect id="Rectangle 12" x="7284" y="205.181" width="220.379" height="8" transform="rotate(-21.2378 7284 205.181)" fill="#E59D9D"/>
<rect id="Rectangle 35" x="7720.47" y="249.188" width="84.9619" height="8" transform="rotate(-70.1215 7720.47 249.188)" fill="#E59D9D"/>
<rect id="Rectangle 42" x="7828.28" y="268.725" width="89.5917" height="8" transform="rotate(117.651 7828.28 268.725)" fill="#E59D9D"/>
<rect id="Rectangle 43" x="7868.4" y="216.556" width="72.8281" height="8" transform="rotate(127.097 7868.4 216.556)" fill="#E59D9D"/>
<rect id="Rectangle 40_2" x="7789.14" y="345.347" width="203.055" height="8" transform="rotate(125.93 7789.14 345.347)" fill="#E59D9D"/>
<rect id="Rectangle 34_2" x="7656.7" y="502.886" width="225.992" height="8" transform="rotate(-76.075 7656.7 502.886)" fill="#E59D9D"/>
<rect id="Rectangle 29" x="7487.29" y="250.837" width="74.8754" height="8" transform="rotate(109.488 7487.29 250.837)" fill="#E59D9D"/>
<rect id="Rectangle 30_2" x="7588.09" y="228.266" width="118.6" height="8" transform="rotate(93.2324 7588.09 228.266)" fill="#E59D9D"/>
<rect id="Rectangle 26" x="7435.91" y="335.643" width="148.315" height="8" transform="rotate(-163.883 7435.91 335.643)" fill="#E59D9D"/>
<rect id="Rectangle 11_4" x="7539.53" y="14.7589" width="167.208" height="8" transform="rotate(8.61255 7539.53 14.7589)" fill="#E59D9D"/>
<rect id="Rectangle 1_5" x="7735.38" y="53.2507" width="188.022" height="8" transform="rotate(44.5863 7735.38 53.2507)" fill="#E59D9D"/>
<rect id="Rectangle 2_6" x="7880.79" y="209.442" width="144.999" height="8" transform="rotate(83.9072 7880.79 209.442)" fill="#E59D9D"/>
<rect id="Rectangle 4_8" x="7587.57" y="377.645" width="144.999" height="8" transform="rotate(63.1112 7587.57 377.645)" fill="#E59D9D"/>
<rect id="Rectangle 5_7" x="7466.83" y="335.927" width="96.3905" height="8" transform="rotate(13.4014 7466.83 335.927)" fill="#E59D9D"/>
<rect id="Rectangle 6_7" x="7341.43" y="362.852" width="96.3905" height="8" transform="rotate(-16.0941 7341.43 362.852)" fill="#E59D9D"/>
<rect id="Rectangle 7_6" x="7315.37" y="358.718" width="73.8679" height="8" transform="rotate(-120 7315.37 358.718)" fill="#E59D9D"/>
<rect id="Rectangle 8_6" x="7269.91" y="266.618" width="34.4647" height="8" transform="rotate(-94.6109 7269.91 266.618)" fill="#E59D9D"/>
<rect id="Rectangle 3_8" x="7880.49" y="377.564" width="252.248" height="8" transform="rotate(146.81 7880.49 377.564)" fill="#E59D9D"/>
<circle id="Ellipse 1_10" cx="7876.5" cy="198" r="20.5" fill="#E59D9D"/>
<circle id="Ellipse 2_9" cx="7721.5" cy="51" r="20.5" fill="#E59D9D"/>
<circle id="Ellipse 3_9" cx="7520.5" cy="21" r="20.5" fill="#E59D9D"/>
<circle id="Ellipse 12_9" cx="7347.5" cy="87" r="20.5" fill="#E59D9D"/>
<circle id="Ellipse 13_10" cx="7269.5" cy="214" r="20.5" fill="#E59D9D"/>
<circle id="Ellipse 14_10" cx="7278.5" cy="280" r="20.5" fill="#E59D9D"/>
<circle id="Ellipse 15_10" cx="7328.5" cy="365" r="20.5" fill="#E59D9D"/>
<circle id="Ellipse 5_3" cx="7620.5" cy="76" r="20.5" fill="#E59D9D"/>
<circle id="Ellipse 4_3" cx="7503.5" cy="121" r="20.5" fill="#E59D9D"/>
<circle id="Ellipse 6_3" cx="7585.5" cy="210" r="20.5" fill="#E59D9D"/>
<circle id="Ellipse 9_11" cx="7576.5" cy="365" r="20.5" fill="#E59D9D"/>
<circle id="Ellipse 11_10" cx="7451.5" cy="337" r="20.5" fill="#E59D9D"/>
<circle id="Ellipse 10_12" cx="7655.5" cy="521" r="20.5" fill="#E59D9D"/>
<circle id="Ellipse 7_3" cx="7718.5" cy="269" r="20.5" fill="#E59D9D"/>
<circle id="Ellipse 8_11" cx="7887.5" cy="365" r="20.5" fill="#E59D9D"/>
</g>
</g>
<g id="Frame-13">
<g id="Group 13">
<rect id="Rectangle 9_6" x="7935.55" y="195.827" width="112.785" height="8" transform="rotate(-61.2264 7935.55 195.827)" fill="#E59D9D"/>
<rect id="Rectangle 10_5" x="8019.76" y="71.3391" width="150.953" height="8" transform="rotate(-21.2378 8019.76 71.3391)" fill="#E59D9D"/>
<rect id="Rectangle 12_2" x="7943" y="205.181" width="220.379" height="8" transform="rotate(-21.2378 7943 205.181)" fill="#E59D9D"/>
<rect id="Rectangle 35_2" x="8379.47" y="249.188" width="84.9619" height="8" transform="rotate(-70.1215 8379.47 249.188)" fill="#E59D9D"/>
<rect id="Rectangle 42_2" x="8487.28" y="268.725" width="89.5917" height="8" transform="rotate(117.651 8487.28 268.725)" fill="#E59D9D"/>
<rect id="Rectangle 43_2" x="8527.4" y="216.556" width="72.8281" height="8" transform="rotate(127.097 8527.4 216.556)" fill="#E59D9D"/>
<rect id="Rectangle 41" x="8530.1" y="366.863" width="96.488" height="8" transform="rotate(-170.048 8530.1 366.863)" fill="#E59D9D"/>
<rect id="Rectangle 40_3" x="8449.32" y="346.29" width="203.055" height="8" transform="rotate(126.783 8449.32 346.29)" fill="#E59D9D"/>
<rect id="Rectangle 34_3" x="8315.7" y="502.886" width="225.992" height="8" transform="rotate(-76.075 8315.7 502.886)" fill="#E59D9D"/>
<rect id="Rectangle 24" x="8521.8" y="200.271" width="119.755" height="8" transform="rotate(-165.969 8521.8 200.271)" fill="#E59D9D"/>
<rect id="Rectangle 20" x="8227.06" y="198.7" width="85.0057" height="8" transform="rotate(-134.872 8227.06 198.7)" fill="#E59D9D"/>
<rect id="Rectangle 29_2" x="8146.29" y="250.837" width="74.8754" height="8" transform="rotate(109.488 8146.29 250.837)" fill="#E59D9D"/>
<rect id="Rectangle 30_3" x="8247.09" y="228.266" width="118.6" height="8" transform="rotate(93.2324 8247.09 228.266)" fill="#E59D9D"/>
<rect id="Rectangle 31" x="8263.04" y="212.672" width="111.571" height="8" transform="rotate(22.1001 8263.04 212.672)" fill="#E59D9D"/>
<rect id="Rectangle 27" x="7945.33" y="265.781" width="135.983" height="8" transform="rotate(-45.5886 7945.33 265.781)" fill="#E59D9D"/>
<rect id="Rectangle 26_2" x="8094.91" y="335.643" width="148.315" height="8" transform="rotate(-163.883 8094.91 335.643)" fill="#E59D9D"/>
<rect id="Rectangle 22" x="8041.62" y="170.689" width="75.3749" height="8" transform="rotate(-118.551 8041.62 170.689)" fill="#E59D9D"/>
<rect id="Rectangle 18" x="8407.67" y="170.637" width="109.073" height="8" transform="rotate(-103.656 8407.67 170.637)" fill="#E59D9D"/>
<rect id="Rectangle 11_5" x="8198.53" y="14.7589" width="167.208" height="8" transform="rotate(8.61255 8198.53 14.7589)" fill="#E59D9D"/>
<rect id="Rectangle 1_6" x="8394.38" y="53.2507" width="188.022" height="8" transform="rotate(44.5863 8394.38 53.2507)" fill="#E59D9D"/>
<rect id="Rectangle 2_7" x="8539.79" y="209.442" width="144.999" height="8" transform="rotate(83.9072 8539.79 209.442)" fill="#E59D9D"/>
<rect id="Rectangle 4_9" x="8246.57" y="377.645" width="144.999" height="8" transform="rotate(63.1112 8246.57 377.645)" fill="#E59D9D"/>
<rect id="Rectangle 5_8" x="8125.83" y="335.927" width="96.3905" height="8" transform="rotate(13.4014 8125.83 335.927)" fill="#E59D9D"/>
<rect id="Rectangle 6_8" x="8000.43" y="362.852" width="96.3905" height="8" transform="rotate(-16.0941 8000.43 362.852)" fill="#E59D9D"/>
<rect id="Rectangle 7_7" x="7974.37" y="358.718" width="73.8679" height="8" transform="rotate(-120 7974.37 358.718)" fill="#E59D9D"/>
<rect id="Rectangle 8_7" x="7928.91" y="266.618" width="34.4647" height="8" transform="rotate(-94.6109 7928.91 266.618)" fill="#E59D9D"/>
<rect id="Rectangle 3_9" x="8539.49" y="377.564" width="252.248" height="8" transform="rotate(146.81 8539.49 377.564)" fill="#E59D9D"/>
<circle id="Ellipse 1_11" cx="8535.5" cy="198" r="20.5" fill="#E59D9D"/>
<circle id="Ellipse 2_10" cx="8380.5" cy="51" r="20.5" fill="#E59D9D"/>
<circle id="Ellipse 3_10" cx="8179.5" cy="21" r="20.5" fill="#E59D9D"/>
<circle id="Ellipse 12_10" cx="8006.5" cy="87" r="20.5" fill="#E59D9D"/>
<circle id="Ellipse 13_11" cx="7928.5" cy="214" r="20.5" fill="#E59D9D"/>
<circle id="Ellipse 14_11" cx="7937.5" cy="280" r="20.5" fill="#E59D9D"/>
<circle id="Ellipse 15_11" cx="7987.5" cy="365" r="20.5" fill="#E59D9D"/>
<circle id="Ellipse 5_4" cx="8279.5" cy="76" r="20.5" fill="#E59D9D"/>
<circle id="Ellipse 4_4" cx="8162.5" cy="121" r="20.5" fill="#E59D9D"/>
<circle id="Ellipse 6_4" cx="8244.5" cy="210" r="20.5" fill="#E59D9D"/>
<circle id="Ellipse 9_12" cx="8235.5" cy="365" r="20.5" fill="#E59D9D"/>
<circle id="Ellipse 11_11" cx="8110.5" cy="337" r="20.5" fill="#E59D9D"/>
<circle id="Ellipse 10_13" cx="8314.5" cy="521" r="20.5" fill="#E59D9D"/>
<circle id="Ellipse 7_4" cx="8377.5" cy="269" r="20.5" fill="#E59D9D"/>
<circle id="Ellipse 8_12" cx="8546.5" cy="365" r="20.5" fill="#E59D9D"/>
</g>
</g>
<g id="Frame-14">
<g id="Group 14">
<rect id="Rectangle 9_7" x="8595.55" y="195.827" width="112.785" height="8" transform="rotate(-61.2264 8595.55 195.827)" fill="#E59D9D"/>
<rect id="Rectangle 10_6" x="8679.76" y="71.3391" width="150.953" height="8" transform="rotate(-21.2378 8679.76 71.3391)" fill="#E59D9D"/>
<rect id="Rectangle 12_3" x="8603" y="205.181" width="220.379" height="8" transform="rotate(-21.2378 8603 205.181)" fill="#E59D9D"/>
<rect id="Rectangle 13" x="8834.76" y="113.041" width="94.077" height="8" transform="rotate(-21.2378 8834.76 113.041)" fill="#E59D9D"/>
<rect id="Rectangle 35_3" x="9039.47" y="249.188" width="84.9619" height="8" transform="rotate(-70.1215 9039.47 249.188)" fill="#E59D9D"/>
<rect id="Rectangle 42_3" x="9147.28" y="268.725" width="89.5917" height="8" transform="rotate(117.651 9147.28 268.725)" fill="#E59D9D"/>
<rect id="Rectangle 43_3" x="9187.4" y="216.556" width="72.8281" height="8" transform="rotate(127.097 9187.4 216.556)" fill="#E59D9D"/>
<rect id="Rectangle 39" x="9099.03" y="351.195" width="80.0129" height="8" transform="rotate(175.031 9099.03 351.195)" fill="#E59D9D"/>
<rect id="Rectangle 41_2" x="9190.1" y="366.863" width="96.488" height="8" transform="rotate(-170.048 9190.1 366.863)" fill="#E59D9D"/>
<rect id="Rectangle 40_4" x="9109.32" y="346.29" width="203.055" height="8" transform="rotate(126.783 9109.32 346.29)" fill="#E59D9D"/>
<rect id="Rectangle 32" x="8911.71" y="360.051" width="103.996" height="8" transform="rotate(-5.29266 8911.71 360.051)" fill="#E59D9D"/>
<rect id="Rectangle 34_4" x="8975.7" y="502.886" width="225.992" height="8" transform="rotate(-76.075 8975.7 502.886)" fill="#E59D9D"/>
<rect id="Rectangle 24_2" x="9181.8" y="200.271" width="119.755" height="8" transform="rotate(-165.969 9181.8 200.271)" fill="#E59D9D"/>
<rect id="Rectangle 20_2" x="8887.06" y="198.7" width="85.0057" height="8" transform="rotate(-134.872 8887.06 198.7)" fill="#E59D9D"/>
<rect id="Rectangle 28" x="8892.79" y="218.977" width="100.825" height="8" transform="rotate(159.177 8892.79 218.977)" fill="#E59D9D"/>
<rect id="Rectangle 29_3" x="8806.29" y="250.837" width="74.8754" height="8" transform="rotate(109.488 8806.29 250.837)" fill="#E59D9D"/>
<rect id="Rectangle 30_4" x="8907.09" y="228.266" width="118.6" height="8" transform="rotate(93.2324 8907.09 228.266)" fill="#E59D9D"/>
<rect id="Rectangle 31_2" x="8923.04" y="212.672" width="111.571" height="8" transform="rotate(22.1001 8923.04 212.672)" fill="#E59D9D"/>
<rect id="Rectangle 27_2" x="8605.33" y="265.781" width="135.983" height="8" transform="rotate(-45.5886 8605.33 265.781)" fill="#E59D9D"/>
<rect id="Rectangle 26_3" x="8754.91" y="335.643" width="148.315" height="8" transform="rotate(-163.883 8754.91 335.643)" fill="#E59D9D"/>
<rect id="Rectangle 22_2" x="8701.62" y="170.689" width="75.3749" height="8" transform="rotate(-118.551 8701.62 170.689)" fill="#E59D9D"/>
<rect id="Rectangle 18_2" x="9067.67" y="170.637" width="109.073" height="8" transform="rotate(-103.656 9067.67 170.637)" fill="#E59D9D"/>
<rect id="Rectangle 11_6" x="8858.53" y="14.7589" width="167.208" height="8" transform="rotate(8.61255 8858.53 14.7589)" fill="#E59D9D"/>
<rect id="Rectangle 1_7" x="9054.38" y="53.2507" width="188.022" height="8" transform="rotate(44.5863 9054.38 53.2507)" fill="#E59D9D"/>
<rect id="Rectangle 2_8" x="9199.79" y="209.442" width="144.999" height="8" transform="rotate(83.9072 9199.79 209.442)" fill="#E59D9D"/>
<rect id="Rectangle 4_10" x="8906.57" y="377.645" width="144.999" height="8" transform="rotate(63.1112 8906.57 377.645)" fill="#E59D9D"/>
<rect id="Rectangle 5_9" x="8785.83" y="335.927" width="96.3905" height="8" transform="rotate(13.4014 8785.83 335.927)" fill="#E59D9D"/>
<rect id="Rectangle 6_9" x="8660.43" y="362.852" width="96.3905" height="8" transform="rotate(-16.0941 8660.43 362.852)" fill="#E59D9D"/>
<rect id="Rectangle 7_8" x="8634.37" y="358.718" width="73.8679" height="8" transform="rotate(-120 8634.37 358.718)" fill="#E59D9D"/>
<rect id="Rectangle 8_8" x="8588.91" y="266.618" width="34.4647" height="8" transform="rotate(-94.6109 8588.91 266.618)" fill="#E59D9D"/>
<rect id="Rectangle 3_10" x="9199.49" y="377.564" width="252.248" height="8" transform="rotate(146.81 9199.49 377.564)" fill="#E59D9D"/>
<circle id="Ellipse 1_12" cx="9195.5" cy="198" r="20.5" fill="#E59D9D"/>
<circle id="Ellipse 2_11" cx="9040.5" cy="51" r="20.5" fill="#E59D9D"/>
<circle id="Ellipse 3_11" cx="8839.5" cy="21" r="20.5" fill="#E59D9D"/>
<circle id="Ellipse 12_11" cx="8666.5" cy="87" r="20.5" fill="#E59D9D"/>
<circle id="Ellipse 13_12" cx="8588.5" cy="214" r="20.5" fill="#E59D9D"/>
<circle id="Ellipse 14_12" cx="8597.5" cy="280" r="20.5" fill="#E59D9D"/>
<circle id="Ellipse 15_12" cx="8647.5" cy="365" r="20.5" fill="#E59D9D"/>
<circle id="Ellipse 5_5" cx="8939.5" cy="76" r="20.5" fill="#E59D9D"/>
<circle id="Ellipse 4_5" cx="8822.5" cy="121" r="20.5" fill="#E59D9D"/>
<circle id="Ellipse 6_5" cx="8904.5" cy="210" r="20.5" fill="#E59D9D"/>
<circle id="Ellipse 9_13" cx="8895.5" cy="365" r="20.5" fill="#E59D9D"/>
<circle id="Ellipse 11_12" cx="8770.5" cy="337" r="20.5" fill="#E59D9D"/>
<circle id="Ellipse 10_14" cx="8974.5" cy="521" r="20.5" fill="#E59D9D"/>
<circle id="Ellipse 7_5" cx="9037.5" cy="269" r="20.5" fill="#E59D9D"/>
<circle id="Ellipse 8_13" cx="9206.5" cy="365" r="20.5" fill="#E59D9D"/>
</g>
</g>
<g id="Frame-15">
<g id="Group 15">
<rect id="Rectangle 9_8" x="9254.55" y="195.827" width="112.785" height="8" transform="rotate(-61.2264 9254.55 195.827)" fill="#E59D9D"/>
<rect id="Rectangle 10_7" x="9338.76" y="71.3391" width="150.953" height="8" transform="rotate(-21.2378 9338.76 71.3391)" fill="#E59D9D"/>
<rect id="Rectangle 12_4" x="9262" y="205.181" width="220.379" height="8" transform="rotate(-21.2378 9262 205.181)" fill="#E59D9D"/>
<rect id="Rectangle 13_2" x="9493.76" y="113.041" width="94.077" height="8" transform="rotate(-21.2378 9493.76 113.041)" fill="#E59D9D"/>
<rect id="Rectangle 23" x="9576.74" y="202.709" width="155.651" height="8" transform="rotate(-13.9712 9576.74 202.709)" fill="#E59D9D"/>
<rect id="Rectangle 35_4" x="9698.47" y="249.188" width="84.9619" height="8" transform="rotate(-70.1215 9698.47 249.188)" fill="#E59D9D"/>
<rect id="Rectangle 42_4" x="9806.28" y="268.725" width="89.5917" height="8" transform="rotate(117.651 9806.28 268.725)" fill="#E59D9D"/>
<rect id="Rectangle 43_4" x="9846.4" y="216.556" width="72.8281" height="8" transform="rotate(127.097 9846.4 216.556)" fill="#E59D9D"/>
<rect id="Rectangle 38" x="9759.15" y="349.48" width="84.3365" height="8" transform="rotate(-130.106 9759.15 349.48)" fill="#E59D9D"/>
<rect id="Rectangle 39_2" x="9758.03" y="351.195" width="80.0129" height="8" transform="rotate(175.031 9758.03 351.195)" fill="#E59D9D"/>
<rect id="Rectangle 41_3" x="9849.1" y="366.863" width="96.488" height="8" transform="rotate(-170.048 9849.1 366.863)" fill="#E59D9D"/>
<rect id="Rectangle 40_5" x="9768.32" y="346.29" width="203.055" height="8" transform="rotate(126.783 9768.32 346.29)" fill="#E59D9D"/>
<rect id="Rectangle 32_2" x="9570.71" y="360.051" width="103.996" height="8" transform="rotate(-5.29266 9570.71 360.051)" fill="#E59D9D"/>
<rect id="Rectangle 34_5" x="9634.7" y="502.886" width="225.992" height="8" transform="rotate(-76.075 9634.7 502.886)" fill="#E59D9D"/>
<rect id="Rectangle 24_3" x="9840.8" y="200.271" width="119.755" height="8" transform="rotate(-165.969 9840.8 200.271)" fill="#E59D9D"/>
<rect id="Rectangle 20_3" x="9546.06" y="198.7" width="85.0057" height="8" transform="rotate(-134.872 9546.06 198.7)" fill="#E59D9D"/>
<rect id="Rectangle 25" x="9458.81" y="251.331" width="122.975" height="8" transform="rotate(-141.413 9458.81 251.331)" fill="#E59D9D"/>
<rect id="Rectangle 28_2" x="9551.79" y="218.977" width="100.825" height="8" transform="rotate(159.177 9551.79 218.977)" fill="#E59D9D"/>
<rect id="Rectangle 29_4" x="9465.29" y="250.837" width="74.8754" height="8" transform="rotate(109.488 9465.29 250.837)" fill="#E59D9D"/>
<rect id="Rectangle 30_5" x="9566.09" y="228.266" width="118.6" height="8" transform="rotate(93.2324 9566.09 228.266)" fill="#E59D9D"/>
<rect id="Rectangle 31_3" x="9582.04" y="212.672" width="111.571" height="8" transform="rotate(22.1001 9582.04 212.672)" fill="#E59D9D"/>
<rect id="Rectangle 27_3" x="9264.33" y="265.781" width="135.983" height="8" transform="rotate(-45.5886 9264.33 265.781)" fill="#E59D9D"/>
<rect id="Rectangle 26_4" x="9413.91" y="335.643" width="148.315" height="8" transform="rotate(-163.883 9413.91 335.643)" fill="#E59D9D"/>
<rect id="Rectangle 22_3" x="9360.62" y="170.689" width="75.3749" height="8" transform="rotate(-118.551 9360.62 170.689)" fill="#E59D9D"/>
<rect id="Rectangle 19" x="9465.7" y="127.371" width="129.602" height="8" transform="rotate(-164.357 9465.7 127.371)" fill="#E59D9D"/>
<rect id="Rectangle 18_3" x="9726.67" y="170.637" width="109.073" height="8" transform="rotate(-103.656 9726.67 170.637)" fill="#E59D9D"/>
<rect id="Rectangle 14" x="9613.29" y="68.9567" width="70.8915" height="8" transform="rotate(-15.8741 9613.29 68.9567)" fill="#E59D9D"/>
<rect id="Rectangle 11_7" x="9517.53" y="14.7589" width="167.208" height="8" transform="rotate(8.61255 9517.53 14.7589)" fill="#E59D9D"/>
<rect id="Rectangle 1_8" x="9713.38" y="53.2507" width="188.022" height="8" transform="rotate(44.5863 9713.38 53.2507)" fill="#E59D9D"/>
<rect id="Rectangle 2_9" x="9858.79" y="209.442" width="144.999" height="8" transform="rotate(83.9072 9858.79 209.442)" fill="#E59D9D"/>
<rect id="Rectangle 4_11" x="9565.57" y="377.645" width="144.999" height="8" transform="rotate(63.1112 9565.57 377.645)" fill="#E59D9D"/>
<rect id="Rectangle 5_10" x="9444.83" y="335.927" width="96.3905" height="8" transform="rotate(13.4014 9444.83 335.927)" fill="#E59D9D"/>
<rect id="Rectangle 6_10" x="9319.43" y="362.852" width="96.3905" height="8" transform="rotate(-16.0941 9319.43 362.852)" fill="#E59D9D"/>
<rect id="Rectangle 7_9" x="9293.37" y="358.718" width="73.8679" height="8" transform="rotate(-120 9293.37 358.718)" fill="#E59D9D"/>
<rect id="Rectangle 8_9" x="9247.91" y="266.619" width="34.4647" height="8" transform="rotate(-94.6109 9247.91 266.619)" fill="#E59D9D"/>
<rect id="Rectangle 3_11" x="9858.49" y="377.564" width="252.248" height="8" transform="rotate(146.81 9858.49 377.564)" fill="#E59D9D"/>
<circle id="Ellipse 1_13" cx="9854.5" cy="198" r="20.5" fill="#E59D9D"/>
<circle id="Ellipse 2_12" cx="9699.5" cy="51" r="20.5" fill="#E59D9D"/>
<circle id="Ellipse 3_12" cx="9498.5" cy="21" r="20.5" fill="#E59D9D"/>
<circle id="Ellipse 12_12" cx="9325.5" cy="87" r="20.5" fill="#E59D9D"/>
<circle id="Ellipse 13_13" cx="9247.5" cy="214" r="20.5" fill="#E59D9D"/>
<circle id="Ellipse 14_13" cx="9256.5" cy="280" r="20.5" fill="#E59D9D"/>
<circle id="Ellipse 15_13" cx="9306.5" cy="365" r="20.5" fill="#E59D9D"/>
<circle id="Ellipse 5_6" cx="9598.5" cy="76" r="20.5" fill="#E59D9D"/>
<circle id="Ellipse 4_6" cx="9481.5" cy="121" r="20.5" fill="#E59D9D"/>
<circle id="Ellipse 6_6" cx="9563.5" cy="210" r="20.5" fill="#E59D9D"/>
<circle id="Ellipse 9_14" cx="9554.5" cy="365" r="20.5" fill="#E59D9D"/>
<circle id="Ellipse 11_13" cx="9429.5" cy="337" r="20.5" fill="#E59D9D"/>
<circle id="Ellipse 10_15" cx="9633.5" cy="521" r="20.5" fill="#E59D9D"/>
<circle id="Ellipse 7_6" cx="9696.5" cy="269" r="20.5" fill="#E59D9D"/>
<circle id="Ellipse 8_14" cx="9865.5" cy="365" r="20.5" fill="#E59D9D"/>
</g>
</g>
<g id="Frame-16">
<g id="Group 16">
<rect id="Rectangle 9_9" x="9913.55" y="195.827" width="112.785" height="8" transform="rotate(-61.2264 9913.55 195.827)" fill="#E59D9D"/>
<rect id="Rectangle 10_8" x="9997.76" y="71.3391" width="150.953" height="8" transform="rotate(-21.2378 9997.76 71.3391)" fill="#E59D9D"/>
<rect id="Rectangle 12_5" x="9921" y="205.181" width="220.379" height="8" transform="rotate(-21.2378 9921 205.181)" fill="#E59D9D"/>
<rect id="Rectangle 13_3" x="10152.8" y="113.041" width="94.077" height="8" transform="rotate(-21.2378 10152.8 113.041)" fill="#E59D9D"/>
<rect id="Rectangle 23_2" x="10235.7" y="202.709" width="155.651" height="8" transform="rotate(-13.9712 10235.7 202.709)" fill="#E59D9D"/>
<rect id="Rectangle 35_5" x="10357.5" y="249.188" width="84.9619" height="8" transform="rotate(-70.1215 10357.5 249.188)" fill="#E59D9D"/>
<rect id="Rectangle 37" x="10460.5" y="273.726" width="85.6828" height="8" transform="rotate(-179.684 10460.5 273.726)" fill="#E59D9D"/>
<rect id="Rectangle 42_5" x="10465.3" y="268.725" width="89.5917" height="8" transform="rotate(117.651 10465.3 268.725)" fill="#E59D9D"/>
<rect id="Rectangle 43_5" x="10505.4" y="216.556" width="72.8281" height="8" transform="rotate(127.097 10505.4 216.556)" fill="#E59D9D"/>
<rect id="Rectangle 38_2" x="10418.1" y="349.48" width="84.3365" height="8" transform="rotate(-130.106 10418.1 349.48)" fill="#E59D9D"/>
<rect id="Rectangle 39_3" x="10417" y="351.195" width="80.0129" height="8" transform="rotate(175.031 10417 351.195)" fill="#E59D9D"/>
<rect id="Rectangle 41_4" x="10508.1" y="366.863" width="96.488" height="8" transform="rotate(-170.048 10508.1 366.863)" fill="#E59D9D"/>
<rect id="Rectangle 40_6" x="10427.3" y="346.29" width="203.055" height="8" transform="rotate(126.783 10427.3 346.29)" fill="#E59D9D"/>
<rect id="Rectangle 32_3" x="10229.7" y="360.051" width="103.996" height="8" transform="rotate(-5.29266 10229.7 360.051)" fill="#E59D9D"/>
<rect id="Rectangle 34_6" x="10293.7" y="502.886" width="225.992" height="8" transform="rotate(-76.075 10293.7 502.886)" fill="#E59D9D"/>
<rect id="Rectangle 15" x="10134.8" y="102.883" width="70.1022" height="8" transform="rotate(-77.3597 10134.8 102.883)" fill="#E59D9D"/>
<rect id="Rectangle 24_4" x="10499.8" y="200.271" width="119.755" height="8" transform="rotate(-165.969 10499.8 200.271)" fill="#E59D9D"/>
<rect id="Rectangle 17" x="10386.6" y="173.614" width="143.429" height="8" transform="rotate(-145 10386.6 173.614)" fill="#E59D9D"/>
<rect id="Rectangle 20_4" x="10205.1" y="198.7" width="85.0057" height="8" transform="rotate(-134.872 10205.1 198.7)" fill="#E59D9D"/>
<rect id="Rectangle 25_2" x="10117.8" y="251.331" width="122.975" height="8" transform="rotate(-141.413 10117.8 251.331)" fill="#E59D9D"/>
<rect id="Rectangle 28_3" x="10210.8" y="218.977" width="100.825" height="8" transform="rotate(159.177 10210.8 218.977)" fill="#E59D9D"/>
<rect id="Rectangle 29_5" x="10124.3" y="250.837" width="74.8754" height="8" transform="rotate(109.488 10124.3 250.837)" fill="#E59D9D"/>
<rect id="Rectangle 30_6" x="10225.1" y="228.266" width="118.6" height="8" transform="rotate(93.2324 10225.1 228.266)" fill="#E59D9D"/>
<rect id="Rectangle 31_4" x="10241" y="212.672" width="111.571" height="8" transform="rotate(22.1001 10241 212.672)" fill="#E59D9D"/>
<rect id="Rectangle 27_4" x="9923.33" y="265.781" width="135.983" height="8" transform="rotate(-45.5886 9923.33 265.781)" fill="#E59D9D"/>
<rect id="Rectangle 26_5" x="10072.9" y="335.643" width="148.315" height="8" transform="rotate(-163.883 10072.9 335.643)" fill="#E59D9D"/>
<rect id="Rectangle 22_4" x="10019.6" y="170.689" width="75.3749" height="8" transform="rotate(-118.551 10019.6 170.689)" fill="#E59D9D"/>
<rect id="Rectangle 19_2" x="10124.7" y="127.371" width="129.602" height="8" transform="rotate(-164.357 10124.7 127.371)" fill="#E59D9D"/>
<rect id="Rectangle 18_4" x="10385.7" y="170.637" width="109.073" height="8" transform="rotate(-103.656 10385.7 170.637)" fill="#E59D9D"/>
<rect id="Rectangle 14_2" x="10272.3" y="68.9567" width="70.8915" height="8" transform="rotate(-15.8741 10272.3 68.9567)" fill="#E59D9D"/>
<rect id="Rectangle 11_8" x="10176.5" y="14.7589" width="167.208" height="8" transform="rotate(8.61255 10176.5 14.7589)" fill="#E59D9D"/>
<rect id="Rectangle 1_9" x="10372.4" y="53.2507" width="188.022" height="8" transform="rotate(44.5863 10372.4 53.2507)" fill="#E59D9D"/>
<rect id="Rectangle 2_10" x="10517.8" y="209.442" width="144.999" height="8" transform="rotate(83.9072 10517.8 209.442)" fill="#E59D9D"/>
<rect id="Rectangle 4_12" x="10224.6" y="377.645" width="144.999" height="8" transform="rotate(63.1112 10224.6 377.645)" fill="#E59D9D"/>
<rect id="Rectangle 5_11" x="10103.8" y="335.927" width="96.3905" height="8" transform="rotate(13.4014 10103.8 335.927)" fill="#E59D9D"/>
<rect id="Rectangle 6_11" x="9978.43" y="362.852" width="96.3905" height="8" transform="rotate(-16.0941 9978.43 362.852)" fill="#E59D9D"/>
<rect id="Rectangle 7_10" x="9952.37" y="358.718" width="73.8679" height="8" transform="rotate(-120 9952.37 358.718)" fill="#E59D9D"/>
<rect id="Rectangle 8_10" x="9906.91" y="266.619" width="34.4647" height="8" transform="rotate(-94.6109 9906.91 266.619)" fill="#E59D9D"/>
<rect id="Rectangle 3_12" x="10517.5" y="377.564" width="252.248" height="8" transform="rotate(146.81 10517.5 377.564)" fill="#E59D9D"/>
<circle id="Ellipse 1_14" cx="10513.5" cy="198" r="20.5" fill="#E59D9D"/>
<circle id="Ellipse 2_13" cx="10358.5" cy="51" r="20.5" fill="#E59D9D"/>
<circle id="Ellipse 3_13" cx="10157.5" cy="21" r="20.5" fill="#E59D9D"/>
<circle id="Ellipse 12_13" cx="9984.5" cy="87" r="20.5" fill="#E59D9D"/>
<circle id="Ellipse 13_14" cx="9906.5" cy="214" r="20.5" fill="#E59D9D"/>
<circle id="Ellipse 14_14" cx="9915.5" cy="280" r="20.5" fill="#E59D9D"/>
<circle id="Ellipse 15_14" cx="9965.5" cy="365" r="20.5" fill="#E59D9D"/>
<circle id="Ellipse 5_7" cx="10257.5" cy="76" r="20.5" fill="#E59D9D"/>
<circle id="Ellipse 4_7" cx="10140.5" cy="121" r="20.5" fill="#E59D9D"/>
<circle id="Ellipse 6_7" cx="10222.5" cy="210" r="20.5" fill="#E59D9D"/>
<circle id="Ellipse 9_15" cx="10213.5" cy="365" r="20.5" fill="#E59D9D"/>
<circle id="Ellipse 11_14" cx="10088.5" cy="337" r="20.5" fill="#E59D9D"/>
<circle id="Ellipse 10_16" cx="10292.5" cy="521" r="20.5" fill="#E59D9D"/>
<circle id="Ellipse 7_7" cx="10355.5" cy="269" r="20.5" fill="#E59D9D"/>
<circle id="Ellipse 8_15" cx="10524.5" cy="365" r="20.5" fill="#E59D9D"/>
</g>
</g>
<g id="Frame-17">
<g id="logo-final">
<rect id="Rectangle 9_10" x="10572.5" y="195.827" width="112.785" height="8" transform="rotate(-61.2264 10572.5 195.827)" fill="#E59D9D"/>
<rect id="Rectangle 10_9" x="10656.8" y="71.3391" width="150.953" height="8" transform="rotate(-21.2378 10656.8 71.3391)" fill="#E59D9D"/>
<rect id="Rectangle 12_6" x="10580" y="205.181" width="220.379" height="8" transform="rotate(-21.2378 10580 205.181)" fill="#E59D9D"/>
<rect id="Rectangle 13_4" x="10811.8" y="113.041" width="94.077" height="8" transform="rotate(-21.2378 10811.8 113.041)" fill="#E59D9D"/>
<rect id="Rectangle 23_3" x="10894.7" y="202.709" width="155.651" height="8" transform="rotate(-13.9712 10894.7 202.709)" fill="#E59D9D"/>
<rect id="Rectangle 35_6" x="11016.5" y="249.188" width="84.9619" height="8" transform="rotate(-70.1215 11016.5 249.188)" fill="#E59D9D"/>
<rect id="Rectangle 36" x="11113.8" y="271.366" width="118.366" height="8" transform="rotate(-124.918 11113.8 271.366)" fill="#E59D9D"/>
<rect id="Rectangle 37_2" x="11119.5" y="273.726" width="85.6828" height="8" transform="rotate(-179.684 11119.5 273.726)" fill="#E59D9D"/>
<rect id="Rectangle 42_6" x="11124.3" y="268.725" width="89.5917" height="8" transform="rotate(117.651 11124.3 268.725)" fill="#E59D9D"/>
<rect id="Rectangle 43_6" x="11164.4" y="216.556" width="72.8281" height="8" transform="rotate(127.097 11164.4 216.556)" fill="#E59D9D"/>
<rect id="Rectangle 38_3" x="11077.1" y="349.48" width="84.3365" height="8" transform="rotate(-130.106 11077.1 349.48)" fill="#E59D9D"/>
<rect id="Rectangle 39_4" x="11076" y="351.195" width="80.0129" height="8" transform="rotate(175.031 11076 351.195)" fill="#E59D9D"/>
<rect id="Rectangle 41_5" x="11167.1" y="366.863" width="96.488" height="8" transform="rotate(-170.048 11167.1 366.863)" fill="#E59D9D"/>
<rect id="Rectangle 40_7" x="11086.3" y="346.29" width="203.055" height="8" transform="rotate(126.783 11086.3 346.29)" fill="#E59D9D"/>
<rect id="Rectangle 32_4" x="10888.7" y="360.051" width="103.996" height="8" transform="rotate(-5.29266 10888.7 360.051)" fill="#E59D9D"/>
<rect id="Rectangle 34_7" x="10952.7" y="502.886" width="225.992" height="8" transform="rotate(-76.075 10952.7 502.886)" fill="#E59D9D"/>
<rect id="Rectangle 15_2" x="10793.8" y="102.883" width="70.1022" height="8" transform="rotate(-77.3597 10793.8 102.883)" fill="#E59D9D"/>
<rect id="Rectangle 16" x="10900.3" y="74.9269" width="84.7914" height="8" transform="rotate(-146.713 10900.3 74.9269)" fill="#E59D9D"/>
<rect id="Rectangle 24_5" x="11158.8" y="200.271" width="119.755" height="8" transform="rotate(-165.969 11158.8 200.271)" fill="#E59D9D"/>
<rect id="Rectangle 17_2" x="11045.6" y="173.614" width="143.429" height="8" transform="rotate(-145 11045.6 173.614)" fill="#E59D9D"/>
<rect id="Rectangle 20_5" x="10864.1" y="198.7" width="85.0057" height="8" transform="rotate(-134.872 10864.1 198.7)" fill="#E59D9D"/>
<rect id="Rectangle 25_3" x="10776.8" y="251.331" width="122.975" height="8" transform="rotate(-141.413 10776.8 251.331)" fill="#E59D9D"/>
<rect id="Rectangle 28_4" x="10869.8" y="218.977" width="100.825" height="8" transform="rotate(159.177 10869.8 218.977)" fill="#E59D9D"/>
<rect id="Rectangle 29_6" x="10783.3" y="250.837" width="74.8754" height="8" transform="rotate(109.488 10783.3 250.837)" fill="#E59D9D"/>
<rect id="Rectangle 30_7" x="10884.1" y="228.266" width="118.6" height="8" transform="rotate(93.2324 10884.1 228.266)" fill="#E59D9D"/>
<rect id="Rectangle 31_5" x="10900" y="212.672" width="111.571" height="8" transform="rotate(22.1001 10900 212.672)" fill="#E59D9D"/>
<rect id="Rectangle 27_5" x="10582.3" y="265.781" width="135.983" height="8" transform="rotate(-45.5886 10582.3 265.781)" fill="#E59D9D"/>
<rect id="Rectangle 26_6" x="10731.9" y="335.643" width="148.315" height="8" transform="rotate(-163.883 10731.9 335.643)" fill="#E59D9D"/>
<rect id="Rectangle 22_5" x="10678.6" y="170.689" width="75.3749" height="8" transform="rotate(-118.551 10678.6 170.689)" fill="#E59D9D"/>
<rect id="Rectangle 21" x="10882.6" y="190.663" width="100.932" height="8" transform="rotate(-75.6077 10882.6 190.663)" fill="#E59D9D"/>
<rect id="Rectangle 19_3" x="10783.7" y="127.371" width="129.602" height="8" transform="rotate(-164.357 10783.7 127.371)" fill="#E59D9D"/>
<rect id="Rectangle 18_5" x="11044.7" y="170.637" width="109.073" height="8" transform="rotate(-103.656 11044.7 170.637)" fill="#E59D9D"/>
<rect id="Rectangle 14_3" x="10931.3" y="68.9567" width="70.8915" height="8" transform="rotate(-15.8741 10931.3 68.9567)" fill="#E59D9D"/>
<rect id="Rectangle 11_9" x="10835.5" y="14.7589" width="167.208" height="8" transform="rotate(8.61255 10835.5 14.7589)" fill="#E59D9D"/>
<rect id="Rectangle 1_10" x="11031.4" y="53.2507" width="188.022" height="8" transform="rotate(44.5863 11031.4 53.2507)" fill="#E59D9D"/>
<rect id="Rectangle 2_11" x="11176.8" y="209.442" width="144.999" height="8" transform="rotate(83.9072 11176.8 209.442)" fill="#E59D9D"/>
<rect id="Rectangle 4_13" x="10883.6" y="377.645" width="144.999" height="8" transform="rotate(63.1112 10883.6 377.645)" fill="#E59D9D"/>
<rect id="Rectangle 5_12" x="10762.8" y="335.927" width="96.3905" height="8" transform="rotate(13.4014 10762.8 335.927)" fill="#E59D9D"/>
<rect id="Rectangle 6_12" x="10637.4" y="362.852" width="96.3905" height="8" transform="rotate(-16.0941 10637.4 362.852)" fill="#E59D9D"/>
<rect id="Rectangle 7_11" x="10611.4" y="358.718" width="73.8679" height="8" transform="rotate(-120 10611.4 358.718)" fill="#E59D9D"/>
<rect id="Rectangle 8_11" x="10565.9" y="266.618" width="34.4647" height="8" transform="rotate(-94.6109 10565.9 266.618)" fill="#E59D9D"/>
<rect id="Rectangle 3_13" x="11176.5" y="377.564" width="252.248" height="8" transform="rotate(146.81 11176.5 377.564)" fill="#E59D9D"/>
<circle id="Ellipse 1_15" cx="11172.5" cy="198" r="20.5" fill="#E59D9D"/>
<circle id="Ellipse 2_14" cx="11017.5" cy="51" r="20.5" fill="#E59D9D"/>
<circle id="Ellipse 3_14" cx="10816.5" cy="21" r="20.5" fill="#E59D9D"/>
<circle id="Ellipse 12_14" cx="10643.5" cy="87" r="20.5" fill="#E59D9D"/>
<circle id="Ellipse 13_15" cx="10565.5" cy="214" r="20.5" fill="#E59D9D"/>
<circle id="Ellipse 14_15" cx="10574.5" cy="280" r="20.5" fill="#E59D9D"/>
<circle id="Ellipse 15_15" cx="10624.5" cy="365" r="20.5" fill="#E59D9D"/>
<circle id="Ellipse 5_8" cx="10916.5" cy="76" r="20.5" fill="#E59D9D"/>
<circle id="Ellipse 4_8" cx="10799.5" cy="121" r="20.5" fill="#E59D9D"/>
<circle id="Ellipse 6_8" cx="10881.5" cy="210" r="20.5" fill="#E59D9D"/>
<circle id="Ellipse 9_16" cx="10872.5" cy="365" r="20.5" fill="#E59D9D"/>
<circle id="Ellipse 11_15" cx="10747.5" cy="337" r="20.5" fill="#E59D9D"/>
<circle id="Ellipse 10_17" cx="10951.5" cy="521" r="20.5" fill="#E59D9D"/>
<circle id="Ellipse 7_8" cx="11014.5" cy="269" r="20.5" fill="#E59D9D"/>
<circle id="Ellipse 8_16" cx="11183.5" cy="365" r="20.5" fill="#E59D9D"/>
</g>
</g>
</g>
</svg>
