<?xml version="1.0" encoding="UTF-8"?>
<!DOCTYPE svg PUBLIC "-//W3C//DTD SVG 1.1//EN" "http://www.w3.org/Graphics/SVG/1.1/DTD/svg11.dtd">
<!-- Creator: CorelDRAW -->
<svg xmlns="http://www.w3.org/2000/svg" xml:space="preserve" width="200mm" height="200mm" version="1.1" style="shape-rendering:geometricPrecision; text-rendering:geometricPrecision; image-rendering:optimizeQuality; fill-rule:evenodd; clip-rule:evenodd"
viewBox="0 0 20000 20000"
 xmlns:xlink="http://www.w3.org/1999/xlink"
 xmlns:xodm="http://www.corel.com/coreldraw/odm/2003">
 <defs>
  <style type="text/css">
   <![CDATA[
    .fil1 {fill:#F8F189}
    .fil2 {fill:#F8F188}
    .fil3 {fill:#F8EF88}
    .fil4 {fill:#F8EF87}
    .fil5 {fill:#F8EF86}
    .fil6 {fill:#F8EE86}
    .fil7 {fill:#F8EE85}
    .fil8 {fill:#F7EE85}
    .fil9 {fill:#F7EE85}
    .fil10 {fill:#F7ED84}
    .fil11 {fill:#F7ED84}
    .fil12 {fill:#F7ED83}
    .fil13 {fill:#F7EC83}
    .fil14 {fill:#F7EC82}
    .fil15 {fill:#F7EC81}
    .fil16 {fill:#F7EB81}
    .fil17 {fill:#F7EB80}
    .fil18 {fill:#F7EB7F}
    .fil19 {fill:#F7EA7F}
    .fil20 {fill:#F7EA7E}
    .fil21 {fill:#F6EA7E}
    .fil22 {fill:#F6E97E}
    .fil23 {fill:#F6E97D}
    .fil24 {fill:#F6E97D}
    .fil25 {fill:#F6E87C}
    .fil26 {fill:#F6E87B}
    .fil27 {fill:#F6E77A}
    .fil28 {fill:#F6E779}
    .fil29 {fill:#F6E678}
    .fil30 {fill:#F6E677}
    .fil31 {fill:#F5E677}
    .fil32 {fill:#F5E576}
    .fil33 {fill:#F5E576}
    .fil34 {fill:#F5E475}
    .fil35 {fill:#F5E474}
    .fil36 {fill:#F5E473}
    .fil37 {fill:#F5E472}
    .fil38 {fill:#F5E371}
    .fil39 {fill:#F5E370}
    .fil40 {fill:#F4E370}
    .fil41 {fill:#F4E26F}
    .fil42 {fill:#F4E26E}
    .fil43 {fill:#F4E16E}
    .fil44 {fill:#F4E16D}
    .fil45 {fill:#F4E16C}
    .fil46 {fill:#F4E06C}
    .fil47 {fill:#F4E06B}
    .fil48 {fill:#F4E06A}
    .fil49 {fill:#F4E06A}
    .fil50 {fill:#F4E06A}
    .fil51 {fill:#F4E069}
    .fil52 {fill:#F3DF69}
    .fil53 {fill:#F3DF68}
    .fil54 {fill:#F3DE67}
    .fil55 {fill:#F3DE67}
    .fil56 {fill:#F3DE66}
    .fil57 {fill:#F3DE65}
    .fil58 {fill:#F3DD65}
    .fil59 {fill:#F3DD64}
    .fil60 {fill:#F3DD63}
    .fil61 {fill:#F3DC63}
    .fil62 {fill:#F3DC62}
    .fil63 {fill:#F3DB61}
    .fil64 {fill:#F2DB61}
    .fil65 {fill:#F2DB60}
    .fil66 {fill:#F2DA5F}
    .fil67 {fill:#F2DA5E}
    .fil68 {fill:#F2DA5E}
    .fil69 {fill:#F2DA5D}
    .fil70 {fill:#F2D95C}
    .fil71 {fill:#F2D95B}
    .fil72 {fill:#F2D85A}
    .fil73 {fill:#F1D85A}
    .fil74 {fill:#F1D859}
    .fil75 {fill:#F1D758}
    .fil76 {fill:#F1D757}
    .fil77 {fill:#F1D656}
    .fil78 {fill:#F1D655}
    .fil79 {fill:#F1D655}
    .fil80 {fill:#F1D554}
    .fil81 {fill:#F1D553}
    .fil82 {fill:#F1D553}
    .fil83 {fill:#F1D552}
    .fil84 {fill:#F0D452}
    .fil85 {fill:#F0D452}
    .fil86 {fill:#F0D451}
    .fil87 {fill:#F0D451}
    .fil88 {fill:#F0D450}
    .fil89 {fill:#F0D350}
    .fil90 {fill:#F0D34F}
    .fil91 {fill:#F0D24F}
    .fil92 {fill:#EFD14E}
    .fil93 {fill:#EFD14E}
    .fil94 {fill:#EFD14D}
    .fil95 {fill:#EFD04D}
    .fil96 {fill:#EECF4D}
    .fil97 {fill:#EECF4D}
    .fil98 {fill:#EECE4C}
    .fil99 {fill:#EECE4C}
    .fil100 {fill:#EDCE4D}
    .fil101 {fill:#EDCD4C}
    .fil102 {fill:#EBCC4C}
    .fil103 {fill:#EBCB4C}
    .fil104 {fill:#EBCA4B}
    .fil105 {fill:#EACA4B}
    .fil106 {fill:#EAC94B}
    .fil107 {fill:#EAC94A}
    .fil108 {fill:#EAC94A}
    .fil109 {fill:#E9C84A}
    .fil110 {fill:#E9C749}
    .fil111 {fill:#E9C649}
    .fil112 {fill:#E8C549}
    .fil113 {fill:#E8C549}
    .fil114 {fill:#E8C449}
    .fil115 {fill:#E8C448}
    .fil116 {fill:#E7C348}
    .fil117 {fill:#E7C348}
    .fil118 {fill:#E7C348}
    .fil119 {fill:#E7C248}
    .fil120 {fill:#E6C248}
    .fil121 {fill:#E6C147}
    .fil122 {fill:#E6C047}
    .fil123 {fill:#E4BF47}
    .fil124 {fill:#E4BE46}
    .fil125 {fill:#E4BE46}
    .fil126 {fill:#E4BD46}
    .fil127 {fill:#E4BD46}
    .fil128 {fill:#E3BC46}
    .fil129 {fill:#E3BB46}
    .fil130 {fill:#E3BB45}
    .fil131 {fill:#E3BB45}
    .fil132 {fill:#E2BA45}
    .fil133 {fill:#E2B944}
    .fil134 {fill:#E2B944}
    .fil135 {fill:#E1B844}
    .fil136 {fill:#E1B744}
    .fil137 {fill:#E1B743}
    .fil138 {fill:#E1B643}
    .fil139 {fill:#E0B643}
    .fil140 {fill:#E0B543}
    .fil141 {fill:#DFB443}
    .fil142 {fill:#DFB342}
    .fil143 {fill:#DEB242}
    .fil144 {fill:#DEB141}
    .fil145 {fill:#DDB141}
    .fil146 {fill:#DDB041}
    .fil147 {fill:#DDB041}
    .fil148 {fill:#DDAF41}
    .fil149 {fill:#DCAF41}
    .fil150 {fill:#DCAE40}
    .fil151 {fill:#DCAE40}
    .fil152 {fill:#DBAD40}
    .fil153 {fill:#DBAC40}
    .fil154 {fill:#DBAB40}
    .fil155 {fill:#DBAB3F}
    .fil156 {fill:#DAAA3F}
    .fil157 {fill:#DAAA3F}
    .fil158 {fill:#DAA93F}
    .fil159 {fill:#D9A93F}
    .fil160 {fill:#D9A83F}
    .fil161 {fill:#D9A83E}
    .fil162 {fill:#D9A73E}
    .fil163 {fill:#D7A63E}
    .fil164 {fill:#D7A63E}
    .fil165 {fill:#D7A53E}
    .fil166 {fill:#D7A53D}
    .fil167 {fill:#D6A43E}
    .fil168 {fill:#D6A33E}
    .fil169 {fill:#D6A33D}
    .fil170 {fill:#D5A23D}
    .fil171 {fill:#D5A13D}
    .fil172 {fill:#D5A13D}
    .fil173 {fill:#D4A03C}
    .fil174 {fill:#D49F3C}
    .fil175 {fill:#D49E3C}
    .fil176 {fill:#D39E3C}
    .fil177 {fill:#D39D3B}
    .fil178 {fill:#D39C3C}
    .fil179 {fill:#D39C3B}
    .fil180 {fill:#D29B3B}
    .fil181 {fill:#D29A3B}
    .fil182 {fill:#D19A3B}
    .fil183 {fill:#D1993B}
    .fil184 {fill:#D1993B}
    .fil185 {fill:#D1983B}
    .fil186 {fill:#D0983B}
    .fil187 {fill:#D0973A}
    .fil188 {fill:#D0973A}
    .fil189 {fill:#CF963B}
    .fil190 {fill:#CF963A}
    .fil0 {fill:#CF953A}
   ]]>
  </style>
    <clipPath id="id0">
     <path d="M12436.87 16232.52c24.86,-37.11 67.48,-91.64 94.6,-127.84l401.58 -543.88c8.55,-11.37 14.82,-20.66 23.46,-32.12l614.29 -831.69c135.17,-180.31 266.41,-363.53 401.57,-543.86l165.39 -223.91c16.29,-21.71 30.76,-41.88 47.32,-63.91 8.65,-11.49 15.11,-21.01 23.47,-32.15l283.48 -383.88c7.92,-10.56 15.85,-20.31 23.77,-31.85 50.78,-73.76 136.14,-185.66 188.96,-255.96l637.72 -863.84c8.65,-11.48 14.94,-20.82 23.46,-32.15l71.03 -95.83c7.96,-11.69 15.59,-20.92 23.26,-32.35 7.19,3.44 55.63,10.12 66.43,11.92l201.16 33.93c89.39,14.85 179.68,30.42 270.48,45.5l1483.87 250.27c26.29,4.38 112.23,21.84 136.85,22.4 0,157.07 71.19,239.58 78.39,270.48 -12.51,3.34 -67.02,42.14 -81.93,52.07 -82.17,54.79 -163.38,109.89 -247.21,162.32l-164.33 108.68c-27.86,18.58 -54.54,35.51 -82.41,54.09 -14.18,9.45 -27.22,18.12 -40.93,27.31 -285.84,191.08 -575.95,375.19 -861.52,566.76l-823.09 541.94c-28.32,18.53 -54.02,35.96 -81.89,54.65 -190.45,127.82 -383.96,250.93 -574.83,378.17 -109.94,73.3 -218.92,143.44 -329.14,216.88 -27.73,18.49 -53.14,34.62 -80.89,53.1l-411.54 271c-14.31,9.54 -26.38,17.57 -40.95,27.31l-163.31 107.18c-13.73,9.15 -26.75,17.83 -40.95,27.29 -27.89,18.62 -54.53,35.53 -82.39,54.11l-658.26 433.79c-14.27,9.57 -26.92,17.07 -41.46,26.77 -14.6,9.74 -26.64,17.78 -40.96,27.32l-164.8 108.2c-19.79,13.18 -234.66,158.28 -247.75,161.78zm6269.15 -3764.75l0 36.92c-2.59,78.17 -21.47,155.81 -53.09,219.1 -3.94,7.9 -7.39,15.42 -12.14,23.22 -21.71,35.66 -40.12,64.8 -68.1,96.23 -21.01,23.6 -43.96,45.59 -68.89,65.06 -12.95,10.14 -23.84,18.52 -37.9,27.85 -40.03,26.55 -85.75,48.46 -133.03,64.14 -112.53,37.34 -247.25,33.31 -355.19,-5.72 -19.98,-7.21 -40.45,-14.5 -58.66,-24.76 -6.91,-3.89 -8.41,-5.45 -15.98,-9.29 -15.08,-7.64 -21.73,-11.32 -35.26,-20.36l-31.36 -21.75 -250.24 164.32c-13.74,9.18 -26.78,17.87 -40.95,27.31l-1162.84 765.94c-14.32,9.55 -26.87,17.08 -41.44,26.8 -55.97,37.37 -110.13,72.58 -165.83,109.72l-664.84 437.33c-262.1,174.84 -527.24,345.33 -789.22,520.24l-623.36 410.54c-13.77,9.2 -26.99,17.14 -41.47,26.8 -14.64,9.78 -26.3,17.54 -40.96,27.31l-830.64 547.02c-28.44,18.97 -55.24,35.98 -83.94,55.1 -32.14,21.43 -565.83,376.33 -580.4,380.22 2.43,10.38 4.45,12.96 8.31,22.01 54.28,126.71 42.32,301.62 -16.68,419.6 -7.41,14.8 -15.66,27.45 -23.63,42.08 -14.98,27.59 -35.16,50.9 -54.31,74.61 -28.29,35.08 -63.68,65.98 -101.26,90.88 -92.74,61.45 -195.68,94.13 -299.83,96.55l-25.25 0c-81.03,-1.93 -162.35,-22.19 -239.77,-61.55 -92.37,-46.96 -167.1,-121.08 -220.34,-209.43 -16.82,-27.89 -31.04,-58.53 -41.9,-89.53 -34.59,-98.65 -37.24,-218.8 -9.15,-319.52 19.73,-70.75 55.87,-137 102.87,-192.89 3.94,-4.65 3.62,-5.26 7.79,-9.92l19.29 -21.15c21.71,-16.93 39.19,-38.7 62.17,-54.09 -4.65,-20.05 -88.58,-177.64 -100.22,-200.59l-230.07 -447.39c-8.92,-17.86 -16.35,-32.71 -25.27,-50.57l-203.92 -397.72c-66.6,-133.2 -137.43,-264.75 -203.91,-397.73l-139.87 -274.71c-4.79,-8.87 -7.9,-13.09 -12.67,-22.72 -8.87,-17.9 -16.33,-32.73 -25.27,-50.57 -4.7,-9.45 -7.88,-15.87 -12.62,-25.31l-115.34 -223.38c-18.09,-31.1 -31.46,-68.22 -50.19,-98.98 -19.16,-31.48 -32.74,-68.8 -51.15,-100.51l-63.96 -123.14c-4.68,-9.45 -7.9,-15.84 -12.62,-25.27l-38.78 -74.98c-78.99,-158.05 -161.99,-313.95 -240.98,-471.9l-64.02 -125.55c-11.15,-22.47 -31.53,-50.31 -37.09,-74.15 -15.84,0 -30.66,3.83 -46.88,6.19 -87.37,12.74 -176.67,-0.68 -258.03,-27.38 -18.48,-6.05 -28.46,-11.38 -45,-18.18 -29.49,-12.14 -55.27,-29.45 -81.84,-47.08 -76.21,-50.59 -136.72,-122.95 -177.46,-204.26 -24.6,-49.06 -53.09,-126.66 -53.09,-199.7 -47.62,-11.11 -93.19,-23.95 -141.05,-35.92l-1549.1 -387.26c-94.95,-23.74 -186.5,-46.63 -281.09,-70.28l-281.1 -70.27 -17.72 35.38c-33.72,65.28 -82.28,123.1 -140.12,168.27 -38.47,30.07 -50.08,36.18 -94.12,60.09 -115.72,62.82 -259.18,73.2 -388.64,40.65 -78.29,-19.69 -146.74,-59.63 -209.87,-108.64l-28.63 -24.46c-43.85,-40.54 -86.61,-99.3 -111.84,-153.6 -4.19,-9.02 -12.97,-28.49 -15.17,-37.92 -14.86,7.14 -168.33,51.1 -186.52,56.15 -123.04,34.15 -246.65,74.54 -369.9,110.4 -123.1,35.81 -246.14,75.12 -369.84,110.45l-185.05 55.1c-121.94,39.73 -246.1,72.39 -369.71,110.59l-740.23 220.38c-11.32,4.91 -7.69,7.51 -10.37,19.95 -8.21,37.89 -22.76,76.93 -40.1,111.58l-32.2 56.29c-50.56,72.41 -92.96,113.99 -167.34,163.84 -76.81,51.47 -184.64,82.39 -276.55,82.39 -146.59,0 -260.9,-42.23 -366.9,-128.56 -174.03,-141.74 -244.28,-401 -146.21,-619.66l16.79 -33.76c11.36,-22.21 25.11,-41.95 38.78,-62.35l-39.01 -67.17c-48,-80.96 -91.06,-164.73 -138.06,-246.17l-200.36 -355.78c-8.55,-15.26 -16.54,-29.07 -24.52,-43.76l-288.29 -513.01c-4.08,-7.09 -7.18,-13.04 -11.7,-21.17l-50.31 -88.74c-5.01,-8.41 -7.58,-14.27 -12.62,-22.75l-25.49 -45.31c-4.61,-8.41 -8.97,-13.18 -10.98,-21.87 -29.37,6.83 -100.78,3.64 -132.96,-1.02 -39.86,-5.78 -82.75,-15.68 -115.52,-28.55 -32.59,-12.84 -44.35,-19.82 -74.24,-34.48 -23.24,-11.41 -43.85,-26.38 -65.12,-41.07 -27.95,-19.31 -51.47,-44.79 -75.44,-68.66l-32.59 -38.17c-65.98,-82.14 -108.29,-213.15 -108.29,-318.92 0,-105.84 33.05,-218.58 95.34,-301.53l43.08 -55.52c35.98,-40.84 89.14,-84.57 138.8,-108.94 11.84,-5.82 20.32,-11.1 31.18,-16.84l-27.38 -273.43c-3.33,-31.48 -5.11,-58.7 -8.43,-90.16 -5.93,-56.08 -10.75,-126.99 -18.35,-181.37 -4.33,-30.92 -6.67,-60.78 -9.26,-91.87 -2.15,-25.69 -4.14,-64 -9.89,-88.67 -32.24,-2.69 -76.9,-12.53 -104.61,-21.78 -44.89,-14.98 -88.69,-33.01 -127.98,-59.11 -25.25,-16.77 -50.22,-32.89 -72.69,-53.69 -42.83,-39.71 -84.78,-85.95 -111.83,-138.43 -7.35,-14.27 -14,-24.03 -20.57,-40.1 -6.07,-14.85 -12.63,-27.69 -18.31,-44.89 -17.67,-53.74 -27.44,-106.09 -29.36,-157.61l0 -37.69c2.93,-77.11 23.73,-152.67 62.35,-228.7l38.06 -60.52c5.54,-7.4 7.82,-12.03 13.99,-18.88l30.28 -35.44c21.91,-22.16 45.3,-39.82 68.31,-60.63 13.73,-12.41 43.29,-29.91 60.04,-38.54 46.39,-23.91 87.31,-43.5 141,-56.15 186.33,-43.92 306.78,20.99 334.23,23.27 3.78,-16.3 56.01,-106.78 65.84,-123.74 7.08,-12.27 14.66,-25.59 21.79,-38.86l55.61 -101.11c4.15,-7.72 6.1,-12.72 10.45,-19.91l43.97 -79.91c31.9,-52.47 77.9,-143.69 109.91,-200.99l44.3 -79.6c4.62,-7.62 6.85,-13.52 11.32,-21.51l110.33 -200.6c4.22,-8.5 6.77,-11.45 10.98,-19.37l55.62 -101.11c24.99,-46.54 51.98,-91.78 75.79,-139.08 4.56,-9.03 7.32,-11.97 11.88,-21.01l208.83 -380.17c7.81,-13.43 14.13,-26.9 22.05,-41.14 7.5,-13.5 14.31,-25.31 21.83,-38.82l33.72 -62.36c4.19,-8.36 7.11,-11.81 11,-19.33 4.12,-8 7.43,-12.96 11.79,-21.06l142.42 -259.51c28.23,-54.53 60.26,-107.32 88.44,-161.85 17.27,-33.45 38.03,-65.53 54.8,-99.4l76.76 -140.63c34.22,-58.91 64.4,-120.8 98.6,-179.47 4.07,-7 7.78,-10.84 10,-20.34 -8.27,-12.35 -13.42,-20.18 -21.08,-34.56 -6.81,-12.79 -13.45,-23.03 -19.35,-36.25 -66.15,-148.51 -66.43,-303.85 2.51,-452.47 15.5,-33.45 41.32,-74.58 65.14,-101.69 8.46,-9.61 16.47,-18.43 24.39,-28.7 20.31,-26.24 95.23,-83.41 123.67,-98.79 13.28,-7.18 22.31,-12.39 36.21,-19.39 162.58,-81.73 369.33,-72.2 525.61,22.1 12.49,7.53 20.66,14.66 32.87,22.72 50.78,33.59 30.12,39.57 68.33,25.86 27.62,-9.89 53.81,-21.18 79.67,-31.56 236.41,-94.99 475.83,-186.89 712.53,-280.93 476.13,-189.23 954.05,-374.61 1429.68,-564.83l474.87 -187.44c290.59,-116.22 582.78,-228.38 873.56,-344.87 13.37,-5.35 25.67,-10.29 39.73,-15.89 12.69,-5.08 25.7,-11.45 38.63,-14.46 11.5,-49.24 23.47,-92.79 44.83,-137.2 3.29,-6.86 7.2,-12.62 10.79,-19.53 26.18,-50.63 73.22,-113.62 117.35,-148.08 23.6,-18.46 41.99,-34.47 68.27,-50.55 37.93,-23.25 78.73,-43.2 121.84,-57.63 119.68,-40.08 261.85,-34.12 376.9,11.74 8.22,3.29 11.65,5.03 19.25,8.57 7.25,3.39 13.15,5.01 19.29,8.53 11.52,6.58 24.28,12.58 35.98,19.62 22.91,13.83 43.36,28.12 64.14,44.56 61.32,48.49 113.32,112.93 147.77,183.42 5.88,12.09 11.04,25.31 16.54,39.06 5.25,13.13 10.51,25.61 13.73,39.35 20.59,4.8 45,7.11 67.5,10.87 21.35,3.54 44.78,6.66 68.27,10.1 134.86,19.66 273.59,43.98 407.85,62.33 91.33,12.49 180.24,28.12 272.12,41.35 200.89,28.86 409.85,65.57 609.82,92.91 22.61,3.07 45.1,6.44 68.03,10.33 44.37,7.5 90.09,13.85 136.17,20.59 134.99,19.69 273.52,43.97 407.85,62.34 136.48,18.64 269.42,41.58 406.11,61.52l271.96 41.51c181.24,30.12 359.72,53.39 541.65,82.74 91.8,14.8 182.93,26.24 272.32,41.11l203.89 31.23c21.73,2.97 44.22,6.28 65.85,9.96 90.18,15.36 180.52,26.85 271.9,41.56 21.57,3.48 256.38,35.79 269.08,41.88 5.77,-8.62 11.47,-17.26 17.65,-25.34 17.58,-22.91 37.46,-45.34 58.79,-65.07l45.93 -37.48c8.16,-6.11 16.33,-10.93 24.24,-16.21 7.97,-5.31 15.49,-10.96 24.48,-15.97 38.22,-21.16 70.35,-36.64 115.47,-51.37 123.39,-40.26 281.16,-28.31 394.33,26.02 43.2,20.75 81.6,46.39 119.01,75.62 41.09,32.09 95.06,92.29 119.42,138.43l32.03 64.02c35.44,79.39 42.11,141.42 42.11,230.91 0,72.78 -32.87,157.4 -32.87,166.84l898 889.23c5.79,5.35 8.2,5.95 13.97,11.33 51.03,47.18 132.73,138.31 179.48,179.47 49.01,43.18 93.98,91.5 140.28,137.81 17.77,17.76 33.68,34.44 51.77,51.86 5.9,5.7 8.13,6.26 13.92,11.35 4.77,4.19 8.07,8.01 12.67,12.62l231.3 228.78c42.59,42.59 83.43,86.79 127.63,127.67 61.54,56.95 120.13,117.54 179.49,176.93l53.1 50.57c55.03,55.04 108.56,113.04 166.82,164.32 54.12,47.68 140.65,148.97 191.88,189.83 40.65,32.44 144.35,151.5 192.12,189.6 34.9,27.84 142.18,147.78 193.54,190.71 25.66,21.47 142.15,141.58 178.29,178.14 9.31,9.42 16.95,14.29 26.57,23.99l435.44 429.12c5.39,-3.64 9.77,-5.91 15.63,-9.64l45.12 -25.67c10.1,-5.9 21.43,-9.72 33.5,-14.52 11.86,-4.73 21.13,-9.33 32.4,-13.09 126.73,-42.41 291.96,-36.76 409.27,22.45l44.63 23.6c72.69,36.76 160.79,126.64 198.04,198.84 15.75,30.55 30.92,58.68 42.01,91.99 38.58,115.84 37.25,249.11 -7.34,359.83 -11,27.31 -23.77,50.43 -37.22,76.53 -12.98,25.16 -29.24,45.14 -46.57,67.2 -50.72,64.52 -118.64,112.74 -191.86,149.41l-61.38 24.56c-7.19,2.34 -15.85,4 -21.22,6.58l24.55 261.1c5.7,44.54 5.88,86.59 12.28,131.8 7.59,53.67 10.09,109.96 15.81,163.68l5.71 65.07c8.11,96.33 20.2,194.94 27.79,293.25l28.03 293.01c6.9,64.64 10.85,131.54 19.07,195.8l15.49 161.48c4.68,44.66 6.95,89.81 12.32,131.76 5.61,43.77 6.14,85.84 12.3,129.27 4.99,35.26 5.36,64.77 9.09,99.61 5.62,52.93 8.64,108.22 15.44,161.5 5.38,41.95 7.7,87.1 12.33,131.79 7.28,70.02 21.24,193.64 24.94,260.68l6.45 64.38c6.32,44.63 6.32,86.86 12.64,131.42 1.46,10.22 2.32,24.19 3.18,32.23 1.3,12.16 2.45,21.63 2.94,32.45 1.8,42.44 9.27,87.77 12.46,129.1 3.46,44.77 7.85,88.92 12.39,131.68 6.37,59.74 14.95,137.53 18.21,196.68l6.42 64.35c4.54,31.98 5.84,103.48 12,129.59 2.8,11.83 12.62,11.72 22.33,15.56 88.04,34.82 165.39,93.75 224.97,166.88 13.98,17.16 33.38,42.36 43.5,62.65l35.37 73.34c23.21,51.45 35.05,110.01 37.04,169.56zm-6648.35 3625.71c-51.77,0 -105.3,0.68 -154.75,12.07 -11.38,2.62 -23.63,7.23 -34.82,8.15 -4.56,-19.49 -309.54,-603.88 -353.9,-692.64l-203.11 -396.04c-21.81,-44.08 -83.82,-169.24 -101.7,-199.1 -19.11,-31.92 -32.02,-69.12 -51.13,-100.53 -15.54,-25.52 -81.44,-160.55 -101.6,-199.23l-203.08 -396.01c-83.07,-166.14 -171.41,-330.21 -254.48,-496.32 -74.84,-149.68 -153.55,-296.96 -228.35,-446.6l-128.1 -248.57c26.57,-7.12 100.05,-82.37 113.41,-98.96 32.6,-40.38 60.86,-81.96 82.95,-129.4 20.87,-44.82 33.43,-94.19 40.06,-144.49 1.78,-13.77 -1.58,-15.32 11.14,-16.66l196.66 -15.66c29.47,-3.89 66.92,-5.84 97.15,-9.03 17.77,-1.88 32.01,-1.44 49.78,-3.32l293.58 -24.92c48.98,-2.43 98.75,-10.57 146.63,-12.63 14.29,-0.59 35.16,-3.24 48.46,-4.65l247.35 -20.59c86.33,-2.71 204.17,-18.35 293.39,-25.11l245.04 -20.41c14.61,-0.44 34.3,-1.84 49.1,-3.98l97.57 -8.6c49.43,-2.45 97.45,-8.78 146.72,-12.53l441.16 -36.63c15.41,-2.27 33.66,-3.19 49.02,-4.05l97.95 -8.2c12.49,-1.64 36.75,-4.38 51.27,-4.38 -6.97,14.55 -11.47,40.71 -15.69,57.64l-76.32 292.74c-49.1,197.66 -105.21,391.89 -154.21,589.02l-230.5 879.24c-5.82,20.48 -11.09,41.4 -15.73,60.11l-91.48 350.91c-41.37,156.25 -84.52,314.11 -123.36,470.67 -18.65,75.17 -54.37,217.33 -76.65,292.43 -5.51,18.51 -10.89,39.96 -15.91,59.92l-176.42 675.51c-2.18,8.81 -6.84,20.48 -7.1,30.83zm192.12 50.55c8.62,-17.93 17.61,-62.57 22.78,-83.41 6.99,-28.26 14.36,-59.08 22.45,-86.24 19.54,-65.91 49.93,-188.74 67.5,-258.59 7.4,-29.46 15.47,-56.42 22.79,-85.91 28.7,-115.45 61.4,-229.39 89.97,-344.82 6.88,-27.77 15.54,-56.8 22.77,-85.96 71.39,-287.44 153.64,-572.2 224.99,-859.48l44.96 -172.41c35.79,-144.5 76.93,-286.82 112.77,-430.76 7.45,-29.91 15.35,-56.17 22.77,-85.92l337.73 -1290.24c12.65,-49.17 0.67,-45.19 60.2,-48.51l801.08 -68.52c30.6,-2.35 70.19,-5.39 99.47,-9.21 17.21,-2.25 32.25,-1.83 49.45,-3.61 14.18,-1.51 35.49,-4.29 50.97,-4.66 15.19,-0.4 34.67,-3.25 48.43,-4.68l100.72 -7.97c15.66,-0.51 35.33,-4.26 50.59,-5.01 34.36,-1.69 65.99,-5.16 100.93,-7.8 30.97,-2.34 68.51,-6.35 99.12,-9.54l100.74 -7.99c35.53,-1.12 106.72,-10.59 149.1,-12.67l99.7 -8.99c37.85,-5.49 118.07,-6.14 150.59,-13.71 -3.75,14.1 -116.95,159.27 -136.48,187.06l-369.1 500.49c-7.11,10.15 -15.24,20.41 -22.75,30.37l-230.73 312.73c-8.13,10.85 -14.99,19.44 -22.54,30.56 -36.35,53.42 -99.1,134.9 -138.55,187.56l-138.66 187.43c-7.94,10.5 -14.29,19.89 -22.4,30.71 -163.09,217.23 -321.17,438.52 -484.26,655.79 -31.62,42.14 -60.93,83.19 -92.45,124.95 -116.89,154.88 -229.19,313.11 -345.59,468.4l-935.29 1266.49c-4.56,6.23 -7.21,11.71 -13.77,14.07zm5389.45 -7586.26c7.97,1.85 11.91,4.75 19.86,7.96l63.86 22.09c22.59,6.62 71.37,17.97 98.31,17.97 0,18.27 3.01,35.16 4.65,50.96l14.85 157.03c4.57,35.69 4.78,68.73 9.75,104.01 2.62,18.46 2.48,34.84 5.08,53.09 2.59,18.46 2.46,34.84 5.05,53.09 9.73,68.66 10.65,141.49 19.46,210.59 8.62,67.56 12.6,139.51 19.91,210.09 5.98,57.59 16.78,151.15 19.91,207.62 3.66,66.21 17.32,143.72 20.15,209.9 2.92,67.38 17.33,142.55 20.19,209.83 2.95,68.36 16.43,142.07 20.18,209.87l29.33 311.96c10.7,75.69 14.17,187.51 24.9,263.27 9.96,70.36 10.75,138.82 19.85,210.17l24.77 260.9c5.34,69.31 16.21,139.29 20.1,209.94 3.82,69.28 15.86,140.32 20.15,209.88 3.16,51.2 19.23,165.03 20.23,209.82 -32.81,0 -69.57,6.19 -96.69,12 -65.76,14.09 -125.83,39.43 -181.37,76.48 -11.08,7.38 -20.41,13.17 -31.14,21.95 -9.98,8.15 -17.86,14.5 -28.12,22.45 -28.05,21.77 -53.25,51.35 -74.78,79.43 -21.91,28.58 -70.78,104.11 -73.26,134.02 -9.91,-0.23 -23.1,-3.42 -32.87,-5.05l-227.15 -38.29c-85.66,-14.22 -176.47,-29.7 -261.41,-44.45l-1042.98 -175.47c-86.38,-14.36 -171.62,-29 -259.65,-43.71 -44.86,-7.5 -85.52,-14.69 -129.62,-22.02 -41.6,-6.91 -90.76,-12.84 -131.83,-22.38l57.31 -112.09c66.02,-132.02 137.11,-261.48 203.08,-393.49l551.9 -1071.01c10.19,-20.4 19.79,-37 29.49,-56.46l58.14 -113.75c5.08,-10.2 10.24,-18.23 15.23,-27.78l27.74 -55.64c5.1,-10.21 10.24,-18.25 15.22,-27.78 26.52,-50.95 32.24,-59.34 66.79,-105.11 55.29,-73.36 106.83,-148.76 162.12,-222.1l197.52 -270.14c12.81,-16.98 24.14,-32.55 36.53,-49.43l107.58 -147.74c12.8,-17.05 24.04,-32.47 36.5,-49.43 24.62,-33.52 47.58,-66.25 72.57,-99.35 54.9,-72.74 106.21,-147.91 161.06,-220.67l181.66 -248.08c22.03,-29.24 76.14,-98.96 89.89,-124.95zm-4335.31 3551.73c0,-15.13 17.95,-81.86 22.12,-101.77 7.24,-34.37 15.38,-67.4 23.42,-100.43l234.53 -1016.79c32.13,-135.83 62.52,-271.07 94.05,-406.48 106.99,0 161.52,-11.49 251.01,-49.83 10.72,-4.58 18.36,-10.75 29.6,-13.37l77.57 94.33c7.17,8.5 12.28,15.01 19.28,23.69 6.88,8.55 13.24,15.6 19.43,23.57 6.17,7.94 12.53,14.98 19.41,23.52l99.38 120.57c45.56,58.47 110.8,130.44 156.74,189.58l118.04 142.34c7.03,8.32 11.92,15.78 19.12,23.84 7.42,8.34 13.58,15.87 20.64,24.85 6.7,8.5 12.93,15.22 19.49,23.52 6.39,8.06 12.46,15.77 19.34,23.65l216.07 261.68c6.76,7.58 13.74,15.9 19.58,23.4 6.18,7.94 12.55,15.01 19.42,23.56 7.19,8.91 13.1,16.58 20.47,25.04 63.02,72.29 132.61,164.04 195.75,236.48 6.88,7.9 12.95,15.56 19.35,23.65l79.06 95.36c7.29,9 12.69,16.24 20.4,25.09 6.92,7.92 12.77,15.56 19.32,23.68l38.92 47.02c5.97,6.7 17.6,18.51 19.57,25.92l-476.7 41.53c-40.58,5.95 -139.53,9.71 -176.94,15.15 -43.41,6.3 -132.22,9.82 -178.74,15.94l-239.63 20.73c-74.84,5.81 -168.24,16.49 -237.5,20.33l-121.26 10.21c-41.63,1.01 -128.61,12.41 -179.42,15.23l-179.37 15.25c-38.14,2.89 -81.22,9.96 -121.52,9.96zm-10973.55 -1397.95c28.06,-6.54 113.27,-78.24 113.76,-78.37l1372.94 394.06c152.79,44.58 305.44,87.12 457.54,131.44 304.86,88.86 609.62,174.66 914.51,263.52 152.05,44.3 304.77,86.88 457.54,131.45l343.55 98.85c20.5,5.74 103.22,31.98 116.81,32.31 -1.74,21.01 -5.04,38.91 -5.04,63.18 -21.69,5.06 -47.58,13.42 -68.57,19.93 -22.63,6.99 -45.4,14.34 -67.94,20.52l-410.98 122.4c-46.63,13.41 -89.16,27.55 -136.13,40.81 -46.89,13.28 -89.56,26.76 -136.33,40.64l-547.1 163.23c-21.78,6.1 -44.65,13.69 -67.88,20.6 -23.95,7.1 -44.61,12.58 -68.22,20.26l-549.17 163.68c-21.7,6.95 -44.92,14.04 -68.03,20.45 -15.36,4.27 -55.74,19.35 -71.32,19.7 -2.25,-26.9 -31.2,-106.98 -44.99,-129.45 -25.5,-41.58 -22.98,-46.46 -58.33,-90.82 -45.75,-57.42 -75.98,-81.78 -140.35,-125.07 -135.92,-91.43 -339.28,-106.41 -491.61,-43.64l-91.34 45.18 -117.37 -208.74c-8.69,-14.69 -15.08,-27.72 -23.71,-42.01l-165.58 -294.51c-31.74,-56.76 -90.02,-155.37 -117.17,-208.92l-70.84 -126.34c-4.19,-7.58 -7.43,-13.18 -11.99,-20.89 -4.71,-7.92 -7.44,-13.84 -11.68,-21.17l-189.48 -336.33c-7.13,-13.78 -43.81,-72.73 -45.5,-85.95zm13066.65 1135.03l-80.89 -96.06c-45.7,-58.76 -111.65,-133.77 -160.06,-193.86l-240.16 -290.71c-64.19,-79.68 -137.27,-163.09 -199.96,-242.41l-219.66 -265.7c-7.46,-9.23 -13.14,-15.6 -20.5,-24.99l-320.31 -387.49c-9.97,-12.3 -34.41,-40.14 -40.1,-50.91 11.05,-16.49 33.31,-42.05 47.93,-65.83 25.77,-42.07 45.44,-85.52 58.78,-133.34 11.52,-41.23 4.66,-35.55 19.37,-36.24l94.53 2.15c43.73,6 106.88,-2.15 151.35,2.85 29.77,3.34 209.11,3.08 262.55,2.89 16.7,-0.07 24.86,1.83 37.89,2.55l113.79 -0.04c17.02,-0.12 22.95,2.47 37.8,2.63l113.94 -0.16c15.97,0 21.01,2.74 37.76,2.67l113.92 -0.17c14.6,0.19 19.07,2.76 35.23,2.69 25.3,-0.09 50.6,-0.07 75.91,-0.07 28.22,0 50.57,2.69 75.82,2.55 25.28,-0.11 50.56,-0.02 75.84,-0.02 28.56,0 49.66,2.63 75.84,2.55 25.27,-0.09 50.56,0 75.84,0 28.84,0 48.2,2.54 75.83,2.52 25.28,-0.05 50.55,0 75.85,0 27.81,0 45.79,2.55 73.28,2.52 25.3,-0.02 50.57,0 75.87,0 28.49,0 47.3,2.53 75.81,2.53 25.3,0 50.57,0.02 75.85,0 27.6,-0.02 47,2.53 75.83,2.53 25.28,0 50.57,0.07 75.84,0 26.96,-0.07 47.08,2.52 75.84,2.52 -3.1,13.32 -147.76,287.97 -167.68,327.79l-254.48 493.79c-4.59,9.15 -8.5,17.1 -13.44,26.99 -5.44,10.89 -9.65,16.54 -15.22,27.77l-84.27 163.48c-53.93,108.75 -114.45,218.8 -168.52,326.96l-198.84 385.07zm-2242.23 -1908.58c0,128.21 39.24,253.02 123.3,349.43 31.25,35.84 65.3,70.53 105.18,97.04l63.04 38.08c9.89,4.96 24.74,13.69 34.55,15.99 0,26.89 -48.87,216.39 -55.82,250.05 -4.03,19.66 -9.77,42.5 -14.45,61.36l-173.41 751.83c-37.06,146.06 -64.51,293.2 -101.62,439.33 -10.8,42.56 -18.55,83.63 -28.79,125.42 -2.41,9.86 -4.87,21.47 -7.07,30.85 -9.26,39.1 -2.94,30.44 -41.37,34.47l-107.92 8.36c-21.77,2.29 -49.78,4.52 -71.55,6.81 -59.83,6.33 -117.26,6.98 -177.26,14.85 -10.54,1.39 -26.36,2.41 -34.86,3.05 -25.3,1.93 -45.68,4.06 -70.58,5.29l-69.77 6.07c-10.86,1.6 -25.97,2.15 -34.6,3.28 -11.03,1.46 -28.04,2.65 -37.32,3.16 -82.03,4.56 -166.11,16.33 -247.61,20.36 -8.87,0.42 -26.54,1.76 -37.27,3.17 -70.93,9.34 -141.25,7.7 -211.95,18.07 -71.97,10.56 -142.13,9.1 -214.12,18.44 -10.54,1.36 -26.07,2.75 -34.72,3.19l-177.33 14.81c-58.26,6.11 -118.11,7.21 -177.25,14.87 -11.28,1.46 -27.45,2.91 -37.22,3.22 -69.38,2.17 -143.41,15.99 -212.35,17.72 -66.13,1.64 -145.64,14.32 -214.8,17.72 -9.36,0.46 -23.58,1.66 -35.07,2.87l-69.03 6.81c-12.18,1.3 -27.15,2.59 -37.53,2.92 -46.05,1.43 -95.67,7.39 -141.92,12.25 -11.54,1.21 -25.69,2.41 -35.07,2.88 -15.03,0.73 -21.66,2.22 -35.35,2.57 -24.76,0.62 -46.28,5.05 -73.29,5.05 -6.44,-27.64 -15.63,-45.85 -25.99,-70.07 -9.45,-22.12 -19.76,-43.02 -33.15,-62.92 -79.59,-118.3 -185.27,-206.2 -335.21,-241.13 3.57,-15.41 2.22,-38.23 4.35,-53.79l3.32 -57.36c0.24,-22.14 2.59,-34.72 2.38,-55.76 -0.11,-13.75 1.61,-17.55 2.43,-27.88 2.3,-27.57 -0.18,-55.92 4.15,-84.37l8.5 -143.16c0.82,-9.67 -0.53,-20.38 0.26,-30.06l12.39 -197.45c0.79,-9.68 -0.53,-20.38 0.26,-30.06l12.39 -197.43c0.79,-9.68 -0.56,-20.41 0.26,-30.09 6.16,-74.61 8.38,-150.78 12.48,-227.63 0.61,-11.29 2.53,-12.12 2.65,-25.18l4.97 -86.04c2.15,-40.41 2.88,-75.88 5.03,-116.31l7.6 -111.2c2.15,-40.42 2.87,-75.89 5.05,-116.31l7.59 -111.21c2.16,-40.43 2.88,-75.89 5.03,-116.31l7.6 -111.21c2.18,-40.4 2.89,-75.89 5.04,-116.3 0.61,-11.24 2.51,-12.12 2.65,-25.16 0.09,-9.94 -0.76,-19.99 0.58,-29.75 3.73,-27.17 2.25,-59.01 4.52,-86.51l8.13 -141c3.72,-27.18 2.22,-59.02 4.49,-86.52l8.16 -141c1.92,-14.1 2.96,-41.25 4.21,-56.43l21.05 -398.6c7.95,-58.89 -18.23,-11.03 120.97,-61.02 41.53,-14.92 81.7,-36.5 118.48,-60.99 34.77,-23.16 69.01,-51.38 96.69,-82.82l52.47 -68.85 322.11 127.83c108.41,43.51 215.02,84.44 322.5,127.47 215.24,86.18 430.5,169.63 646.41,256.04l1251.3 495.48c13.64,5.46 29.45,10.74 41.17,16.97 -3.83,16.44 -14.16,33.04 -19.85,48.4 -6.49,17.42 -10.92,32.93 -16.45,51.81 -9.38,32.02 -16.77,82.37 -16.77,122.24zm1461.09 -2398.99l13.18 17.17c4.64,6.99 7.67,11.32 12.49,17.83 4.63,6.24 7.99,12.07 12.28,18.07 4.77,6.74 8.45,11.4 13.62,19.23 8.87,13.44 17.53,23.89 26.34,36.87 8.82,13.05 16.95,25.02 25.75,37.44l231.58 329.65c8.91,13.51 17.46,24.5 26.24,36.92l64.28 92.45c5.09,6.99 7.69,10.36 12.58,17.76 8.87,13.44 17.53,23.89 26.33,36.88 48.56,71.7 108.44,151.26 155.2,221.45l180.43 256.91c9.5,13.04 16.61,24.61 25.95,37.25l180.4 256.91c8.91,13.37 16.65,23.89 26.19,37l309.48 441.32c4.25,6.48 8.31,11.63 12.64,17.7l257.33 367.08c7.74,11.62 35.72,47.44 38.44,57.61 -170.73,0 -337.3,-7.6 -508.11,-7.6 -142.48,0.03 -298.1,-7.6 -444.91,-7.58 -24.67,0 -40.5,-2.66 -63.17,-2.54 -170.97,0.88 -338.04,-7.58 -508.13,-7.58 -102.34,0 -210.24,-5.09 -315.98,-5.04 -24.76,0.02 -39.64,-2.62 -63.2,-2.53l-98.63 0.05c-14.64,0.07 -19.5,-1.67 -30.29,-2.58 -1.47,-17.39 -10.54,-48.8 -15.76,-65.13 -11.25,-35.49 -31.13,-79.01 -50.06,-111.73 -23.92,-41.37 -75.46,-103.52 -110.74,-131.92 -20.43,-16.44 -76.23,-60.64 -96.46,-65.34 7.19,-14.96 14.76,-42.86 20.55,-60.36 6.58,-19.86 13.69,-38.53 20.84,-60.02l163.68 -486.01c12.95,-38.85 25.67,-82.47 40.87,-120.91l388.88 -1153.16c4.49,-13.43 18.81,-50.31 19.89,-63.52zm-7887 3685.71c-14.52,-0.33 -29.28,-4.98 -45.4,-5.16 -119.06,-1.37 -189.04,10.33 -300.92,65.81 -11.16,5.53 -21.13,11.53 -31.85,18.71 -10.84,7.25 -22.06,13.78 -31.71,21.38 -29.56,23.23 -59.01,47.21 -82.7,76.55 -7.64,9.48 -17.37,18.88 -24.62,28.48l-41.44 64.71c-66.46,-15.49 -157.35,-44.79 -224.11,-64.07l-2023.71 -582.54c-75.75,-21.2 -148.44,-43.1 -223.9,-64.26 -74.08,-20.83 -1106.71,-322.57 -1128,-323.05 1.99,-8.52 7.89,-19.23 11.58,-28.87 51.59,-134.78 45.36,-295.17 -19.13,-423.64 -14.32,-28.47 -33.62,-53.56 -48.07,-80.87 23.05,-26.52 51.07,-48.8 72.95,-76.23 15.74,-19.74 38.3,-39 56.62,-57.1 7.96,-7.88 10.62,-12.65 17.66,-20.27 11.88,-12.86 24.16,-24.11 36.69,-36.62l93.4 -96.18c7.32,-8.74 9.66,-12 17.82,-20.13l221.19 -228.77c12.55,-12.53 26.45,-24.92 37.9,-37.91 46.86,-53.24 134.6,-142.17 184.56,-192.11l73.3 -75.86c61.68,-61.66 122.84,-130.41 184.54,-192.12l54.3 -56.92c18.37,-19.09 39.52,-37.1 56.89,-56.84 22.41,-25.41 55,-52.68 74.18,-77.53 11.32,-14.64 22.99,-24.65 35.83,-37.48l36.75 -39.05c10.61,-12.7 25.72,-25.98 37.81,-38.04 6.93,-6.95 12.02,-12.07 18.97,-18.95 7.85,-7.76 10.4,-12.78 17.64,-20.29l295.8 -305.83c12.76,-12.75 24.23,-23.63 36.71,-36.6l36.6 -39.25c81.4,-81.39 159.33,-165.94 240.21,-247.66 7.44,-7.53 9.9,-12.63 17.61,-20.32l56.89 -56.87c43.13,-48.96 108.99,-108.89 146.75,-154.06 17.06,-20.44 38.12,-38.06 56.81,-56.94l130.14 -135.3c6.69,-6.67 14.45,-11.07 17.07,-20.85 9.27,4.89 10.68,7.07 19.14,13.74l97.15 77.28c13.34,10.42 25.32,20.4 39.35,31.4l77.49 61.53c134.28,109.87 273.06,213.34 407.01,323.58l991.15 788.48c26.26,21.29 51.44,41.09 77.55,61.47l758.95 603.59c6.11,5.01 13.87,11.88 19.64,15.75 -10.68,22.27 -107.07,297.27 -119.13,330.86l-199.03 554.29c-27.27,73.01 -50.77,148.85 -79.45,221.33l-39.42 109.75c-12.72,38.25 -26.25,73.23 -39.75,111.91l-99.89 276.79c-13.09,36.15 -45.77,136.74 -60.37,167.15zm3139.64 740.68c-59.56,0 -169.74,44.61 -221.44,79.35 -49.81,33.47 -96.74,71.6 -133.92,118.88 -4.64,5.88 -7.46,8.9 -11.18,14.08l-30.33 45.52c-17.46,32.52 -39.5,67.04 -48.02,103.66l-2234.36 -557.33c-2.06,-62.26 0.24,-101.27 -21.45,-167.26 -15.35,-46.8 -34.09,-90.78 -58.69,-128.36 -6.61,-10.07 -11.66,-17.51 -18.22,-27.31 -30.92,-46.24 -72.36,-82.55 -114.84,-117.69 -10.03,-8.27 -45.33,-33.13 -57.58,-35.98l110.48 -309.15c8.18,-20.66 14.6,-40.04 21.9,-61.52 28.37,-83.56 60.61,-163.1 89.16,-247.07 7.29,-21.44 13.71,-40.86 21.86,-61.52 30.67,-77.51 61.37,-169.49 89.3,-249.46l111.84 -310.3c15.65,-41.96 28.55,-82.63 44.79,-124.58l110.73 -308.92c7.29,-22.28 15.15,-41.23 22.77,-63.16 25.58,-73.76 11.26,-57.49 84.59,-84.78 40.62,-15.13 81.03,-30.58 122.8,-46.59 41.25,-15.79 80.31,-29.51 120.98,-45.87 20.87,-8.4 39.61,-14.47 60.69,-22.7 21.27,-8.29 40.93,-16.09 62.15,-23.8 81.77,-29.61 164.03,-63.32 245.8,-92.94l121.07 -45.77c40.62,-16.14 80.96,-30.6 122.78,-46.61 102.33,-39.22 204.83,-75.14 306.22,-115.91l120.99 -45.87c99.8,-38.24 207.73,-81.11 307.9,-116.79 102.29,-36.44 202.52,-77.11 304.53,-115.08 29.89,-11.14 160.49,-58.69 184.93,-70.42 2.89,10.84 21.05,33.1 28.14,42.65 23.93,32.17 56.31,64.19 87.81,89.14l62.01 44.14c37.81,22.84 111.77,58.26 153.19,61.72 0,44.82 -6.19,95.77 -7.5,141.64 -0.35,12.09 -2.02,11.54 -2.62,22.65 -0.45,8.18 0.46,17.12 0.02,25.3 -0.58,10.94 -1.97,9.27 -2.55,20.2 -0.44,8.17 0.46,17.12 0.02,25.29 -0.6,11.15 -2.27,10.57 -2.64,22.66 -0.21,8.15 0.63,17.17 -0.05,25.25 -3.4,41.49 -7.17,163.72 -10.64,189.02 -4.64,33.72 -6.93,149.2 -11.59,190.66 -2.86,25.45 -2.11,48.64 -2.81,73.01l-5.16 68.18c-0.44,8.18 0.47,17.11 0.02,25.29 -0.6,11.12 -2.27,10.56 -2.62,22.65 -1.52,53.74 -10.49,150.34 -10.02,192.23 0.23,19.31 -2.67,28.04 -2.49,48.05 0.17,18.12 -2.55,28.01 -2.5,48.07 0.05,16.68 -2.56,26.3 -2.52,45.49 0.1,38.28 -5.66,80.8 -7.67,118.75 -0.43,8.15 0.44,17.12 0.02,25.29 -0.59,11.12 -2.27,10.57 -2.63,22.66 -0.7,24.39 0.05,47.55 -2.81,73.01 -1.48,13.27 -0.86,33.13 -2.85,47.72 -5.88,42.97 -1.57,99.07 -7.97,141.18 -4.68,31.01 -7.78,146.45 -11.41,190.8 -0.68,8.06 0.16,17.08 -0.05,25.23 -0.37,12.09 -2.04,11.54 -2.64,22.65 -0.44,8.18 0.46,17.12 0.02,25.3 -0.58,11.12 -2.27,10.56 -2.62,22.68l-15.02 285.77c0.4,46.17 -8.48,133.92 -10.09,189.63 -0.34,12.11 -2.04,11.53 -2.61,22.65 -0.44,8.18 0.43,17.14 0,25.29 -0.58,11.14 -2.27,10.56 -2.62,22.69l-11.1 216.39c-4.76,31.6 -0.66,61.57 -5.44,93.14 -4.38,28.91 -7.57,133.98 -8.57,168.41 -0.35,12.09 -2.02,11.53 -2.62,22.65 -0.43,8.18 0.46,17.12 0.02,25.3 -0.57,11.11 -2.27,10.56 -2.61,22.65 -0.23,8.16 0.62,17.16 -0.04,25.23 -0.82,9.82 -2.42,10.38 -2.42,22.89zm-5407.14 -4345.5c-2.99,4.48 -10.47,13.69 -14.55,18.32 -5.33,6.03 -10.61,10.64 -16.43,16.45l-391.79 404.47c-6.25,7.13 -7.95,10.59 -15.15,17.72l-65.71 68.26c-21.39,23.1 -45.78,44.04 -65.89,68.11 -24.69,29.53 -102.54,101.44 -131.31,134.12l-49.31 51.79c-6.1,6.1 -10.34,10.29 -16.47,16.38 -7.42,7.39 -9.41,11.86 -16.34,19.07 -21.42,22.25 -44.87,43.17 -64.62,66.82 -19.49,23.28 -48.12,43.78 -66.46,67.55 -20.09,26.01 -45.15,42.92 -66.04,67.91 -6.44,7.69 -7.93,10.34 -15.27,17.59l-180.75 185.8c-11.9,11.83 -19.57,22.12 -31.6,34.11 -16.76,16.75 -35.26,32.51 -50.44,50.69 -6.44,7.69 -7.92,10.33 -15.27,17.6l-50.61 50.5c-6.33,6.86 -8,10.73 -15.11,17.77 -78.1,77.74 -152.07,159.6 -230.06,237.59 -11.31,11.28 -22.19,21.25 -32.89,32.83l-31.58 34.17c-11.55,11.55 -21.22,21.33 -32.87,32.84 -7.37,7.27 -8.85,9.89 -15.27,17.58 -15.16,18.16 -33.67,34.01 -50.44,50.69l-82.03 84.8c-20.15,24.11 -44.49,44.96 -65.88,68.1l-146.83 153.98c-17.38,21.77 -52.01,46.83 -66.11,67.89 -94.1,-49.81 -123.66,-66.44 -234.31,-81.68l-74.19 -4.38c-13.14,0.16 -14.27,2.39 -25.18,2.64 -0.7,-30.57 -14.9,-131.75 -17.61,-171.99 -5.84,-86.52 -18.42,-171.74 -25.59,-257.54 -4.99,-59.6 -25.07,-210.82 -25.07,-260.62 5.65,-2.68 65.72,-22.28 90.18,-33.68 15.08,-6.99 24.76,-13.6 39.63,-21.05 26.18,-13.09 50.81,-32.58 73.23,-50.62 7.24,-5.86 9.65,-8.13 16.3,-14.03l32.87 -30.33c35.86,-36.25 67.23,-81.65 89.93,-127.49 39.42,-79.65 56.81,-161.66 57.28,-253.68 0.14,-22.44 -3.45,-38.82 -5.05,-58.12 43.18,-20.7 203.68,-77.66 260.74,-100.73l525.4 -202.64c130.93,-52.05 263.45,-99.54 394.4,-151.61 21.35,-8.5 43.66,-17.79 65.41,-25.6l525.7 -202.31c43.55,-16.1 301.44,-119.6 329.01,-126.04zm10356.75 -144.08l390.36 89.95c235.92,51.37 469.07,110.26 705.28,161.78l392.74 90.06c181.33,42.9 368.2,81.63 549.06,125.9 25.97,6.37 52.4,11.25 78.44,17.64l353.34 81.45c8.76,2.09 33.92,6.21 40.95,9.59 -3.45,41.56 -0.32,23.91 -0.07,60.76 0.12,18.42 4.87,42.94 8.3,59.95 17,84.73 53.14,166.53 108.85,232.41 5.51,6.51 9.52,11.62 15.02,17.83 6.14,6.88 9.74,13.46 17.06,18.34 -4.5,6.72 -10.43,13.54 -15.15,20.23 -5.47,7.81 -9.85,13.92 -15.92,22l-378.96 518.47c-5.51,8.13 -10.03,13.73 -16.1,21.81 -6.18,8.22 -10.05,14.13 -15.86,22.06l-158.19 215.9c-11.4,15.11 -21.39,29.22 -31.81,44.07l-348.09 475.99c-9.58,12.74 -21.01,33.8 -33.61,42.23 -3.12,-11.74 -65.78,-96.96 -75.11,-109.4l-63.39 -90.82c-54.38,-81.59 -113.03,-160 -168.86,-240.66l-77.39 -109.65c-4.66,-7 -7.67,-11.34 -12.51,-17.87 -35.33,-47.58 -67.31,-97.59 -102.17,-145.51 -39.94,-54.88 -75.92,-112.23 -116.66,-166.51 -8.94,-11.9 -16.35,-23.21 -24.97,-35.69l-181.51 -258.35c-68.36,-99.02 -136.74,-193.77 -205.23,-292.75l-154.21 -219.92c-9.04,-13.06 -17.65,-24.65 -26.29,-36.92l-38.41 -55.11c-4.72,-6.97 -7.94,-10.51 -12.7,-17.65l-231.31 -329.86c-9.59,-12.78 -17.1,-24.65 -26.01,-37.2l-103.25 -147.03c-4.83,-6.5 -7.85,-10.83 -12.51,-17.83 -5.46,-8.15 -8.61,-11.1 -13.15,-19.69zm-1046.55 1943.95c-92.4,-7.66 -146.51,-9.7 -242.39,20.53 -18.65,5.9 -67.48,25.99 -83.21,35.6 -27.05,16.47 -44.13,22.56 -75.29,46.05 -44,33.15 -12.96,37.18 -116.6,-4.31 -28.01,-11.21 -53.55,-21.43 -81.26,-32.49l-494.36 -195.74c-519.49,-207.77 -1045.05,-411.46 -1564.76,-619.34l-248.12 -98.22c-28.19,-11.28 -53.11,-21.56 -81.2,-32.54l-84.19 -32.1c10.22,-43.9 10.31,-75.78 9.9,-119.05 -0.09,-9.21 -1.77,-12.3 4.01,-16.19l1317.78 -322.81c39.01,-9.81 80.12,-19.95 119.85,-29.3l840.25 -206.31c240.07,-60.02 480.28,-115.87 718.92,-175.95l598.6 -147.12c39.57,-9.91 81.87,-20.52 121.84,-29.83 -8.51,36.62 -152.06,452.37 -164.62,490.08l-495.15 1469.04zm-8688.34 -2040.01c32.76,-15.71 120.78,-46.19 158.56,-61.39 104.95,-42.2 212.15,-80.12 317.4,-122.43l277.34 -106.91c13.07,-5.21 26.8,-10.64 40.16,-15.45l158.84 -61.09c53.37,-21.45 104.74,-40.41 158.9,-61.01 78.85,-30 157.54,-63.28 237.12,-91.52l238.9 -92.27c106.35,-38.28 211.63,-81.74 317.75,-122.09l435.83 -168.34c33.77,-13.43 171.14,-69.14 199.72,-75.81 6.53,4.38 9.91,8.78 15.76,14.59 81.95,81.57 234.07,142.13 345.74,142.13 61.2,0 101.97,-2.01 161.13,-15.79 10.07,-2.34 22.68,-6.95 33.52,-9.47 18.23,12.21 120.34,119.13 144.75,143.4l241.36 246.51c32.65,32.67 63.43,63.43 96.07,96.09l96.06 98.56c40.4,40.4 83.6,78.73 120.2,122.49 21.96,26.3 48.99,49.26 73.17,73.44l467.79 475.14c21.67,25.94 122.23,122.48 157.87,158.09l48.05 50.57c20.78,20.8 83.74,78.62 96.69,97.96 -79.43,118.6 -105.36,220.17 -95.97,363.93 0.87,13.8 4.95,26.71 4.95,40.54 -22.97,5.35 -44.4,16.39 -66.66,24.32 -88.86,31.64 -175.95,67.11 -264.1,99.93 -21.29,7.93 -43.87,17.28 -65.8,25.18 -155.69,56.13 -310.82,118.6 -465.83,176.28l-199.68 75.84c-132.94,49.13 -264.6,102.94 -398.1,150.47 -22.79,8.11 -43.38,16.24 -65.92,25.09l-399.77 151.31c-23.49,8.73 -191.38,75.46 -200.08,75.46 -10.54,0 -295.56,-231.54 -303.34,-237.64l-150.89 -119.59c-106.07,-86.36 -215.01,-168.96 -321.05,-255.32l-188.42 -150.3c-115.46,-94.87 -242.48,-192.51 -360.57,-286.57l-1022.19 -813.09c-13.18,-10.77 -24.81,-19.31 -38.13,-30.1 -8.84,-7.19 -32.31,-23.94 -37.13,-31.14zm-2788.26 859.48c-20.78,-39.24 -68.13,-104.31 -101.11,-126.38l194.67 -353.9c3.89,-7.56 6.65,-11.81 10.89,-19.44l401.97 -733.07c6.58,-13.33 14.8,-26.8 21.81,-38.85l86.87 -158.35c7.83,-14.01 13.34,-25.5 21.12,-39.54 43.55,-78.41 84.81,-159.11 129.84,-236.68l238.33 -434.1c7.56,-14.04 14.99,-26.5 22.75,-40.47l173.62 -316.8c12.85,-26.15 81.53,-140.35 85.93,-159.25 8.46,2.25 50.44,29.05 63.2,35.42 73.24,36.44 158.23,58.12 242.69,58.12 3.1,13.37 68.86,128.68 81.95,150.59l84.04 151.08c8.96,17.67 18.78,32.8 27.8,50.56l83.2 149.36c39.41,66.02 74.08,134.61 111.49,201.98 44.66,80.37 97.92,168.76 138.96,250.33 25.51,50.61 56.01,102.17 84.18,150.91l82.74 149.83c9.78,17.62 17.94,32.8 27.8,50.56 18.93,34.06 37.27,67.53 56.31,100.42l111.35 202.13c-17.21,1.44 -59.6,21.24 -77.66,28.51 -154.4,62.08 -310.11,119.02 -465.1,179.53 -154.57,60.34 -309.95,121.65 -465.5,179.1 -25.16,9.29 -52.54,19.88 -78.37,30.33 -128.55,52 -258.37,97.47 -386.77,149.15 -11.97,4.81 -25.84,9.89 -38.26,14.83 -13.07,5.18 -26.8,10.62 -40.17,15.44 -25.34,9.13 -50.64,19.02 -76.88,29.28l-775.31 299.08c-26,10.35 -53.83,18.53 -78.38,30.29zm8364.78 -60.67c-2.08,-8.96 -6.35,-12.94 -10.12,-20.2l-37.39 -61.21c-8.43,-12.61 -17.86,-24.08 -27.77,-35.42 -30.04,-34.48 -63.28,-67.58 -101.67,-92.98 -13.2,-8.76 -25.11,-18.93 -39.57,-26.18 -8.34,-4.2 -14.06,-6.65 -21.58,-11.26 -7.4,-4.51 -13.16,-8.45 -22.26,-10.58 0.22,-10.64 6.21,-27.36 9.08,-38.94l575.39 -2172.47c9.71,-37.83 81.26,-297.04 82.88,-316.51 109.68,0 175.01,-12.35 260.35,-50.6 27.65,-12.39 54.4,-29.5 79.89,-46.48l36.41 -26.78c4.58,6.26 14.23,11.16 21.75,16.14l67.25 46.51c8.29,5.55 14.22,10.43 22.21,15.71l45.01 30.83c9.01,5.98 15.06,10.82 23.75,16.73l157.28 108.13c8.97,6.21 14.66,10.7 23.74,16.7l134.46 93.05c15.74,10.4 30.28,20.55 46.54,31.8 8.51,5.89 13.64,10.01 22.24,15.71l271.97 188.09c8.22,5.51 14.62,9.4 22.56,15.36 44.25,33.22 91.43,61.31 136.16,93.88l408.06 282.07c8,5.29 13.95,10.15 22.22,15.71l181.02 124.83c9.36,6.2 14.82,10.75 23.75,16.72l544.4 375.75c43.68,32.45 89.83,61.84 134.62,92.88l318.19 220.25c7.95,5.98 14.36,9.84 22.59,15.33 8.27,5.57 14.22,10.42 22.21,15.73l113.76 78.34c15.84,10.47 106.35,69.84 113.73,80.89l-459.06 112.26c-154.33,38.66 -306.58,74.73 -460.58,113.24 -536.08,134.1 -1074.64,260.43 -1610.25,394.35l-921.67 225.99c-77.95,19.5 -153.93,38.54 -231.55,56.63zm-6564.91 -2543.06c16.22,-8.6 48.11,-20.29 74.8,-36.44l65.02 -46.21c31.34,-25.37 39.33,-32.06 65.69,-63.22 3.75,-4.45 6.14,-6.07 9.74,-10.52 32.56,-40.32 49.95,-68.52 73.77,-115.77 4.73,-9.38 7.34,-17.76 11.79,-26.15 61.51,14.34 129.07,35.05 191.57,51.1l724.57 193.07c16.52,4.15 31.41,7.97 47.88,12.79 65.07,19.02 131.32,33.31 193.45,51.75l95.84 25.47c89.21,21.95 199.89,53.72 291.2,77.89l287.7 76.34c31.23,8.58 64.42,18.07 97.57,26.29 126.59,31.32 260.69,71.77 387.3,103.11l674.44 179.99c33.22,8.31 65.35,18.81 97.55,26.31 0.44,19.37 18.88,54.16 22.74,70.79 -12.46,1.01 -27.19,9.19 -39.49,13.57 -14.82,5.26 -25.38,9.62 -40.33,15.29 -26.98,10.26 -51.49,19.5 -78.33,30.34l-237.28 91.36c-27.01,10.92 -54.32,21.5 -80.17,31.04l-158.9 61.04c-52.61,20.92 -105.15,40.63 -158.49,61.45l-1029.23 396.51c-126.59,50.93 -270.05,103.12 -398,153.07l-317.77 122.09c-8.32,0 -11.72,-14.08 -16.24,-21.68l-40.81 -72.93c-5.17,-8.6 -9.06,-16.47 -13.6,-24.32l-27.08 -48.75c-59.53,-111.56 -129.51,-233.5 -191.24,-344.69l-259.6 -468.45c-17.05,-33.05 -35.93,-64.07 -53.9,-97.75 -4.69,-8.77 -8.51,-15.35 -13.53,-24.41l-122.93 -220.84c-5.03,-9.04 -8.85,-15.65 -13.54,-24.39l-116.34 -209.78c-3.34,-6.16 -3.48,-9.13 -5.82,-14.36zm6109.87 2234.66c-63.81,-14.88 -212.64,17.84 -275.4,50.71l-60.8 35.25 -139.66 -140.95c-16.63,-16.61 -31.41,-31.39 -48.04,-48.02 -211.58,-211.61 -422.14,-432.18 -634.48,-642.09 -9.32,-9.2 -13.6,-16.28 -22.72,-25.29 -32.37,-32.02 -62.64,-62.59 -94.84,-94.79 -16.19,-16.21 -30.56,-30.56 -46.77,-46.77l-188.3 -190.85c-16.82,-16.81 -29.86,-32.38 -46.8,-49.29 -32.19,-32.22 -62.55,-62.59 -94.78,-94.81 -16.19,-16.19 -30.46,-30.62 -46.76,-46.74l-140.94 -144.74c9.17,-13.71 27.04,-27.86 39.76,-38.61 5.41,-4.59 5.18,-5.46 9.35,-10.87l27.87 -32.82c17.53,-23.4 34.44,-47.39 47.74,-73.59l26.27 -54.62c18.55,-46.54 35.65,-115.03 35.99,-166.23 0.11,-14.66 3.92,-21.74 2.52,-37.69 -1.15,-12.89 -2.43,-21.49 -2.43,-38.07 35.95,-17.24 222.19,-88.36 260.37,-103.64l1565.12 -624.04c43.9,-17.54 86.25,-33.99 130.37,-51.63l97.52 -39.01c10.52,-4.22 24.67,-11.03 34.66,-13.37 49.81,74.4 115.08,137.85 195.52,178.62 12.16,6.16 23.64,15.45 37.02,18.55l-82.37 314.5c-13.48,53.6 -28.72,104.29 -42,157.73 -51.24,206.5 -115.4,424.85 -167.36,631.45l-375.63 1421.72zm1433.33 -3018.33c16.66,-1.38 185.59,-52.4 202.55,-57.81 33.03,-10.59 66.25,-19.02 99.88,-29.03l710.19 -204.93c17.78,-5.12 32.68,-9.76 50.72,-14.99 18.03,-5.18 33.92,-9.08 51.13,-14.59 126.85,-40.56 281.37,-77.05 405.74,-117.56l76.54 -22.06c8.47,-2.44 18.13,-6.02 26.14,-6.68 6,11.34 10.13,24.39 16.02,37.08 16.19,35 37.27,68.43 60.87,98.37l92.17 92.39c97.31,77.54 251.93,133.95 401.59,115.28 9.14,-1.13 47.14,-6.28 53.75,-9.45 2.08,25.13 183.61,796.36 203.68,888.37 11.09,50.77 21.96,98.98 33.95,148.06l67.72 296.31c23,97.22 44.16,199.54 68.29,295.72 12.48,49.78 21.35,98.42 33.83,148.18 12.05,48.02 22.47,97.78 33.89,148.11 9.04,39.77 99.98,420.55 102.14,446.44l-221.75 -152.39c-8.06,-6.05 -13.84,-9.71 -22.47,-15.46l-379.71 -262.37c-8.29,-5.63 -13.32,-9.82 -22.19,-15.71 -8.43,-5.58 -14.57,-9.31 -22.73,-15.22l-312.37 -215.96c-7.8,-5.79 -14.5,-10.33 -22.37,-15.55 -7.99,-5.27 -13.92,-10.14 -22.21,-15.7l-757.86 -523.78c-96.6,-66.92 -192.25,-135.26 -290.22,-200.19 -8.9,-5.86 -13.93,-10.05 -22.22,-15.7l-402.18 -277.83c-14.56,-10.94 -28.28,-19.05 -43.32,-29.97l-67.19 -46.57c-7.44,-5.27 -15.29,-9.91 -22.72,-15.19 -14.74,-10.45 -28.96,-20.57 -44.51,-31.36l-157.26 -108.16c-4.07,-2.71 -6.92,-4.56 -10.54,-7.16 -6.58,-4.72 -4.45,-5.3 -12.69,-7.5 6.25,-26.92 65.72,-91.5 65.72,-265.44zm-1087 2.53c0,59.3 9.64,87.14 10.12,108.7l-450.33 179.11c-21.94,8.78 -42.96,18 -65.07,25.94 -73.45,26.46 -182.37,72.57 -258.51,103l-1259.96 501.95c-10.29,4.13 -22.8,10.64 -33.94,11.57 -1.32,-5.64 -13.01,-27.06 -16.86,-33.71 -3.83,-6.62 -6.11,-8.43 -10.47,-14.8 -21.03,-30.83 -29.16,-44.68 -57.98,-73.45 -78.32,-78.21 -148.87,-127.71 -263.54,-156.1 -14.33,-3.57 -24.6,-6.54 -41.67,-8.95 -11.53,-1.62 -15.25,1.35 -15.52,-7.76l23.84 -110.19c32.59,-138.03 61.14,-289.55 92.56,-430.71 6.62,-29.77 13.06,-58.59 18.97,-87.19 59,-285.68 124.48,-578.09 185.36,-863.74l13.27 -62.57c4.45,-25.73 9.78,-9.33 66.85,-14.04 88.51,-7.29 148.37,-23.14 225.09,-63.1 5.73,-2.98 10.35,-5.09 16.91,-8.35 21.54,-10.73 76.16,-50.22 92.48,-66.81 30.69,-31.2 43.86,-37.15 75.16,-81.54 5.78,-8.2 15.43,-24.95 22.77,-30.32 10.33,2.75 92.71,59.25 103.13,66.25l204.77 133.93c17.41,11.17 32.52,21.71 50.03,33.4 228.28,152.17 462.54,302.18 691.17,453.98l591.49 389.34c0,13.87 -5.23,37.8 -6.9,51.23 -2.31,18.81 -3.22,35.26 -3.22,54.93zm3521.36 -214.88c8.18,-5.46 17.79,-11.13 25.64,-17.32l47.05 -38.89c7.94,-8.04 14.36,-16.13 23.37,-22.15 12.46,8.34 37.38,36.14 49.92,48.67l1016.21 1003.58c17.62,17.63 34.07,31.53 51.82,49.3l558.71 551.03c65.42,62.95 121.7,124.41 190.85,188.34 4.78,4.43 7.9,7.97 12.6,12.68l736.85 729.32c9.64,9.68 17.26,14.54 26.59,23.97l151.66 151.7c17.75,17.74 34.17,31.67 51.81,49.29 60.58,60.58 115.94,118.02 178.25,175.65 60.58,56.06 126.06,131.37 190.81,188.4l37.29 38.52c-16.33,24.39 -23.1,33.18 -37.06,61.5 -14.69,29.77 -5.17,24.2 -55.38,13.28l-536.46 -123.33c-26.96,-6.4 -57.71,-12.51 -84.44,-19.23l-164.46 -37.75c-28.49,-6 -54.04,-12.23 -82.29,-18.83 -27.25,-6.37 -57.23,-12.77 -84.45,-19.21l-246.72 -56.62c-80.24,-20.12 -169.7,-37.36 -248.71,-57.16 -27.7,-6.95 -54.16,-12.91 -82.3,-18.81 -26.5,-5.58 -57,-13.78 -84.25,-19.39l-330.93 -76.07c-107.22,-26.27 -222.9,-49.34 -331.15,-75.84 -27.46,-6.74 -53.67,-12.44 -82.37,-18.76l-248.83 -57.03c-13.29,-3.24 -28.74,-6.61 -41.27,-9.29 -11.7,-2.5 -11.17,-1.14 -13.9,-11.38 -1.95,-7.29 -2.55,-13.24 -4.47,-20.8 -7,-27.72 -13.28,-54.89 -18.91,-82.23 -5.44,-26.38 -12.04,-54.69 -19.01,-82.09 -19.43,-76.55 -38.31,-169.22 -57.15,-248.73 -12.9,-54.56 -26.11,-110.31 -38.01,-166.74 -16.4,-77.76 -40.19,-167.11 -56.89,-246.47l-171.44 -746.19c-24.6,-111.88 -50.52,-219.29 -75.91,-331.08 -23.9,-105.21 -54.6,-228.05 -76.21,-330.78l-76.46 -333.06zm-9638.83 500.54c0,-45.43 -7.32,-89.88 -16.68,-127.41 -5.01,-20.06 -9.98,-38.12 -17.24,-56.1l-21.69 -51.59c8.43,-0.71 50.98,-18.76 62.81,-23.13l188.17 -74.75c84.73,-34.04 168.08,-65.68 252.07,-99.28 334.44,-133.9 672.77,-264.08 1007.55,-397.99 313.84,-125.53 630.42,-247.23 944.32,-372.69l1085.75 -429.04c12.49,-5.01 7.36,-6.86 14.94,20.27 18.16,64.92 42.88,109.35 78.97,163.72 17.2,25.87 38.75,49.11 60.54,70.91 7.26,7.22 13.93,14.91 21.62,21.37 26.66,22.42 101.55,78.71 135.76,86.68l-36.87 170.45c-32.69,166.95 -78.16,349.22 -110.82,516.09 -22.15,113.16 -51.63,230.51 -73.71,343.38 -22.33,113.99 -50.96,230.14 -74.15,345.53 -5.67,28.32 -11.74,56.72 -18.41,85.19 -6.49,27.54 -11.67,55.77 -18.28,85.38 -19.81,89.07 -10.42,85.73 -36.81,92.11 -7.99,1.92 -12.99,3.96 -21.19,6.62 -41.83,13.62 -68.96,26.34 -108.6,48.13 -25.75,14.17 -52.76,34.71 -75.57,53.33 -90.02,73.52 -166.4,199.34 -182.47,313.03 -4.1,29.03 2.63,19.44 -70.25,1.54 -161.12,-39.61 -334.17,-92.53 -494.96,-131.98 -132.79,-32.58 -277.55,-76.23 -411.02,-109.72 -29.51,-7.41 -54.9,-15.08 -83.95,-22.24l-329.14 -87.95c-27.58,-6.79 -53.22,-14.52 -81.9,-21.73l-83.86 -22.33c-148.66,-42.23 -303.33,-79.73 -453.04,-120.78l-700.2 -187.1c-54.86,-14.08 -109.31,-29.71 -165.88,-43.91 -56.24,-14.11 -109.89,-30.99 -165.81,-44.01zm4565.36 -1698.76l132.54 19.11c44.92,7.25 86.34,13.31 131.42,20.27 264.09,40.65 531.54,78.64 794.11,120.98 89.23,14.38 174.72,25.36 263.26,40.07 42.25,7.05 87.74,13.78 131.75,19.92 44.25,6.19 88.3,13.81 134,20.23 173.58,24.32 356.18,56.63 530.86,80.89 86.75,12.04 175.43,28.33 263.19,40.16 171.62,23.12 358.37,57.34 530.83,80.89 129.48,17.7 266.96,42.58 397.19,60.39l131.67 19.99c171.85,29.07 359.78,51.96 530.84,80.91l197.55 29.96c22.49,3.72 46.91,6.04 67.53,10.84 0,10.07 -1.3,13.15 -2.9,22.37l-7.23 76.21c-4.95,2.39 -18.02,5.58 -23.3,7.05 -9.64,2.7 -15.8,4.31 -25.62,7.22l-152.74 44.43c-67.41,18.93 -134.93,39.4 -203.9,59.02l-813.75 235.33c-68.96,19.92 -135.79,39.97 -203.87,59.02 -18.2,5.07 -191.82,57.05 -204.77,58.14l-33.7 -67.43c-5.37,-10.19 -13.29,-21.38 -20.11,-30.47 -7.64,-10.19 -13.19,-19.68 -21.44,-29.07 -8.41,-9.56 -15.06,-17.76 -22.96,-27.6 -7.02,-8.76 -16.7,-17.17 -25.02,-25.56 -33.82,-34.2 -78.64,-61.77 -119.34,-85.43 -64.54,-37.48 -160.15,-65.59 -242.79,-65.59 -68.62,0 -116.03,2.29 -181.09,23.65 -83.27,27.35 -125.23,54.08 -187.99,102.71 -27.32,21.17 -92.44,88.22 -98.57,111.25 -7.99,-1.85 -86.98,-54.61 -103.66,-65.69l-309.4 -203.8c-69.22,-46.11 -136.85,-89.52 -205.77,-135.48l-462.1 -303.85c-18.09,-12.07 -34.24,-21.98 -52.07,-33.88l-309.41 -203.76c-11.97,-7.99 -199.85,-133.22 -208.31,-135.49 0.99,-11.95 5.07,-24.83 5.07,-37.91z"/>
    </clipPath>
 </defs>
 <g id="Capa_x0020_1">
  <metadata id="CorelCorpID_0Corel-Layer"/>
  <g>
   <g style="clip-path:url(#id0)">
    <polygon class="fil0" points="1278.79,2839.04 18706.02,2839.04 18706.02,17162.79 1278.79,17162.79 "/>
    <polygon id="_1" class="fil1" points="9941.35,9965.68 10043.46,9965.68 10043.46,10049.53 9941.35,10049.53 "/>
    <path id="_2" class="fil2" d="M9958.37 9979.66l0 55.89 68.07 0 0 -55.89 -68.07 0zm-51.06 -41.93l170.19 0 0 139.75 -170.19 0 0 -139.75z"/>
    <path id="_3" class="fil3" d="M9924.33 9951.71l0 111.79 136.15 0 0 -111.79 -136.15 0zm-51.06 -41.93l238.27 0 0 195.65 -238.27 0 0 -195.65z"/>
    <path id="_4" class="fil4" d="M9890.29 9923.76l0 167.69 204.23 0 0 -167.69 -204.23 0zm-51.05 -41.93l306.33 0 0 251.55 -306.33 0 0 -251.55z"/>
    <path id="_5" class="fil4" d="M9856.25 9895.81l0 223.59 272.3 0 0 -223.59 -272.3 0zm-51.05 -41.93l374.41 0 0 307.45 -374.41 0 0 -307.45z"/>
    <path id="_6" class="fil5" d="M9822.22 9867.86l0 279.49 340.37 0 0 -279.49 -340.37 0zm-51.06 -41.93l442.49 0 0 363.35 -442.49 0 0 -363.35z"/>
    <path id="_7" class="fil6" d="M9788.18 9839.91l0 335.39 408.45 0 0 -335.39 -408.45 0zm-51.06 -41.93l510.57 0 0 419.25 -510.57 0 0 -419.25z"/>
    <path id="_8" class="fil7" d="M9754.14 9811.96l0 391.29 476.53 0 0 -391.29 -476.53 0zm-51.05 -41.93l578.63 0 0 475.15 -578.63 0 0 -475.15z"/>
    <path id="_9" class="fil8" d="M9720.1 9784.01l0 447.19 544.61 0 0 -447.19 -544.61 0zm-51.05 -41.93l646.71 0 0 531.05 -646.71 0 0 -531.05z"/>
    <path id="_10" class="fil9" d="M9686.07 9756.06l0 503.09 612.67 0 0 -503.09 -612.67 0zm-51.06 -41.93l714.79 0 0 586.95 -714.79 0 0 -586.95z"/>
    <path id="_11" class="fil10" d="M9652.03 9728.11l0 558.99 680.75 0 0 -558.99 -680.75 0zm-51.06 -41.93l782.87 0 0 642.85 -782.87 0 0 -642.85z"/>
    <path id="_12" class="fil11" d="M9617.99 9700.16l0 614.89 748.83 0 0 -614.89 -748.83 0zm-51.06 -41.93l850.94 0 0 698.75 -850.94 0 0 -698.75z"/>
    <path id="_13" class="fil11" d="M9583.95 9672.21l0 670.79 816.91 0 0 -670.79 -816.91 0zm-51.05 -41.93l919.01 0 0 754.65 -919.01 0 0 -754.65z"/>
    <path id="_14" class="fil12" d="M9549.92 9644.26l0 726.69 884.97 0 0 -726.69 -884.97 0zm-51.06 -41.93l987.09 0 0 810.55 -987.09 0 0 -810.55z"/>
    <path id="_15" class="fil13" d="M9515.88 9616.31l0 782.59 953.05 0 0 -782.59 -953.05 0zm-51.06 -41.93l1055.17 0 0 866.45 -1055.17 0 0 -866.45z"/>
    <path id="_16" class="fil14" d="M9481.84 9588.36l0 838.49 1021.13 0 0 -838.49 -1021.13 0zm-51.06 -41.93l1123.24 0 0 922.35 -1123.24 0 0 -922.35z"/>
    <path id="_17" class="fil14" d="M9447.8 9560.41l0 894.39 1089.21 0 0 -894.39 -1089.21 0zm-51.05 -41.93l1191.31 0 0 978.25 -1191.31 0 0 -978.25z"/>
    <path id="_18" class="fil15" d="M9413.77 9532.46l0 950.29 1157.27 0 0 -950.29 -1157.27 0zm-51.06 -41.93l1259.39 0 0 1034.15 -1259.39 0 0 -1034.15z"/>
    <path id="_19" class="fil16" d="M9379.73 9504.51l0 1006.19 1225.35 0 0 -1006.19 -1225.35 0zm-51.06 -41.93l1327.47 0 0 1090.05 -1327.47 0 0 -1090.05z"/>
    <path id="_20" class="fil17" d="M9345.69 9476.56l0 1062.09 1293.43 0 0 -1062.09 -1293.43 0zm-51.06 -41.93l1395.54 0 0 1145.95 -1395.54 0 0 -1145.95z"/>
    <path id="_21" class="fil17" d="M9311.65 9448.61l0 1117.99 1361.51 0 0 -1117.99 -1361.51 0zm-51.05 -41.93l1463.61 0 0 1201.85 -1463.61 0 0 -1201.85z"/>
    <path id="_22" class="fil18" d="M9277.62 9420.66l0 1173.89 1429.57 0 0 -1173.89 -1429.57 0zm-51.06 -41.93l1531.69 0 0 1257.75 -1531.69 0 0 -1257.75z"/>
    <path id="_23" class="fil19" d="M9243.58 9392.71l0 1229.79 1497.65 0 0 -1229.79 -1497.65 0zm-51.06 -41.93l1599.77 0 0 1313.65 -1599.77 0 0 -1313.65z"/>
    <path id="_24" class="fil20" d="M9209.54 9364.76l0 1285.69 1565.73 0 0 -1285.69 -1565.73 0zm-51.06 -41.93l1667.85 0 0 1369.55 -1667.85 0 0 -1369.55z"/>
    <path id="_25" class="fil21" d="M9175.5 9336.81l0 1341.59 1633.81 0 0 -1341.59 -1633.81 0zm-51.05 -41.93l1735.91 0 0 1425.45 -1735.91 0 0 -1425.45z"/>
    <path id="_26" class="fil22" d="M9141.47 9308.86l0 1397.49 1701.87 0 0 -1397.49 -1701.87 0zm-51.06 -41.93l1803.99 0 0 1481.35 -1803.99 0 0 -1481.35z"/>
    <path id="_27" class="fil23" d="M9107.43 9280.91l0 1453.39 1769.95 0 0 -1453.39 -1769.95 0zm-51.06 -41.93l1872.07 0 0 1537.25 -1872.07 0 0 -1537.25z"/>
    <path id="_28" class="fil24" d="M9073.39 9252.96l0 1509.29 1838.03 0 0 -1509.29 -1838.03 0zm-51.06 -41.93l1940.15 0 0 1593.15 -1940.15 0 0 -1593.15z"/>
    <path id="_29" class="fil24" d="M9039.35 9225.01l0 1565.19 1906.11 0 0 -1565.19 -1906.11 0zm-51.05 -41.93l2008.21 0 0 1649.05 -2008.21 0 0 -1649.05z"/>
    <path id="_30" class="fil25" d="M9005.32 9197.06l0 1621.09 1974.17 0 0 -1621.09 -1974.17 0zm-51.06 -41.93l2076.29 0 0 1704.95 -2076.29 0 0 -1704.95z"/>
    <path id="_31" class="fil25" d="M8971.28 9169.11l0 1676.99 2042.25 0 0 -1676.99 -2042.25 0zm-51.06 -41.93l2144.37 0 0 1760.85 -2144.37 0 0 -1760.85z"/>
    <path id="_32" class="fil26" d="M8937.24 9141.16l0 1732.89 2110.33 0 0 -1732.89 -2110.33 0zm-51.06 -41.93l2212.45 0 0 1816.75 -2212.45 0 0 -1816.75z"/>
    <path id="_33" class="fil26" d="M8903.2 9113.21l0 1788.79 2178.41 0 0 -1788.79 -2178.41 0zm-51.05 -41.93l2280.51 0 0 1872.65 -2280.51 0 0 -1872.65z"/>
    <path id="_34" class="fil27" d="M8869.16 9085.26l0 1844.69 2246.48 0 0 -1844.69 -2246.48 0zm-51.05 -41.93l2348.59 0 0 1928.55 -2348.59 0 0 -1928.55z"/>
    <path id="_35" class="fil27" d="M8835.13 9057.31l0 1900.59 2314.55 0 0 -1900.59 -2314.55 0zm-51.06 -41.93l2416.67 0 0 1984.45 -2416.67 0 0 -1984.45z"/>
    <path id="_36" class="fil28" d="M8801.09 9029.36l0 1956.49 2382.63 0 0 -1956.49 -2382.63 0zm-51.06 -41.93l2484.75 0 0 2040.35 -2484.75 0 0 -2040.35z"/>
    <path id="_37" class="fil28" d="M8767.05 9001.41l0 2012.39 2450.71 0 0 -2012.39 -2450.71 0zm-51.05 -41.93l2552.81 0 0 2096.25 -2552.81 0 0 -2096.25z"/>
    <path id="_38" class="fil29" d="M8733.01 8973.46l0 2068.29 2518.78 0 0 -2068.29 -2518.78 0zm-51.05 -41.93l2620.89 0 0 2152.15 -2620.89 0 0 -2152.15z"/>
    <path id="_39" class="fil29" d="M8698.98 8945.51l0 2124.19 2586.85 0 0 -2124.19 -2586.85 0zm-51.06 -41.93l2688.97 0 0 2208.05 -2688.97 0 0 -2208.05z"/>
    <path id="_40" class="fil30" d="M8664.94 8917.56l0 2180.09 2654.93 0 0 -2180.09 -2654.93 0zm-51.06 -41.93l2757.05 0 0 2263.95 -2757.05 0 0 -2263.95z"/>
    <path id="_41" class="fil31" d="M8630.9 8889.61l0 2235.99 2723.01 0 0 -2235.99 -2723.01 0zm-51.05 -41.93l2825.11 0 0 2319.85 -2825.11 0 0 -2319.85z"/>
    <path id="_42" class="fil32" d="M8596.86 8861.66l0 2291.89 2791.08 0 0 -2291.89 -2791.08 0zm-51.05 -41.93l2893.19 0 0 2375.75 -2893.19 0 0 -2375.75z"/>
    <path id="_43" class="fil32" d="M8562.83 8833.71l0 2347.79 2859.15 0 0 -2347.79 -2859.15 0zm-51.06 -41.93l2961.27 0 0 2431.65 -2961.27 0 0 -2431.65z"/>
    <path id="_44" class="fil33" d="M8528.79 8805.76l0 2403.69 2927.23 0 0 -2403.69 -2927.23 0zm-51.06 -41.93l3029.35 0 0 2487.55 -3029.35 0 0 -2487.55z"/>
    <path id="_45" class="fil33" d="M8494.75 8777.81l0 2459.59 2995.31 0 0 -2459.59 -2995.31 0zm-51.05 -41.93l3097.41 0 0 2543.45 -3097.41 0 0 -2543.45z"/>
    <path id="_46" class="fil34" d="M8460.71 8749.86l0 2515.49 3063.39 0 0 -2515.49 -3063.39 0zm-51.05 -41.93l3165.49 0 0 2599.35 -3165.49 0 0 -2599.35z"/>
    <path id="_47" class="fil34" d="M8426.68 8721.91l0 2571.39 3131.45 0 0 -2571.39 -3131.45 0zm-51.06 -41.93l3233.57 0 0 2655.25 -3233.57 0 0 -2655.25z"/>
    <path id="_48" class="fil35" d="M8392.64 8693.96l0 2627.29 3199.53 0 0 -2627.29 -3199.53 0zm-51.06 -41.93l3301.65 0 0 2711.15 -3301.65 0 0 -2711.15z"/>
    <path id="_49" class="fil35" d="M8358.6 8666.01l0 2683.19 3267.61 0 0 -2683.19 -3267.61 0zm-51.06 -41.93l3369.72 0 0 2767.05 -3369.72 0 0 -2767.05z"/>
    <path id="_50" class="fil36" d="M8324.56 8638.06l0 2739.09 3335.69 0 0 -2739.09 -3335.69 0zm-51.05 -41.93l3437.79 0 0 2822.95 -3437.79 0 0 -2822.95z"/>
    <path id="_51" class="fil36" d="M8290.53 8610.11l0 2794.99 3403.75 0 0 -2794.99 -3403.75 0zm-51.06 -41.93l3505.87 0 0 2878.85 -3505.87 0 0 -2878.85z"/>
    <path id="_52" class="fil37" d="M8256.49 8582.16l0 2850.89 3471.83 0 0 -2850.89 -3471.83 0zm-51.06 -41.93l3573.95 0 0 2934.75 -3573.95 0 0 -2934.75z"/>
    <path id="_53" class="fil37" d="M8222.45 8554.21l0 2906.79 3539.91 0 0 -2906.79 -3539.91 0zm-51.06 -41.93l3642.02 0 0 2990.65 -3642.02 0 0 -2990.65z"/>
    <path id="_54" class="fil38" d="M8188.41 8526.26l0 2962.69 3607.99 0 0 -2962.69 -3607.99 0zm-51.05 -41.93l3710.09 0 0 3046.55 -3710.09 0 0 -3046.55z"/>
    <path id="_55" class="fil38" d="M8154.38 8498.31l0 3018.59 3676.05 0 0 -3018.59 -3676.05 0zm-51.06 -41.93l3778.17 0 0 3102.45 -3778.17 0 0 -3102.45z"/>
    <path id="_56" class="fil39" d="M8120.34 8470.36l0 3074.49 3744.13 0 0 -3074.49 -3744.13 0zm-51.06 -41.93l3846.25 0 0 3158.35 -3846.25 0 0 -3158.35z"/>
    <path id="_57" class="fil40" d="M8086.3 8442.41l0 3130.39 3812.21 0 0 -3130.39 -3812.21 0zm-51.06 -41.93l3914.32 0 0 3214.25 -3914.32 0 0 -3214.25z"/>
    <path id="_58" class="fil41" d="M8052.26 8414.46l0 3186.29 3880.29 0 0 -3186.29 -3880.29 0zm-51.05 -41.93l3982.39 0 0 3270.15 -3982.39 0 0 -3270.15z"/>
    <path id="_59" class="fil41" d="M8018.23 8386.51l0 3242.19 3948.35 0 0 -3242.19 -3948.35 0zm-51.06 -41.93l4050.47 0 0 3326.05 -4050.47 0 0 -3326.05z"/>
    <path id="_60" class="fil42" d="M7984.19 8358.56l0 3298.09 4016.43 0 0 -3298.09 -4016.43 0zm-51.06 -41.93l4118.55 0 0 3381.95 -4118.55 0 0 -3381.95z"/>
    <path id="_61" class="fil43" d="M7950.15 8330.61l0 3353.99 4084.51 0 0 -3353.99 -4084.51 0zm-51.06 -41.93l4186.63 0 0 3437.85 -4186.63 0 0 -3437.85z"/>
    <path id="_62" class="fil44" d="M7916.11 8302.66l0 3409.89 4152.59 0 0 -3409.89 -4152.59 0zm-51.05 -41.93l4254.69 0 0 3493.75 -4254.69 0 0 -3493.75z"/>
    <path id="_63" class="fil44" d="M7882.08 8274.71l0 3465.79 4220.65 0 0 -3465.79 -4220.65 0zm-51.06 -41.93l4322.77 0 0 3549.65 -4322.77 0 0 -3549.65z"/>
    <path id="_64" class="fil45" d="M7848.04 8246.76l0 3521.69 4288.73 0 0 -3521.69 -4288.73 0zm-51.06 -41.93l4390.85 0 0 3605.55 -4390.85 0 0 -3605.55z"/>
    <path id="_65" class="fil46" d="M7814 8218.81l0 3577.59 4356.81 0 0 -3577.59 -4356.81 0zm-51.06 -41.93l4458.93 0 0 3661.45 -4458.93 0 0 -3661.45z"/>
    <path id="_66" class="fil47" d="M7779.96 8190.86l0 3633.49 4424.89 0 0 -3633.49 -4424.89 0zm-51.05 -41.93l4526.99 0 0 3717.35 -4526.99 0 0 -3717.35z"/>
    <path id="_67" class="fil47" d="M7745.92 8162.91l0 3689.39 4492.96 0 0 -3689.39 -4492.96 0zm-51.05 -41.93l4595.07 0 0 3773.25 -4595.07 0 0 -3773.25z"/>
    <path id="_68" class="fil48" d="M7711.89 8134.96l0 3745.29 4561.03 0 0 -3745.29 -4561.03 0zm-51.06 -41.93l4663.15 0 0 3829.15 -4663.15 0 0 -3829.15z"/>
    <path id="_69" class="fil49" d="M7677.85 8107.01l0 3801.19 4629.11 0 0 -3801.19 -4629.11 0zm-51.06 -41.93l4731.23 0 0 3885.05 -4731.23 0 0 -3885.05z"/>
    <path id="_70" class="fil50" d="M7643.81 8079.06l0 3857.09 4697.19 0 0 -3857.09 -4697.19 0zm-51.05 -41.93l4799.29 0 0 3940.95 -4799.29 0 0 -3940.95z"/>
    <path id="_71" class="fil50" d="M7609.77 8051.11l0 3912.99 4765.26 0 0 -3912.99 -4765.26 0zm-51.05 -41.93l4867.37 0 0 3996.85 -4867.37 0 0 -3996.85z"/>
    <path id="_72" class="fil51" d="M7575.74 8023.16l0 3968.89 4833.33 0 0 -3968.89 -4833.33 0zm-51.06 -41.93l4935.45 0 0 4052.75 -4935.45 0 0 -4052.75z"/>
    <path id="_73" class="fil52" d="M7541.7 7995.21l0 4024.79 4901.41 0 0 -4024.79 -4901.41 0zm-51.06 -41.93l5003.53 0 0 4108.65 -5003.53 0 0 -4108.65z"/>
    <path id="_74" class="fil53" d="M7507.66 7967.26l0 4080.69 4969.49 0 0 -4080.69 -4969.49 0zm-51.05 -41.93l5071.59 0 0 4164.55 -5071.59 0 0 -4164.55z"/>
    <path id="_75" class="fil53" d="M7473.62 7939.31l0 4136.59 5037.56 0 0 -4136.59 -5037.56 0zm-51.05 -41.93l5139.67 0 0 4220.45 -5139.67 0 0 -4220.45z"/>
    <path id="_76" class="fil54" d="M7439.59 7911.36l0 4192.49 5105.63 0 0 -4192.49 -5105.63 0zm-51.06 -41.93l5207.75 0 0 4276.35 -5207.75 0 0 -4276.35z"/>
    <path id="_77" class="fil55" d="M7405.55 7883.41l0 4248.39 5173.71 0 0 -4248.39 -5173.71 0zm-51.06 -41.93l5275.83 0 0 4332.25 -5275.83 0 0 -4332.25z"/>
    <path id="_78" class="fil56" d="M7371.51 7855.46l0 4304.29 5241.79 0 0 -4304.29 -5241.79 0zm-51.05 -41.93l5343.89 0 0 4388.15 -5343.89 0 0 -4388.15z"/>
    <path id="_79" class="fil56" d="M7337.47 7827.51l0 4360.19 5309.87 0 0 -4360.19 -5309.87 0zm-51.05 -41.93l5411.97 0 0 4444.05 -5411.97 0 0 -4444.05z"/>
    <path id="_80" class="fil57" d="M7303.44 7799.56l0 4416.09 5377.93 0 0 -4416.09 -5377.93 0zm-51.06 -41.93l5480.05 0 0 4499.95 -5480.05 0 0 -4499.95z"/>
    <path id="_81" class="fil58" d="M7269.4 7771.61l0 4471.99 5446.01 0 0 -4471.99 -5446.01 0zm-51.06 -41.93l5548.13 0 0 4555.85 -5548.13 0 0 -4555.85z"/>
    <path id="_82" class="fil59" d="M7235.36 7743.66l0 4527.89 5514.09 0 0 -4527.89 -5514.09 0zm-51.06 -41.93l5616.2 0 0 4611.75 -5616.2 0 0 -4611.75z"/>
    <path id="_83" class="fil59" d="M7201.32 7715.71l0 4583.79 5582.17 0 0 -4583.79 -5582.17 0zm-51.05 -41.93l5684.27 0 0 4667.65 -5684.27 0 0 -4667.65z"/>
    <path id="_84" class="fil60" d="M7167.29 7687.76l0 4639.69 5650.23 0 0 -4639.69 -5650.23 0zm-51.06 -41.93l5752.35 0 0 4723.54 -5752.35 0 0 -4723.54z"/>
    <path id="_85" class="fil61" d="M7133.25 7659.81l0 4695.59 5718.31 0 0 -4695.59 -5718.31 0zm-51.06 -41.93l5820.43 0 0 4779.44 -5820.43 0 0 -4779.44z"/>
    <path id="_86" class="fil62" d="M7099.21 7631.86l0 4751.49 5786.39 0 0 -4751.49 -5786.39 0zm-51.06 -41.92l5888.5 0 0 4835.33 -5888.5 0 0 -4835.33z"/>
    <path id="_87" class="fil62" d="M7065.17 7603.91l0 4807.39 5854.47 0 0 -4807.39 -5854.47 0zm-51.05 -41.92l5956.57 0 0 4891.23 -5956.57 0 0 -4891.23z"/>
    <path id="_88" class="fil63" d="M7031.14 7575.96l0 4863.29 5922.53 0 0 -4863.29 -5922.53 0zm-51.06 -41.92l6024.65 0 0 4947.13 -6024.65 0 0 -4947.13z"/>
    <path id="_89" class="fil64" d="M6997.1 7548.01l0 4919.19 5990.61 0 0 -4919.19 -5990.61 0zm-51.06 -41.92l6092.73 0 0 5003.03 -6092.73 0 0 -5003.03z"/>
    <path id="_90" class="fil65" d="M6963.06 7520.06l0 4975.09 6058.69 0 0 -4975.09 -6058.69 0zm-51.06 -41.92l6160.8 0 0 5058.93 -6160.8 0 0 -5058.93z"/>
    <path id="_91" class="fil65" d="M6929.02 7492.11l0 5030.99 6126.77 0 0 -5030.99 -6126.77 0zm-51.05 -41.92l6228.87 0 0 5114.83 -6228.87 0 0 -5114.83z"/>
    <path id="_92" class="fil66" d="M6894.99 7464.16l0 5086.89 6194.83 0 0 -5086.89 -6194.83 0zm-51.06 -41.92l6296.95 0 0 5170.73 -6296.95 0 0 -5170.73z"/>
    <path id="_93" class="fil66" d="M6860.95 7436.21l0 5142.79 6262.91 0 0 -5142.79 -6262.91 0zm-51.06 -41.92l6365.03 0 0 5226.63 -6365.03 0 0 -5226.63z"/>
    <path id="_94" class="fil67" d="M6826.91 7408.26l0 5198.69 6330.99 0 0 -5198.69 -6330.99 0zm-51.06 -41.92l6433.1 0 0 5282.53 -6433.1 0 0 -5282.53z"/>
    <path id="_95" class="fil67" d="M6792.87 7380.31l0 5254.59 6399.07 0 0 -5254.59 -6399.07 0zm-51.05 -41.92l6501.17 0 0 5338.43 -6501.17 0 0 -5338.43z"/>
    <path id="_96" class="fil68" d="M6758.84 7352.36l0 5310.49 6467.13 0 0 -5310.49 -6467.13 0zm-51.06 -41.92l6569.25 0 0 5394.33 -6569.25 0 0 -5394.33z"/>
    <path id="_97" class="fil68" d="M6724.8 7324.41l0 5366.39 6535.21 0 0 -5366.39 -6535.21 0zm-51.06 -41.92l6637.33 0 0 5450.23 -6637.33 0 0 -5450.23z"/>
    <path id="_98" class="fil69" d="M6690.76 7296.46l0 5422.29 6603.29 0 0 -5422.29 -6603.29 0zm-51.06 -41.92l6705.41 0 0 5506.13 -6705.41 0 0 -5506.13z"/>
    <path id="_99" class="fil69" d="M6656.72 7268.51l0 5478.19 6671.37 0 0 -5478.19 -6671.37 0zm-51.05 -41.92l6773.47 0 0 5562.03 -6773.47 0 0 -5562.03z"/>
    <path id="_100" class="fil70" d="M6622.69 7240.56l0 5534.09 6739.43 0 0 -5534.09 -6739.43 0zm-51.06 -41.92l6841.55 0 0 5617.93 -6841.55 0 0 -5617.93z"/>
    <path id="_101" class="fil70" d="M6588.65 7212.61l0 5589.99 6807.51 0 0 -5589.99 -6807.51 0zm-51.06 -41.92l6909.63 0 0 5673.83 -6909.63 0 0 -5673.83z"/>
    <path id="_102" class="fil71" d="M6554.61 7184.66l0 5645.89 6875.59 0 0 -5645.89 -6875.59 0zm-51.06 -41.92l6977.71 0 0 5729.73 -6977.71 0 0 -5729.73z"/>
    <path id="_103" class="fil71" d="M6520.57 7156.71l0 5701.79 6943.67 0 0 -5701.79 -6943.67 0zm-51.05 -41.92l7045.77 0 0 5785.63 -7045.77 0 0 -5785.63z"/>
    <path id="_104" class="fil72" d="M6486.53 7128.76l0 5757.69 7011.74 0 0 -5757.69 -7011.74 0zm-51.05 -41.92l7113.85 0 0 5841.53 -7113.85 0 0 -5841.53z"/>
    <path id="_105" class="fil73" d="M6452.5 7100.81l0 5813.59 7079.81 0 0 -5813.59 -7079.81 0zm-51.06 -41.92l7181.93 0 0 5897.43 -7181.93 0 0 -5897.43z"/>
    <path id="_106" class="fil74" d="M6418.46 7072.86l0 5869.49 7147.89 0 0 -5869.49 -7147.89 0zm-51.06 -41.92l7250.01 0 0 5953.33 -7250.01 0 0 -5953.33z"/>
    <path id="_107" class="fil74" d="M6384.42 7044.91l0 5925.39 7215.97 0 0 -5925.39 -7215.97 0zm-51.05 -41.92l7318.07 0 0 6009.23 -7318.07 0 0 -6009.23z"/>
    <path id="_108" class="fil75" d="M6350.38 7016.96l0 5981.29 7284.04 0 0 -5981.29 -7284.04 0zm-51.05 -41.92l7386.15 0 0 6065.13 -7386.15 0 0 -6065.13z"/>
    <path id="_109" class="fil75" d="M6316.35 6989.01l0 6037.19 7352.11 0 0 -6037.19 -7352.11 0zm-51.06 -41.92l7454.23 0 0 6121.03 -7454.23 0 0 -6121.03z"/>
    <path id="_110" class="fil76" d="M6282.31 6961.06l0 6093.09 7420.19 0 0 -6093.09 -7420.19 0zm-51.06 -41.92l7522.31 0 0 6176.93 -7522.31 0 0 -6176.93z"/>
    <path id="_111" class="fil76" d="M6248.27 6933.11l0 6148.99 7488.27 0 0 -6148.99 -7488.27 0zm-51.05 -41.92l7590.37 0 0 6232.83 -7590.37 0 0 -6232.83z"/>
    <path id="_112" class="fil77" d="M6214.23 6905.16l0 6204.89 7556.34 0 0 -6204.89 -7556.34 0zm-51.05 -41.92l7658.45 0 0 6288.73 -7658.45 0 0 -6288.73z"/>
    <path id="_113" class="fil77" d="M6180.2 6877.21l0 6260.79 7624.41 0 0 -6260.79 -7624.41 0zm-51.06 -41.92l7726.53 0 0 6344.63 -7726.53 0 0 -6344.63z"/>
    <path id="_114" class="fil78" d="M6146.16 6849.26l0 6316.69 7692.49 0 0 -6316.69 -7692.49 0zm-51.06 -41.92l7794.61 0 0 6400.53 -7794.61 0 0 -6400.53z"/>
    <path id="_115" class="fil79" d="M6112.12 6821.31l0 6372.59 7760.57 0 0 -6372.59 -7760.57 0zm-51.05 -41.92l7862.67 0 0 6456.43 -7862.67 0 0 -6456.43z"/>
    <path id="_116" class="fil80" d="M6078.08 6793.36l0 6428.49 7828.65 0 0 -6428.49 -7828.65 0zm-51.05 -41.92l7930.75 0 0 6512.33 -7930.75 0 0 -6512.33z"/>
    <path id="_117" class="fil80" d="M6044.05 6765.41l0 6484.39 7896.71 0 0 -6484.39 -7896.71 0zm-51.06 -41.92l7998.83 0 0 6568.23 -7998.83 0 0 -6568.23z"/>
    <path id="_118" class="fil81" d="M6010.01 6737.46l0 6540.29 7964.79 0 0 -6540.29 -7964.79 0zm-51.06 -41.92l8066.91 0 0 6624.13 -8066.91 0 0 -6624.13z"/>
    <path id="_119" class="fil82" d="M5975.97 6709.51l0 6596.19 8032.87 0 0 -6596.19 -8032.87 0zm-51.06 -41.92l8134.98 0 0 6680.03 -8134.98 0 0 -6680.03z"/>
    <path id="_120" class="fil83" d="M5941.93 6681.56l0 6652.09 8100.95 0 0 -6652.09 -8100.95 0zm-51.05 -41.92l8203.05 0 0 6735.93 -8203.05 0 0 -6735.93z"/>
    <path id="_121" class="fil84" d="M5907.9 6653.61l0 6707.99 8169.01 0 0 -6707.99 -8169.01 0zm-51.06 -41.92l8271.13 0 0 6791.83 -8271.13 0 0 -6791.83z"/>
    <path id="_122" class="fil85" d="M5873.86 6625.66l0 6763.89 8237.09 0 0 -6763.89 -8237.09 0zm-51.06 -41.92l8339.21 0 0 6847.73 -8339.21 0 0 -6847.73z"/>
    <path id="_123" class="fil86" d="M5839.82 6597.71l0 6819.79 8305.17 0 0 -6819.79 -8305.17 0zm-51.06 -41.92l8407.28 0 0 6903.63 -8407.28 0 0 -6903.63z"/>
    <path id="_124" class="fil87" d="M5805.78 6569.76l0 6875.69 8373.25 0 0 -6875.69 -8373.25 0zm-51.05 -41.92l8475.35 0 0 6959.53 -8475.35 0 0 -6959.53z"/>
    <path id="_125" class="fil87" d="M5771.75 6541.81l0 6931.59 8441.31 0 0 -6931.59 -8441.31 0zm-51.06 -41.92l8543.43 0 0 7015.43 -8543.43 0 0 -7015.43z"/>
    <path id="_126" class="fil88" d="M5737.71 6513.86l0 6987.49 8509.39 0 0 -6987.49 -8509.39 0zm-51.06 -41.92l8611.51 0 0 7071.33 -8611.51 0 0 -7071.33z"/>
    <path id="_127" class="fil89" d="M5703.67 6485.91l0 7043.39 8577.47 0 0 -7043.39 -8577.47 0zm-51.06 -41.92l8679.58 0 0 7127.23 -8679.58 0 0 -7127.23z"/>
    <path id="_128" class="fil90" d="M5669.63 6457.96l0 7099.29 8645.55 0 0 -7099.29 -8645.55 0zm-51.05 -41.92l8747.65 0 0 7183.13 -8747.65 0 0 -7183.13z"/>
    <path id="_129" class="fil90" d="M5635.6 6430.01l0 7155.19 8713.61 0 0 -7155.19 -8713.61 0zm-51.06 -41.92l8815.73 0 0 7239.03 -8815.73 0 0 -7239.03z"/>
    <path id="_130" class="fil91" d="M5601.56 6402.06l0 7211.09 8781.69 0 0 -7211.09 -8781.69 0zm-51.06 -41.92l8883.81 0 0 7294.93 -8883.81 0 0 -7294.93z"/>
    <path id="_131" class="fil92" d="M5567.52 6374.11l0 7266.99 8849.77 0 0 -7266.99 -8849.77 0zm-51.06 -41.92l8951.89 0 0 7350.83 -8951.89 0 0 -7350.83z"/>
    <path id="_132" class="fil92" d="M5533.48 6346.16l0 7322.89 8917.85 0 0 -7322.89 -8917.85 0zm-51.05 -41.92l9019.95 0 0 7406.73 -9019.95 0 0 -7406.73z"/>
    <path id="_133" class="fil93" d="M5499.45 6318.21l0 7378.79 8985.91 0 0 -7378.79 -8985.91 0zm-51.06 -41.92l9088.03 0 0 7462.63 -9088.03 0 0 -7462.63z"/>
    <path id="_134" class="fil94" d="M5465.41 6290.26l0 7434.69 9053.99 0 0 -7434.69 -9053.99 0zm-51.06 -41.92l9156.11 0 0 7518.53 -9156.11 0 0 -7518.53z"/>
    <path id="_135" class="fil95" d="M5431.37 6262.31l0 7490.59 9122.07 0 0 -7490.59 -9122.07 0zm-51.06 -41.92l9224.19 0 0 7574.43 -9224.19 0 0 -7574.43z"/>
    <path id="_136" class="fil96" d="M5397.33 6234.36l0 7546.49 9190.15 0 0 -7546.49 -9190.15 0zm-51.05 -41.92l9292.25 0 0 7630.33 -9292.25 0 0 -7630.33z"/>
    <path id="_137" class="fil97" d="M5363.29 6206.41l0 7602.39 9258.22 0 0 -7602.39 -9258.22 0zm-51.05 -41.92l9360.33 0 0 7686.23 -9360.33 0 0 -7686.23z"/>
    <path id="_138" class="fil98" d="M5329.26 6178.46l0 7658.29 9326.29 0 0 -7658.29 -9326.29 0zm-51.06 -41.92l9428.41 0 0 7742.13 -9428.41 0 0 -7742.13z"/>
    <path id="_139" class="fil99" d="M5295.22 6150.51l0 7714.19 9394.37 0 0 -7714.19 -9394.37 0zm-51.06 -41.92l9496.49 0 0 7798.03 -9496.49 0 0 -7798.03z"/>
    <path id="_140" class="fil100" d="M5261.18 6122.56l0 7770.09 9462.45 0 0 -7770.09 -9462.45 0zm-51.05 -41.92l9564.55 0 0 7853.93 -9564.55 0 0 -7853.93z"/>
    <path id="_141" class="fil101" d="M5227.14 6094.61l0 7825.99 9530.52 0 0 -7825.99 -9530.52 0zm-51.05 -41.92l9632.63 0 0 7909.83 -9632.63 0 0 -7909.83z"/>
    <path id="_142" class="fil102" d="M5193.11 6066.66l0 7881.89 9598.59 0 0 -7881.89 -9598.59 0zm-51.06 -41.92l9700.71 0 0 7965.73 -9700.71 0 0 -7965.73z"/>
    <path id="_143" class="fil103" d="M5159.07 6038.71l0 7937.79 9666.67 0 0 -7937.79 -9666.67 0zm-51.06 -41.92l9768.79 0 0 8021.63 -9768.79 0 0 -8021.63z"/>
    <path id="_144" class="fil104" d="M5125.03 6010.76l0 7993.69 9734.75 0 0 -7993.69 -9734.75 0zm-51.05 -41.92l9836.85 0 0 8077.53 -9836.85 0 0 -8077.53z"/>
    <path id="_145" class="fil105" d="M5090.99 5982.81l0 8049.59 9802.82 0 0 -8049.59 -9802.82 0zm-51.05 -41.92l9904.93 0 0 8133.43 -9904.93 0 0 -8133.43z"/>
    <path id="_146" class="fil106" d="M5056.96 5954.86l0 8105.49 9870.89 0 0 -8105.49 -9870.89 0zm-51.06 -41.92l9973.01 0 0 8189.33 -9973.01 0 0 -8189.33z"/>
    <path id="_147" class="fil107" d="M5022.92 5926.91l0 8161.39 9938.97 0 0 -8161.39 -9938.97 0zm-51.06 -41.92l10041.09 0 0 8245.23 -10041.09 0 0 -8245.23z"/>
    <path id="_148" class="fil108" d="M4988.88 5898.96l0 8217.29 10007.05 0 0 -8217.29 -10007.05 0zm-51.05 -41.92l10109.15 0 0 8301.13 -10109.15 0 0 -8301.13z"/>
    <path id="_149" class="fil109" d="M4954.84 5871.01l0 8273.19 10075.12 0 0 -8273.19 -10075.12 0zm-51.05 -41.92l10177.23 0 0 8357.03 -10177.23 0 0 -8357.03z"/>
    <path id="_150" class="fil109" d="M4920.81 5843.06l0 8329.09 10143.19 0 0 -8329.09 -10143.19 0zm-51.06 -41.92l10245.31 0 0 8412.93 -10245.31 0 0 -8412.93z"/>
    <path id="_151" class="fil110" d="M4886.77 5815.11l0 8384.99 10211.27 0 0 -8384.99 -10211.27 0zm-51.06 -41.92l10313.39 0 0 8468.83 -10313.39 0 0 -8468.83z"/>
    <path id="_152" class="fil111" d="M4852.73 5787.16l0 8440.89 10279.35 0 0 -8440.89 -10279.35 0zm-51.05 -41.92l10381.45 0 0 8524.73 -10381.45 0 0 -8524.73z"/>
    <path id="_153" class="fil111" d="M4818.69 5759.21l0 8496.79 10347.43 0 0 -8496.79 -10347.43 0zm-51.05 -41.92l10449.53 0 0 8580.63 -10449.53 0 0 -8580.63z"/>
    <path id="_154" class="fil112" d="M4784.66 5731.26l0 8552.69 10415.49 0 0 -8552.69 -10415.49 0zm-51.06 -41.92l10517.61 0 0 8636.53 -10517.61 0 0 -8636.53z"/>
    <path id="_155" class="fil112" d="M4750.62 5703.31l0 8608.59 10483.57 0 0 -8608.59 -10483.57 0zm-51.06 -41.92l10585.69 0 0 8692.43 -10585.69 0 0 -8692.43z"/>
    <path id="_156" class="fil113" d="M4716.58 5675.36l0 8664.49 10551.65 0 0 -8664.49 -10551.65 0zm-51.06 -41.92l10653.76 0 0 8748.33 -10653.76 0 0 -8748.33z"/>
    <path id="_157" class="fil114" d="M4682.54 5647.41l0 8720.39 10619.73 0 0 -8720.39 -10619.73 0zm-51.05 -41.92l10721.83 0 0 8804.23 -10721.83 0 0 -8804.23z"/>
    <path id="_158" class="fil115" d="M4648.51 5619.46l0 8776.29 10687.79 0 0 -8776.29 -10687.79 0zm-51.06 -41.92l10789.91 0 0 8860.13 -10789.91 0 0 -8860.13z"/>
    <path id="_159" class="fil116" d="M4614.47 5591.51l0 8832.19 10755.87 0 0 -8832.19 -10755.87 0zm-51.06 -41.92l10857.99 0 0 8916.03 -10857.99 0 0 -8916.03z"/>
    <path id="_160" class="fil117" d="M4580.43 5563.56l0 8888.09 10823.95 0 0 -8888.09 -10823.95 0zm-51.06 -41.92l10926.06 0 0 8971.93 -10926.06 0 0 -8971.93z"/>
    <path id="_161" class="fil118" d="M4546.39 5535.61l0 8943.99 10892.03 0 0 -8943.99 -10892.03 0zm-51.05 -41.92l10994.13 0 0 9027.83 -10994.13 0 0 -9027.83z"/>
    <path id="_162" class="fil119" d="M4512.36 5507.66l0 8999.89 10960.09 0 0 -8999.89 -10960.09 0zm-51.06 -41.92l11062.21 0 0 9083.73 -11062.21 0 0 -9083.73z"/>
    <path id="_163" class="fil120" d="M4478.32 5479.71l0 9055.79 11028.17 0 0 -9055.79 -11028.17 0zm-51.06 -41.92l11130.29 0 0 9139.63 -11130.29 0 0 -9139.63z"/>
    <path id="_164" class="fil121" d="M4444.28 5451.76l0 9111.69 11096.25 0 0 -9111.69 -11096.25 0zm-51.06 -41.92l11198.36 0 0 9195.53 -11198.36 0 0 -9195.53z"/>
    <path id="_165" class="fil122" d="M4410.24 5423.81l0 9167.59 11164.33 0 0 -9167.59 -11164.33 0zm-51.05 -41.92l11266.43 0 0 9251.43 -11266.43 0 0 -9251.43z"/>
    <path id="_166" class="fil122" d="M4376.21 5395.86l0 9223.49 11232.39 0 0 -9223.49 -11232.39 0zm-51.06 -41.92l11334.51 0 0 9307.33 -11334.51 0 0 -9307.33z"/>
    <path id="_167" class="fil123" d="M4342.17 5367.91l0 9279.39 11300.47 0 0 -9279.39 -11300.47 0zm-51.06 -41.92l11402.59 0 0 9363.23 -11402.59 0 0 -9363.23z"/>
    <path id="_168" class="fil124" d="M4308.13 5339.96l0 9335.29 11368.55 0 0 -9335.29 -11368.55 0zm-51.06 -41.92l11470.67 0 0 9419.13 -11470.67 0 0 -9419.13z"/>
    <path id="_169" class="fil125" d="M4274.09 5312.01l0 9391.19 11436.63 0 0 -9391.19 -11436.63 0zm-51.05 -41.92l11538.73 0 0 9475.03 -11538.73 0 0 -9475.03z"/>
    <path id="_170" class="fil126" d="M4240.06 5284.06l0 9447.08 11504.69 0 0 -9447.08 -11504.69 0zm-51.06 -41.92l11606.81 0 0 9530.93 -11606.81 0 0 -9530.93z"/>
    <path id="_171" class="fil127" d="M4206.02 5256.11l0 9502.98 11572.77 0 0 -9502.98 -11572.77 0zm-51.06 -41.92l11674.89 0 0 9586.83 -11674.89 0 0 -9586.83z"/>
    <path id="_172" class="fil128" d="M4171.98 5228.17l0 9558.87 11640.85 0 0 -9558.87 -11640.85 0zm-51.06 -41.93l11742.97 0 0 9642.73 -11742.97 0 0 -9642.73z"/>
    <path id="_173" class="fil129" d="M4137.94 5200.22l0 9614.77 11708.93 0 0 -9614.77 -11708.93 0zm-51.05 -41.93l11811.03 0 0 9698.63 -11811.03 0 0 -9698.63z"/>
    <path id="_174" class="fil130" d="M4103.9 5172.27l0 9670.67 11777 0 0 -9670.67 -11777 0zm-51.05 -41.93l11879.11 0 0 9754.53 -11879.11 0 0 -9754.53z"/>
    <path id="_175" class="fil131" d="M4069.87 5144.32l0 9726.57 11845.07 0 0 -9726.57 -11845.07 0zm-51.06 -41.93l11947.19 0 0 9810.43 -11947.19 0 0 -9810.43z"/>
    <path id="_176" class="fil131" d="M4035.83 5116.37l0 9782.47 11913.15 0 0 -9782.47 -11913.15 0zm-51.06 -41.93l12015.27 0 0 9866.33 -12015.27 0 0 -9866.33z"/>
    <path id="_177" class="fil132" d="M4001.79 5088.42l0 9838.37 11981.23 0 0 -9838.37 -11981.23 0zm-51.05 -41.93l12083.33 0 0 9922.23 -12083.33 0 0 -9922.23z"/>
    <path id="_178" class="fil133" d="M3967.75 5060.47l0 9894.27 12049.3 0 0 -9894.27 -12049.3 0zm-51.05 -41.93l12151.41 0 0 9978.13 -12151.41 0 0 -9978.13z"/>
    <path id="_179" class="fil133" d="M3933.72 5032.52l0 9950.17 12117.37 0 0 -9950.17 -12117.37 0zm-51.06 -41.93l12219.49 0 0 10034.03 -12219.49 0 0 -10034.03z"/>
    <path id="_180" class="fil134" d="M3899.68 5004.57l0 10006.07 12185.45 0 0 -10006.07 -12185.45 0zm-51.06 -41.93l12287.57 0 0 10089.93 -12287.57 0 0 -10089.93z"/>
    <path id="_181" class="fil135" d="M3865.64 4976.62l0 10061.97 12253.53 0 0 -10061.97 -12253.53 0zm-51.05 -41.93l12355.63 0 0 10145.83 -12355.63 0 0 -10145.83z"/>
    <path id="_182" class="fil135" d="M3831.6 4948.67l0 10117.87 12321.6 0 0 -10117.87 -12321.6 0zm-51.05 -41.93l12423.71 0 0 10201.73 -12423.71 0 0 -10201.73z"/>
    <path id="_183" class="fil136" d="M3797.57 4920.72l0 10173.77 12389.67 0 0 -10173.77 -12389.67 0zm-51.06 -41.93l12491.79 0 0 10257.63 -12491.79 0 0 -10257.63z"/>
    <path id="_184" class="fil137" d="M3763.53 4892.77l0 10229.67 12457.75 0 0 -10229.67 -12457.75 0zm-51.06 -41.93l12559.87 0 0 10313.53 -12559.87 0 0 -10313.53z"/>
    <path id="_185" class="fil138" d="M3729.49 4864.82l0 10285.57 12525.83 0 0 -10285.57 -12525.83 0zm-51.05 -41.93l12627.93 0 0 10369.43 -12627.93 0 0 -10369.43z"/>
    <path id="_186" class="fil139" d="M3695.45 4836.87l0 10341.47 12593.91 0 0 -10341.47 -12593.91 0zm-51.05 -41.93l12696.01 0 0 10425.33 -12696.01 0 0 -10425.33z"/>
    <path id="_187" class="fil139" d="M3661.42 4808.92l0 10397.37 12661.97 0 0 -10397.37 -12661.97 0zm-51.06 -41.93l12764.09 0 0 10481.23 -12764.09 0 0 -10481.23z"/>
    <path id="_188" class="fil140" d="M3627.38 4780.97l0 10453.27 12730.05 0 0 -10453.27 -12730.05 0zm-51.06 -41.93l12832.17 0 0 10537.13 -12832.17 0 0 -10537.13z"/>
    <path id="_189" class="fil140" d="M3593.34 4753.02l0 10509.17 12798.13 0 0 -10509.17 -12798.13 0zm-51.06 -41.93l12900.24 0 0 10593.03 -12900.24 0 0 -10593.03z"/>
    <path id="_190" class="fil141" d="M3559.3 4725.07l0 10565.07 12866.21 0 0 -10565.07 -12866.21 0zm-51.05 -41.93l12968.31 0 0 10648.93 -12968.31 0 0 -10648.93z"/>
    <path id="_191" class="fil142" d="M3525.27 4697.12l0 10620.97 12934.27 0 0 -10620.97 -12934.27 0zm-51.06 -41.93l13036.39 0 0 10704.83 -13036.39 0 0 -10704.83z"/>
    <path id="_192" class="fil142" d="M3491.23 4669.17l0 10676.87 13002.35 0 0 -10676.87 -13002.35 0zm-51.06 -41.93l13104.47 0 0 10760.73 -13104.47 0 0 -10760.73z"/>
    <path id="_193" class="fil143" d="M3457.19 4641.22l0 10732.77 13070.43 0 0 -10732.77 -13070.43 0zm-51.06 -41.93l13172.54 0 0 10816.63 -13172.54 0 0 -10816.63z"/>
    <path id="_194" class="fil144" d="M3423.15 4613.27l0 10788.67 13138.51 0 0 -10788.67 -13138.51 0zm-51.05 -41.93l13240.61 0 0 10872.53 -13240.61 0 0 -10872.53z"/>
    <path id="_195" class="fil145" d="M3389.12 4585.32l0 10844.57 13206.57 0 0 -10844.57 -13206.57 0zm-51.06 -41.93l13308.69 0 0 10928.43 -13308.69 0 0 -10928.43z"/>
    <path id="_196" class="fil146" d="M3355.08 4557.37l0 10900.47 13274.65 0 0 -10900.47 -13274.65 0zm-51.06 -41.93l13376.77 0 0 10984.33 -13376.77 0 0 -10984.33z"/>
    <path id="_197" class="fil146" d="M3321.04 4529.42l0 10956.37 13342.73 0 0 -10956.37 -13342.73 0zm-51.06 -41.93l13444.84 0 0 11040.23 -13444.84 0 0 -11040.23z"/>
    <path id="_198" class="fil147" d="M3287 4501.47l0 11012.27 13410.81 0 0 -11012.27 -13410.81 0zm-51.05 -41.93l13512.91 0 0 11096.13 -13512.91 0 0 -11096.13z"/>
    <path id="_199" class="fil148" d="M3252.97 4473.52l0 11068.17 13478.87 0 0 -11068.17 -13478.87 0zm-51.06 -41.93l13580.99 0 0 11152.03 -13580.99 0 0 -11152.03z"/>
    <path id="_200" class="fil149" d="M3218.93 4445.57l0 11124.07 13546.95 0 0 -11124.07 -13546.95 0zm-51.06 -41.93l13649.07 0 0 11207.93 -13649.07 0 0 -11207.93z"/>
    <path id="_201" class="fil150" d="M3184.89 4417.62l0 11179.97 13615.03 0 0 -11179.97 -13615.03 0zm-51.06 -41.93l13717.15 0 0 11263.83 -13717.15 0 0 -11263.83z"/>
    <path id="_202" class="fil151" d="M3150.85 4389.67l0 11235.87 13683.11 0 0 -11235.87 -13683.11 0zm-51.05 -41.93l13785.21 0 0 11319.73 -13785.21 0 0 -11319.73z"/>
    <path id="_203" class="fil151" d="M3116.82 4361.72l0 11291.77 13751.17 0 0 -11291.77 -13751.17 0zm-51.06 -41.93l13853.29 0 0 11375.63 -13853.29 0 0 -11375.63z"/>
    <path id="_204" class="fil152" d="M3082.78 4333.77l0 11347.67 13819.25 0 0 -11347.67 -13819.25 0zm-51.06 -41.93l13921.37 0 0 11431.53 -13921.37 0 0 -11431.53z"/>
    <path id="_205" class="fil152" d="M3048.74 4305.82l0 11403.57 13887.33 0 0 -11403.57 -13887.33 0zm-51.06 -41.93l13989.45 0 0 11487.43 -13989.45 0 0 -11487.43z"/>
    <path id="_206" class="fil153" d="M3014.7 4277.87l0 11459.47 13955.41 0 0 -11459.47 -13955.41 0zm-51.05 -41.93l14057.51 0 0 11543.33 -14057.51 0 0 -11543.33z"/>
    <path id="_207" class="fil154" d="M2980.67 4249.92l0 11515.37 14023.47 0 0 -11515.37 -14023.47 0zm-51.06 -41.93l14125.59 0 0 11599.23 -14125.59 0 0 -11599.23z"/>
    <path id="_208" class="fil155" d="M2946.63 4221.97l0 11571.27 14091.55 0 0 -11571.27 -14091.55 0zm-51.06 -41.93l14193.67 0 0 11655.13 -14193.67 0 0 -11655.13z"/>
    <path id="_209" class="fil156" d="M2912.59 4194.02l0 11627.17 14159.63 0 0 -11627.17 -14159.63 0zm-51.06 -41.93l14261.75 0 0 11711.03 -14261.75 0 0 -11711.03z"/>
    <path id="_210" class="fil156" d="M2878.55 4166.07l0 11683.07 14227.71 0 0 -11683.07 -14227.71 0zm-51.05 -41.93l14329.81 0 0 11766.93 -14329.81 0 0 -11766.93z"/>
    <path id="_211" class="fil157" d="M2844.51 4138.12l0 11738.97 14295.78 0 0 -11738.97 -14295.78 0zm-51.05 -41.93l14397.89 0 0 11822.83 -14397.89 0 0 -11822.83z"/>
    <path id="_212" class="fil158" d="M2810.48 4110.17l0 11794.87 14363.85 0 0 -11794.87 -14363.85 0zm-51.06 -41.93l14465.97 0 0 11878.73 -14465.97 0 0 -11878.73z"/>
    <path id="_213" class="fil159" d="M2776.44 4082.22l0 11850.77 14431.93 0 0 -11850.77 -14431.93 0zm-51.06 -41.93l14534.05 0 0 11934.63 -14534.05 0 0 -11934.63z"/>
    <path id="_214" class="fil160" d="M2742.4 4054.27l0 11906.67 14500.01 0 0 -11906.67 -14500.01 0zm-51.05 -41.93l14602.11 0 0 11990.53 -14602.11 0 0 -11990.53z"/>
    <path id="_215" class="fil161" d="M2708.36 4026.32l0 11962.57 14568.08 0 0 -11962.57 -14568.08 0zm-51.05 -41.93l14670.19 0 0 12046.43 -14670.19 0 0 -12046.43z"/>
    <path id="_216" class="fil161" d="M2674.33 3998.37l0 12018.47 14636.15 0 0 -12018.47 -14636.15 0zm-51.06 -41.93l14738.27 0 0 12102.33 -14738.27 0 0 -12102.33z"/>
    <path id="_217" class="fil162" d="M2640.29 3970.42l0 12074.37 14704.23 0 0 -12074.37 -14704.23 0zm-51.06 -41.93l14806.35 0 0 12158.23 -14806.35 0 0 -12158.23z"/>
    <path id="_218" class="fil163" d="M2606.25 3942.47l0 12130.27 14772.31 0 0 -12130.27 -14772.31 0zm-51.05 -41.93l14874.41 0 0 12214.13 -14874.41 0 0 -12214.13z"/>
    <path id="_219" class="fil164" d="M2572.21 3914.52l0 12186.17 14840.38 0 0 -12186.17 -14840.38 0zm-51.05 -41.93l14942.49 0 0 12270.03 -14942.49 0 0 -12270.03z"/>
    <path id="_220" class="fil165" d="M2538.18 3886.57l0 12242.07 14908.45 0 0 -12242.07 -14908.45 0zm-51.06 -41.93l15010.57 0 0 12325.93 -15010.57 0 0 -12325.93z"/>
    <path id="_221" class="fil166" d="M2504.14 3858.62l0 12297.97 14976.53 0 0 -12297.97 -14976.53 0zm-51.06 -41.93l15078.65 0 0 12381.83 -15078.65 0 0 -12381.83z"/>
    <path id="_222" class="fil167" d="M2470.1 3830.67l0 12353.87 15044.61 0 0 -12353.87 -15044.61 0zm-51.05 -41.93l15146.71 0 0 12437.73 -15146.71 0 0 -12437.73z"/>
    <path id="_223" class="fil168" d="M2436.06 3802.72l0 12409.77 15112.69 0 0 -12409.77 -15112.69 0zm-51.05 -41.93l15214.79 0 0 12493.63 -15214.79 0 0 -12493.63z"/>
    <path id="_224" class="fil168" d="M2402.03 3774.77l0 12465.67 15180.75 0 0 -12465.67 -15180.75 0zm-51.06 -41.93l15282.87 0 0 12549.53 -15282.87 0 0 -12549.53z"/>
    <path id="_225" class="fil169" d="M2367.99 3746.82l0 12521.57 15248.83 0 0 -12521.57 -15248.83 0zm-51.06 -41.93l15350.95 0 0 12605.43 -15350.95 0 0 -12605.43z"/>
    <path id="_226" class="fil169" d="M2333.95 3718.87l0 12577.47 15316.91 0 0 -12577.47 -15316.91 0zm-51.06 -41.93l15419.02 0 0 12661.33 -15419.02 0 0 -12661.33z"/>
    <path id="_227" class="fil170" d="M2299.91 3690.92l0 12633.37 15384.99 0 0 -12633.37 -15384.99 0zm-51.05 -41.93l15487.09 0 0 12717.23 -15487.09 0 0 -12717.23z"/>
    <path id="_228" class="fil171" d="M2265.88 3662.97l0 12689.27 15453.05 0 0 -12689.27 -15453.05 0zm-51.06 -41.93l15555.17 0 0 12773.13 -15555.17 0 0 -12773.13z"/>
    <path id="_229" class="fil171" d="M2231.84 3635.02l0 12745.17 15521.13 0 0 -12745.17 -15521.13 0zm-51.06 -41.93l15623.25 0 0 12829.03 -15623.25 0 0 -12829.03z"/>
    <path id="_230" class="fil172" d="M2197.8 3607.07l0 12801.07 15589.21 0 0 -12801.07 -15589.21 0zm-51.06 -41.93l15691.32 0 0 12884.93 -15691.32 0 0 -12884.93z"/>
    <path id="_231" class="fil173" d="M2163.76 3579.12l0 12856.97 15657.29 0 0 -12856.97 -15657.29 0zm-51.05 -41.93l15759.39 0 0 12940.83 -15759.39 0 0 -12940.83z"/>
    <path id="_232" class="fil173" d="M2129.73 3551.17l0 12912.87 15725.35 0 0 -12912.87 -15725.35 0zm-51.06 -41.93l15827.47 0 0 12996.73 -15827.47 0 0 -12996.73z"/>
    <path id="_233" class="fil174" d="M2095.69 3523.22l0 12968.77 15793.43 0 0 -12968.77 -15793.43 0zm-51.06 -41.93l15895.55 0 0 13052.63 -15895.55 0 0 -13052.63z"/>
    <path id="_234" class="fil174" d="M2061.65 3495.27l0 13024.67 15861.51 0 0 -13024.67 -15861.51 0zm-51.06 -41.93l15963.62 0 0 13108.53 -15963.62 0 0 -13108.53z"/>
    <path id="_235" class="fil175" d="M2027.61 3467.32l0 13080.57 15929.59 0 0 -13080.57 -15929.59 0zm-51.05 -41.93l16031.69 0 0 13164.43 -16031.69 0 0 -13164.43z"/>
    <path id="_236" class="fil176" d="M1993.58 3439.37l0 13136.47 15997.65 0 0 -13136.47 -15997.65 0zm-51.06 -41.93l16099.77 0 0 13220.33 -16099.77 0 0 -13220.33z"/>
    <path id="_237" class="fil176" d="M1959.54 3411.42l0 13192.37 16065.73 0 0 -13192.37 -16065.73 0zm-51.06 -41.93l16167.85 0 0 13276.23 -16167.85 0 0 -13276.23z"/>
    <path id="_238" class="fil177" d="M1925.5 3383.47l0 13248.27 16133.81 0 0 -13248.27 -16133.81 0zm-51.06 -41.93l16235.93 0 0 13332.13 -16235.93 0 0 -13332.13z"/>
    <path id="_239" class="fil177" d="M1891.46 3355.52l0 13304.17 16201.89 0 0 -13304.17 -16201.89 0zm-51.05 -41.93l16303.99 0 0 13388.03 -16303.99 0 0 -13388.03z"/>
    <path id="_240" class="fil178" d="M1857.43 3327.57l0 13360.07 16269.95 0 0 -13360.07 -16269.95 0zm-51.06 -41.93l16372.07 0 0 13443.93 -16372.07 0 0 -13443.93z"/>
    <path id="_241" class="fil179" d="M1823.39 3299.62l0 13415.97 16338.03 0 0 -13415.97 -16338.03 0zm-51.06 -41.93l16440.15 0 0 13499.83 -16440.15 0 0 -13499.83z"/>
    <path id="_242" class="fil179" d="M1789.35 3271.67l0 13471.87 16406.11 0 0 -13471.87 -16406.11 0zm-51.06 -41.93l16508.23 0 0 13555.73 -16508.23 0 0 -13555.73z"/>
    <path id="_243" class="fil180" d="M1755.31 3243.72l0 13527.77 16474.19 0 0 -13527.77 -16474.19 0zm-51.05 -41.93l16576.29 0 0 13611.63 -16576.29 0 0 -13611.63z"/>
    <path id="_244" class="fil181" d="M1721.27 3215.77l0 13583.67 16542.26 0 0 -13583.67 -16542.26 0zm-51.05 -41.93l16644.37 0 0 13667.53 -16644.37 0 0 -13667.53z"/>
    <path id="_245" class="fil182" d="M1687.24 3187.82l0 13639.57 16610.33 0 0 -13639.57 -16610.33 0zm-51.06 -41.93l16712.45 0 0 13723.43 -16712.45 0 0 -13723.43z"/>
    <path id="_246" class="fil183" d="M1653.2 3159.87l0 13695.47 16678.41 0 0 -13695.47 -16678.41 0zm-51.06 -41.93l16780.53 0 0 13779.33 -16780.53 0 0 -13779.33z"/>
    <path id="_247" class="fil183" d="M1619.16 3131.92l0 13751.37 16746.49 0 0 -13751.37 -16746.49 0zm-51.05 -41.93l16848.59 0 0 13835.23 -16848.59 0 0 -13835.23z"/>
    <path id="_248" class="fil184" d="M1585.12 3103.97l0 13807.27 16814.56 0 0 -13807.27 -16814.56 0zm-51.05 -41.93l16916.67 0 0 13891.13 -16916.67 0 0 -13891.13z"/>
    <path id="_249" class="fil185" d="M1551.09 3076.02l0 13863.17 16882.63 0 0 -13863.17 -16882.63 0zm-51.06 -41.93l16984.75 0 0 13947.03 -16984.75 0 0 -13947.03z"/>
    <path id="_250" class="fil186" d="M1517.05 3048.07l0 13919.07 16950.71 0 0 -13919.07 -16950.71 0zm-51.06 -41.93l17052.83 0 0 14002.93 -17052.83 0 0 -14002.93z"/>
    <path id="_251" class="fil187" d="M1483.01 3020.12l0 13974.97 17018.79 0 0 -13974.97 -17018.79 0zm-51.05 -41.93l17120.89 0 0 14058.83 -17120.89 0 0 -14058.83z"/>
    <path id="_252" class="fil188" d="M1448.97 2992.17l0 14030.87 17086.86 0 0 -14030.87 -17086.86 0zm-51.05 -41.93l17188.97 0 0 14114.73 -17188.97 0 0 -14114.73z"/>
    <path id="_253" class="fil188" d="M1414.94 2964.22l0 14086.77 17154.93 0 0 -14086.77 -17154.93 0zm-51.06 -41.93l17257.05 0 0 14170.63 -17257.05 0 0 -14170.63z"/>
    <path id="_254" class="fil189" d="M1380.9 2936.27l0 14142.67 17223.01 0 0 -14142.67 -17223.01 0zm-51.06 -41.93l17325.13 0 0 14226.52 -17325.13 0 0 -14226.52z"/>
    <path id="_255" class="fil190" d="M1346.86 2908.32l0 14198.57 17291.09 0 0 -14198.57 -17291.09 0zm-51.05 -41.93l17393.19 0 0 14282.42 -17393.19 0 0 -14282.42z"/>
    <path id="_256" class="fil0" d="M1312.82 2880.37l0 14254.47 17359.17 0 0 -14254.47 -17359.17 0zm-34.03 -27.95l17427.23 0 0 14310.37 -17427.23 0 0 -14310.37z"/>
   </g>
  </g>
 </g>
</svg>
