<?xml version="1.0" encoding="UTF-8"?>
<!DOCTYPE svg PUBLIC "-//W3C//DTD SVG 1.1//EN" "http://www.w3.org/Graphics/SVG/1.1/DTD/svg11.dtd">
<!-- Creator: CorelDRAW -->
<svg xmlns="http://www.w3.org/2000/svg" xml:space="preserve" width="200mm" height="200mm" version="1.1" style="shape-rendering:geometricPrecision; text-rendering:geometricPrecision; image-rendering:optimizeQuality; fill-rule:evenodd; clip-rule:evenodd"
viewBox="0 0 20000 20000"
 xmlns:xlink="http://www.w3.org/1999/xlink"
 xmlns:xodm="http://www.corel.com/coreldraw/odm/2003">
 <defs>
  <style type="text/css">
   <![CDATA[
    .fil0 {fill:#20113C}
   ]]>
  </style>
 </defs>
 <g id="Capa_x0020_1">
  <metadata id="CorelCorpID_0Corel-Layer"/>
  <path class="fil0" d="M12436.87 16232.52c24.86,-37.11 67.48,-91.64 94.6,-127.84l401.58 -543.88c8.55,-11.37 14.82,-20.66 23.46,-32.12l614.29 -831.69c135.17,-180.31 266.41,-363.53 401.57,-543.86l165.39 -223.91c16.29,-21.71 30.76,-41.88 47.32,-63.91 8.65,-11.49 15.11,-21.01 23.47,-32.15l283.48 -383.88c7.92,-10.56 15.85,-20.31 23.77,-31.85 50.78,-73.76 136.14,-185.66 188.96,-255.96l637.72 -863.84c8.65,-11.48 14.94,-20.82 23.46,-32.15l71.03 -95.83c7.96,-11.69 15.59,-20.92 23.26,-32.35 7.19,3.44 55.63,10.12 66.43,11.92l201.16 33.93c89.39,14.85 179.68,30.42 270.48,45.5l1483.87 250.27c26.29,4.38 112.23,21.84 136.85,22.4 0,157.07 71.19,239.58 78.39,270.48 -12.51,3.34 -67.02,42.14 -81.93,52.07 -82.17,54.79 -163.38,109.89 -247.21,162.32l-164.33 108.68c-27.86,18.58 -54.54,35.51 -82.41,54.09 -14.18,9.45 -27.22,18.12 -40.93,27.31 -285.84,191.08 -575.95,375.19 -861.52,566.76l-823.09 541.94c-28.32,18.53 -54.02,35.96 -81.89,54.65 -190.45,127.82 -383.96,250.93 -574.83,378.17 -109.94,73.3 -218.92,143.44 -329.14,216.88 -27.73,18.49 -53.14,34.62 -80.89,53.1l-411.54 271c-14.31,9.54 -26.38,17.57 -40.95,27.31l-163.31 107.18c-13.73,9.15 -26.75,17.83 -40.95,27.29 -27.89,18.62 -54.53,35.53 -82.39,54.11l-658.26 433.79c-14.27,9.57 -26.92,17.07 -41.46,26.77 -14.6,9.74 -26.64,17.78 -40.96,27.32l-164.8 108.2c-19.79,13.18 -234.66,158.28 -247.75,161.78zm6269.15 -3764.75l0 36.92c-2.59,78.17 -21.47,155.81 -53.09,219.1 -3.94,7.9 -7.39,15.42 -12.14,23.22 -21.71,35.66 -40.12,64.8 -68.1,96.23 -21.01,23.6 -43.96,45.59 -68.89,65.06 -12.95,10.14 -23.84,18.52 -37.9,27.85 -40.03,26.55 -85.75,48.46 -133.03,64.14 -112.53,37.34 -247.25,33.31 -355.19,-5.72 -19.98,-7.21 -40.45,-14.5 -58.66,-24.76 -6.91,-3.89 -8.41,-5.45 -15.98,-9.29 -15.08,-7.64 -21.73,-11.32 -35.26,-20.36l-31.36 -21.75 -250.24 164.32c-13.74,9.18 -26.78,17.87 -40.95,27.31l-1162.84 765.94c-14.32,9.55 -26.87,17.08 -41.44,26.8 -55.97,37.37 -110.13,72.58 -165.83,109.72l-664.84 437.33c-262.1,174.84 -527.24,345.33 -789.22,520.24l-623.36 410.54c-13.77,9.2 -26.99,17.14 -41.47,26.8 -14.64,9.78 -26.3,17.54 -40.96,27.31l-830.64 547.02c-28.44,18.97 -55.24,35.98 -83.94,55.1 -32.14,21.43 -565.83,376.33 -580.4,380.22 2.43,10.38 4.45,12.96 8.31,22.01 54.28,126.71 42.32,301.62 -16.68,419.6 -7.41,14.8 -15.66,27.45 -23.63,42.08 -14.98,27.59 -35.16,50.9 -54.31,74.61 -28.29,35.08 -63.68,65.98 -101.26,90.88 -92.74,61.45 -195.68,94.13 -299.83,96.55l-25.25 0c-81.03,-1.93 -162.35,-22.19 -239.77,-61.55 -92.37,-46.96 -167.1,-121.08 -220.34,-209.43 -16.82,-27.89 -31.04,-58.53 -41.9,-89.53 -34.59,-98.65 -37.24,-218.8 -9.15,-319.52 19.73,-70.75 55.87,-137 102.87,-192.89 3.94,-4.65 3.62,-5.26 7.79,-9.92l19.29 -21.15c21.71,-16.93 39.19,-38.7 62.17,-54.09 -4.65,-20.05 -88.58,-177.64 -100.22,-200.59l-230.07 -447.39c-8.92,-17.86 -16.35,-32.71 -25.27,-50.57l-203.92 -397.72c-66.6,-133.2 -137.43,-264.75 -203.91,-397.73l-139.87 -274.71c-4.79,-8.87 -7.9,-13.09 -12.67,-22.72 -8.87,-17.9 -16.33,-32.73 -25.27,-50.57 -4.7,-9.45 -7.88,-15.87 -12.62,-25.31l-115.34 -223.38c-18.09,-31.1 -31.46,-68.22 -50.19,-98.98 -19.16,-31.48 -32.74,-68.8 -51.15,-100.51l-63.96 -123.14c-4.68,-9.45 -7.9,-15.84 -12.62,-25.27l-38.78 -74.98c-78.99,-158.05 -161.99,-313.95 -240.98,-471.9l-64.02 -125.55c-11.15,-22.47 -31.53,-50.31 -37.09,-74.15 -15.84,0 -30.66,3.83 -46.88,6.19 -87.37,12.74 -176.67,-0.68 -258.03,-27.38 -18.48,-6.05 -28.46,-11.38 -45,-18.18 -29.49,-12.14 -55.27,-29.45 -81.84,-47.08 -76.21,-50.59 -136.72,-122.95 -177.46,-204.26 -24.6,-49.06 -53.09,-126.66 -53.09,-199.7 -47.62,-11.11 -93.19,-23.95 -141.05,-35.92l-1549.1 -387.26c-94.95,-23.74 -186.5,-46.63 -281.09,-70.28l-281.1 -70.27 -17.72 35.38c-33.72,65.28 -82.28,123.1 -140.12,168.27 -38.47,30.07 -50.08,36.18 -94.12,60.09 -115.72,62.82 -259.18,73.2 -388.64,40.65 -78.29,-19.69 -146.74,-59.63 -209.87,-108.64l-28.63 -24.46c-43.85,-40.54 -86.61,-99.3 -111.84,-153.6 -4.19,-9.02 -12.97,-28.49 -15.17,-37.92 -14.86,7.14 -168.33,51.1 -186.52,56.15 -123.04,34.15 -246.65,74.54 -369.9,110.4 -123.1,35.81 -246.14,75.12 -369.84,110.45l-185.05 55.1c-121.94,39.73 -246.1,72.39 -369.71,110.59l-740.23 220.38c-11.32,4.91 -7.69,7.51 -10.37,19.95 -8.21,37.89 -22.76,76.93 -40.1,111.58l-32.2 56.29c-50.56,72.41 -92.96,113.99 -167.34,163.84 -76.81,51.47 -184.64,82.39 -276.55,82.39 -146.59,0 -260.9,-42.23 -366.9,-128.56 -174.03,-141.74 -244.28,-401 -146.21,-619.66l16.79 -33.76c11.36,-22.21 25.11,-41.95 38.78,-62.35l-39.01 -67.17c-48,-80.96 -91.06,-164.73 -138.06,-246.17l-200.36 -355.78c-8.55,-15.26 -16.54,-29.07 -24.52,-43.76l-288.29 -513.01c-4.08,-7.09 -7.18,-13.04 -11.7,-21.17l-50.31 -88.74c-5.01,-8.41 -7.58,-14.27 -12.62,-22.75l-25.49 -45.31c-4.61,-8.41 -8.97,-13.18 -10.98,-21.87 -29.37,6.83 -100.78,3.64 -132.96,-1.02 -39.86,-5.78 -82.75,-15.68 -115.52,-28.55 -32.59,-12.84 -44.35,-19.82 -74.24,-34.48 -23.24,-11.41 -43.85,-26.38 -65.12,-41.07 -27.95,-19.31 -51.47,-44.79 -75.44,-68.66l-32.59 -38.17c-65.98,-82.14 -108.29,-213.15 -108.29,-318.92 0,-105.84 33.05,-218.58 95.34,-301.53l43.08 -55.52c35.98,-40.84 89.14,-84.57 138.8,-108.94 11.84,-5.82 20.32,-11.1 31.18,-16.84l-27.38 -273.43c-3.33,-31.48 -5.11,-58.7 -8.43,-90.16 -5.93,-56.08 -10.75,-126.99 -18.35,-181.37 -4.33,-30.92 -6.67,-60.78 -9.26,-91.87 -2.15,-25.69 -4.14,-64 -9.89,-88.67 -32.24,-2.69 -76.9,-12.53 -104.61,-21.78 -44.89,-14.98 -88.69,-33.01 -127.98,-59.11 -25.25,-16.77 -50.22,-32.89 -72.69,-53.69 -42.83,-39.71 -84.78,-85.95 -111.83,-138.43 -7.35,-14.27 -14,-24.03 -20.57,-40.1 -6.07,-14.85 -12.63,-27.69 -18.31,-44.89 -17.67,-53.74 -27.44,-106.09 -29.36,-157.61l0 -37.69c2.93,-77.11 23.73,-152.67 62.35,-228.7l38.06 -60.52c5.54,-7.4 7.82,-12.03 13.99,-18.88l30.28 -35.44c21.91,-22.16 45.3,-39.82 68.31,-60.63 13.73,-12.41 43.29,-29.91 60.04,-38.54 46.39,-23.91 87.31,-43.5 141,-56.15 186.33,-43.92 306.78,20.99 334.23,23.27 3.78,-16.3 56.01,-106.78 65.84,-123.74 7.08,-12.27 14.66,-25.59 21.79,-38.86l55.61 -101.11c4.15,-7.72 6.1,-12.72 10.45,-19.91l43.97 -79.91c31.9,-52.47 77.9,-143.69 109.91,-200.99l44.3 -79.6c4.62,-7.62 6.85,-13.52 11.32,-21.51l110.33 -200.6c4.22,-8.5 6.77,-11.45 10.98,-19.37l55.62 -101.11c24.99,-46.54 51.98,-91.78 75.79,-139.08 4.56,-9.03 7.32,-11.97 11.88,-21.01l208.83 -380.17c7.81,-13.43 14.13,-26.9 22.05,-41.14 7.5,-13.5 14.31,-25.31 21.83,-38.82l33.72 -62.36c4.19,-8.36 7.11,-11.81 11,-19.33 4.12,-8 7.43,-12.96 11.79,-21.06l142.42 -259.51c28.23,-54.53 60.26,-107.32 88.44,-161.85 17.27,-33.45 38.03,-65.53 54.8,-99.4l76.76 -140.63c34.22,-58.91 64.4,-120.8 98.6,-179.47 4.07,-7 7.78,-10.84 10,-20.34 -8.27,-12.35 -13.42,-20.18 -21.08,-34.56 -6.81,-12.79 -13.45,-23.03 -19.35,-36.25 -66.15,-148.51 -66.43,-303.85 2.51,-452.47 15.5,-33.45 41.32,-74.58 65.14,-101.69 8.46,-9.61 16.47,-18.43 24.39,-28.7 20.31,-26.24 95.23,-83.41 123.67,-98.79 13.28,-7.18 22.31,-12.39 36.21,-19.39 162.58,-81.73 369.33,-72.2 525.61,22.1 12.49,7.53 20.66,14.66 32.87,22.72 50.78,33.59 30.12,39.57 68.33,25.86 27.62,-9.89 53.81,-21.18 79.67,-31.56 236.41,-94.99 475.83,-186.89 712.53,-280.93 476.13,-189.23 954.05,-374.61 1429.68,-564.83l474.87 -187.44c290.59,-116.22 582.78,-228.38 873.56,-344.87 13.37,-5.35 25.67,-10.29 39.73,-15.89 12.69,-5.08 25.7,-11.45 38.63,-14.46 11.5,-49.24 23.47,-92.79 44.83,-137.2 3.29,-6.86 7.2,-12.62 10.79,-19.53 26.18,-50.63 73.22,-113.62 117.35,-148.08 23.6,-18.46 41.99,-34.47 68.27,-50.55 37.93,-23.25 78.73,-43.2 121.84,-57.63 119.68,-40.08 261.85,-34.12 376.9,11.74 8.22,3.29 11.65,5.03 19.25,8.57 7.25,3.39 13.15,5.01 19.29,8.53 11.52,6.58 24.28,12.58 35.98,19.62 22.91,13.83 43.36,28.12 64.14,44.56 61.32,48.49 113.32,112.93 147.77,183.42 5.88,12.09 11.04,25.31 16.54,39.06 5.25,13.13 10.51,25.61 13.73,39.35 20.59,4.8 45,7.11 67.5,10.87 21.35,3.54 44.78,6.66 68.27,10.1 134.86,19.66 273.59,43.98 407.85,62.33 91.33,12.49 180.24,28.12 272.12,41.35 200.89,28.86 409.85,65.57 609.82,92.91 22.61,3.07 45.1,6.44 68.03,10.33 44.37,7.5 90.09,13.85 136.17,20.59 134.99,19.69 273.52,43.97 407.85,62.34 136.48,18.64 269.42,41.58 406.11,61.52l271.96 41.51c181.24,30.12 359.72,53.39 541.65,82.74 91.8,14.8 182.93,26.24 272.32,41.11l203.89 31.23c21.73,2.97 44.22,6.28 65.85,9.96 90.18,15.36 180.52,26.85 271.9,41.56 21.57,3.48 256.38,35.79 269.08,41.88 5.77,-8.62 11.47,-17.26 17.65,-25.34 17.58,-22.91 37.46,-45.34 58.79,-65.07l45.93 -37.48c8.16,-6.11 16.33,-10.93 24.24,-16.21 7.97,-5.31 15.49,-10.96 24.48,-15.97 38.22,-21.16 70.35,-36.64 115.47,-51.37 123.39,-40.26 281.16,-28.31 394.33,26.02 43.2,20.75 81.6,46.39 119.01,75.62 41.09,32.09 95.06,92.29 119.42,138.43l32.03 64.02c35.44,79.39 42.11,141.42 42.11,230.91 0,72.78 -32.87,157.4 -32.87,166.84l898 889.23c5.79,5.35 8.2,5.95 13.97,11.33 51.03,47.18 132.73,138.31 179.48,179.47 49.01,43.18 93.98,91.5 140.28,137.81 17.77,17.76 33.68,34.44 51.77,51.86 5.9,5.7 8.13,6.26 13.92,11.35 4.77,4.19 8.07,8.01 12.67,12.62l231.3 228.78c42.59,42.59 83.43,86.79 127.63,127.67 61.54,56.95 120.13,117.54 179.49,176.93l53.1 50.57c55.03,55.04 108.56,113.04 166.82,164.32 54.12,47.68 140.65,148.97 191.88,189.83 40.65,32.44 144.35,151.5 192.12,189.6 34.9,27.84 142.18,147.78 193.54,190.71 25.66,21.47 142.15,141.58 178.29,178.14 9.31,9.42 16.95,14.29 26.57,23.99l435.44 429.12c5.39,-3.64 9.77,-5.91 15.63,-9.64l45.12 -25.67c10.1,-5.9 21.43,-9.72 33.5,-14.52 11.86,-4.73 21.13,-9.33 32.4,-13.09 126.73,-42.41 291.96,-36.76 409.27,22.45l44.63 23.6c72.69,36.76 160.79,126.64 198.04,198.84 15.75,30.55 30.92,58.68 42.01,91.99 38.58,115.84 37.25,249.11 -7.34,359.83 -11,27.31 -23.77,50.43 -37.22,76.53 -12.98,25.16 -29.24,45.14 -46.57,67.2 -50.72,64.52 -118.64,112.74 -191.86,149.41l-61.38 24.56c-7.19,2.34 -15.85,4 -21.22,6.58l24.55 261.1c5.7,44.54 5.88,86.59 12.28,131.8 7.59,53.67 10.09,109.96 15.81,163.68l5.71 65.07c8.11,96.33 20.2,194.94 27.79,293.25l28.03 293.01c6.9,64.64 10.85,131.54 19.07,195.8l15.49 161.48c4.68,44.66 6.95,89.81 12.32,131.76 5.61,43.77 6.14,85.84 12.3,129.27 4.99,35.26 5.36,64.77 9.09,99.61 5.62,52.93 8.64,108.22 15.44,161.5 5.38,41.95 7.7,87.1 12.33,131.79 7.28,70.02 21.24,193.64 24.94,260.68l6.45 64.38c6.32,44.63 6.32,86.86 12.64,131.42 1.46,10.22 2.32,24.19 3.18,32.23 1.3,12.16 2.45,21.63 2.94,32.45 1.8,42.44 9.27,87.77 12.46,129.1 3.46,44.77 7.85,88.92 12.39,131.68 6.37,59.74 14.95,137.53 18.21,196.68l6.42 64.35c4.54,31.98 5.84,103.48 12,129.59 2.8,11.83 12.62,11.72 22.33,15.56 88.04,34.82 165.39,93.75 224.97,166.88 13.98,17.16 33.38,42.36 43.5,62.65l35.37 73.34c23.21,51.45 35.05,110.01 37.04,169.56zm-6648.35 3625.71c-51.77,0 -105.3,0.68 -154.75,12.07 -11.38,2.62 -23.63,7.23 -34.82,8.15 -4.56,-19.49 -309.54,-603.88 -353.9,-692.64l-203.11 -396.04c-21.81,-44.08 -83.82,-169.24 -101.7,-199.1 -19.11,-31.92 -32.02,-69.12 -51.13,-100.53 -15.54,-25.52 -81.44,-160.55 -101.6,-199.23l-203.08 -396.01c-83.07,-166.14 -171.41,-330.21 -254.48,-496.32 -74.84,-149.68 -153.55,-296.96 -228.35,-446.6l-128.1 -248.57c26.57,-7.12 100.05,-82.37 113.41,-98.96 32.6,-40.38 60.86,-81.96 82.95,-129.4 20.87,-44.82 33.43,-94.19 40.06,-144.49 1.78,-13.77 -1.58,-15.32 11.14,-16.66l196.66 -15.66c29.47,-3.89 66.92,-5.84 97.15,-9.03 17.77,-1.88 32.01,-1.44 49.78,-3.32l293.58 -24.92c48.98,-2.43 98.75,-10.57 146.63,-12.63 14.29,-0.59 35.16,-3.24 48.46,-4.65l247.35 -20.59c86.33,-2.71 204.17,-18.35 293.39,-25.11l245.04 -20.41c14.61,-0.44 34.3,-1.84 49.1,-3.98l97.57 -8.6c49.43,-2.45 97.45,-8.78 146.72,-12.53l441.16 -36.63c15.41,-2.27 33.66,-3.19 49.02,-4.05l97.95 -8.2c12.49,-1.64 36.75,-4.38 51.27,-4.38 -6.97,14.55 -11.47,40.71 -15.69,57.64l-76.32 292.74c-49.1,197.66 -105.21,391.89 -154.21,589.02l-230.5 879.24c-5.82,20.48 -11.09,41.4 -15.73,60.11l-91.48 350.91c-41.37,156.25 -84.52,314.11 -123.36,470.67 -18.65,75.17 -54.37,217.33 -76.65,292.43 -5.51,18.51 -10.89,39.96 -15.91,59.92l-176.42 675.51c-2.18,8.81 -6.84,20.48 -7.1,30.83zm192.12 50.55c8.62,-17.93 17.61,-62.57 22.78,-83.41 6.99,-28.26 14.36,-59.08 22.45,-86.24 19.54,-65.91 49.93,-188.74 67.5,-258.59 7.4,-29.46 15.47,-56.42 22.79,-85.91 28.7,-115.45 61.4,-229.39 89.97,-344.82 6.88,-27.77 15.54,-56.8 22.77,-85.96 71.39,-287.44 153.64,-572.2 224.99,-859.48l44.96 -172.41c35.79,-144.5 76.93,-286.82 112.77,-430.76 7.45,-29.91 15.35,-56.17 22.77,-85.92l337.73 -1290.24c12.65,-49.17 0.67,-45.19 60.2,-48.51l801.08 -68.52c30.6,-2.35 70.19,-5.39 99.47,-9.21 17.21,-2.25 32.25,-1.83 49.45,-3.61 14.18,-1.51 35.49,-4.29 50.97,-4.66 15.19,-0.4 34.67,-3.25 48.43,-4.68l100.72 -7.97c15.66,-0.51 35.33,-4.26 50.59,-5.01 34.36,-1.69 65.99,-5.16 100.93,-7.8 30.97,-2.34 68.51,-6.35 99.12,-9.54l100.74 -7.99c35.53,-1.12 106.72,-10.59 149.1,-12.67l99.7 -8.99c37.85,-5.49 118.07,-6.14 150.59,-13.71 -3.75,14.1 -116.95,159.27 -136.48,187.06l-369.1 500.49c-7.11,10.15 -15.24,20.41 -22.75,30.37l-230.73 312.73c-8.13,10.85 -14.99,19.44 -22.54,30.56 -36.35,53.42 -99.1,134.9 -138.55,187.56l-138.66 187.43c-7.94,10.5 -14.29,19.89 -22.4,30.71 -163.09,217.23 -321.17,438.52 -484.26,655.79 -31.62,42.14 -60.93,83.19 -92.45,124.95 -116.89,154.88 -229.19,313.11 -345.59,468.4l-935.29 1266.49c-4.56,6.23 -7.21,11.71 -13.77,14.07zm5389.45 -7586.26c7.97,1.85 11.91,4.75 19.86,7.96l63.86 22.09c22.59,6.62 71.37,17.97 98.31,17.97 0,18.27 3.01,35.16 4.65,50.96l14.85 157.03c4.57,35.69 4.78,68.73 9.75,104.01 2.62,18.46 2.48,34.84 5.08,53.09 2.59,18.46 2.46,34.84 5.05,53.09 9.73,68.66 10.65,141.49 19.46,210.59 8.62,67.56 12.6,139.51 19.91,210.09 5.98,57.59 16.78,151.15 19.91,207.62 3.66,66.21 17.32,143.72 20.15,209.9 2.92,67.38 17.33,142.55 20.19,209.83 2.95,68.36 16.43,142.07 20.18,209.87l29.33 311.96c10.7,75.69 14.17,187.51 24.9,263.27 9.96,70.36 10.75,138.82 19.85,210.17l24.77 260.9c5.34,69.31 16.21,139.29 20.1,209.94 3.82,69.28 15.86,140.32 20.15,209.88 3.16,51.2 19.23,165.03 20.23,209.82 -32.81,0 -69.57,6.19 -96.69,12 -65.76,14.09 -125.83,39.43 -181.37,76.48 -11.08,7.38 -20.41,13.17 -31.14,21.95 -9.98,8.15 -17.86,14.5 -28.12,22.45 -28.05,21.77 -53.25,51.35 -74.78,79.43 -21.91,28.58 -70.78,104.11 -73.26,134.02 -9.91,-0.23 -23.1,-3.42 -32.87,-5.05l-227.15 -38.29c-85.66,-14.22 -176.47,-29.7 -261.41,-44.45l-1042.98 -175.47c-86.38,-14.36 -171.62,-29 -259.65,-43.71 -44.86,-7.5 -85.52,-14.69 -129.62,-22.02 -41.6,-6.91 -90.76,-12.84 -131.83,-22.38l57.31 -112.09c66.02,-132.02 137.11,-261.48 203.08,-393.49l551.9 -1071.01c10.19,-20.4 19.79,-37 29.49,-56.46l58.14 -113.75c5.08,-10.2 10.24,-18.23 15.23,-27.78l27.74 -55.64c5.1,-10.21 10.24,-18.25 15.22,-27.78 26.52,-50.95 32.24,-59.34 66.79,-105.11 55.29,-73.36 106.83,-148.76 162.12,-222.1l197.52 -270.14c12.81,-16.98 24.14,-32.55 36.53,-49.43l107.58 -147.74c12.8,-17.05 24.04,-32.47 36.5,-49.43 24.62,-33.52 47.58,-66.25 72.57,-99.35 54.9,-72.74 106.21,-147.91 161.06,-220.67l181.66 -248.08c22.03,-29.24 76.14,-98.96 89.89,-124.95zm-4335.31 3551.73c0,-15.13 17.95,-81.86 22.12,-101.77 7.24,-34.37 15.38,-67.4 23.42,-100.43l234.53 -1016.79c32.13,-135.83 62.52,-271.07 94.05,-406.48 106.99,0 161.52,-11.49 251.01,-49.83 10.72,-4.58 18.36,-10.75 29.6,-13.37l77.57 94.33c7.17,8.5 12.28,15.01 19.28,23.69 6.88,8.55 13.24,15.6 19.43,23.57 6.17,7.94 12.53,14.98 19.41,23.52l99.38 120.57c45.56,58.47 110.8,130.44 156.74,189.58l118.04 142.34c7.03,8.32 11.92,15.78 19.12,23.84 7.42,8.34 13.58,15.87 20.64,24.85 6.7,8.5 12.93,15.22 19.49,23.52 6.39,8.06 12.46,15.77 19.34,23.65l216.07 261.68c6.76,7.58 13.74,15.9 19.58,23.4 6.18,7.94 12.55,15.01 19.42,23.56 7.19,8.91 13.1,16.58 20.47,25.04 63.02,72.29 132.61,164.04 195.75,236.48 6.88,7.9 12.95,15.56 19.35,23.65l79.06 95.36c7.29,9 12.69,16.24 20.4,25.09 6.92,7.92 12.77,15.56 19.32,23.68l38.92 47.02c5.97,6.7 17.6,18.51 19.57,25.92l-476.7 41.53c-40.58,5.95 -139.53,9.71 -176.94,15.15 -43.41,6.3 -132.22,9.82 -178.74,15.94l-239.63 20.73c-74.84,5.81 -168.24,16.49 -237.5,20.33l-121.26 10.21c-41.63,1.01 -128.61,12.41 -179.42,15.23l-179.37 15.25c-38.14,2.89 -81.22,9.96 -121.52,9.96zm-10973.55 -1397.95c28.06,-6.54 113.27,-78.24 113.76,-78.37l1372.94 394.06c152.79,44.58 305.44,87.12 457.54,131.44 304.86,88.86 609.62,174.66 914.51,263.52 152.05,44.3 304.77,86.88 457.54,131.45l343.55 98.85c20.5,5.74 103.22,31.98 116.81,32.31 -1.74,21.01 -5.04,38.91 -5.04,63.18 -21.69,5.06 -47.58,13.42 -68.57,19.93 -22.63,6.99 -45.4,14.34 -67.94,20.52l-410.98 122.4c-46.63,13.41 -89.16,27.55 -136.13,40.81 -46.89,13.28 -89.56,26.76 -136.33,40.64l-547.1 163.23c-21.78,6.1 -44.65,13.69 -67.88,20.6 -23.95,7.1 -44.61,12.58 -68.22,20.26l-549.17 163.68c-21.7,6.95 -44.92,14.04 -68.03,20.45 -15.36,4.27 -55.74,19.35 -71.32,19.7 -2.25,-26.9 -31.2,-106.98 -44.99,-129.45 -25.5,-41.58 -22.98,-46.46 -58.33,-90.82 -45.75,-57.42 -75.98,-81.78 -140.35,-125.07 -135.92,-91.43 -339.28,-106.41 -491.61,-43.64l-91.34 45.18 -117.37 -208.74c-8.69,-14.69 -15.08,-27.72 -23.71,-42.01l-165.58 -294.51c-31.74,-56.76 -90.02,-155.37 -117.17,-208.92l-70.84 -126.34c-4.19,-7.58 -7.43,-13.18 -11.99,-20.89 -4.71,-7.92 -7.44,-13.84 -11.68,-21.17l-189.48 -336.33c-7.13,-13.78 -43.81,-72.73 -45.5,-85.95zm13066.65 1135.03l-80.89 -96.06c-45.7,-58.76 -111.65,-133.77 -160.06,-193.86l-240.16 -290.71c-64.19,-79.68 -137.27,-163.09 -199.96,-242.41l-219.66 -265.7c-7.46,-9.23 -13.14,-15.6 -20.5,-24.99l-320.31 -387.49c-9.97,-12.3 -34.41,-40.14 -40.1,-50.91 11.05,-16.49 33.31,-42.05 47.93,-65.83 25.77,-42.07 45.44,-85.52 58.78,-133.34 11.52,-41.23 4.66,-35.55 19.37,-36.24l94.53 2.15c43.73,6 106.88,-2.15 151.35,2.85 29.77,3.34 209.11,3.08 262.55,2.89 16.7,-0.07 24.86,1.83 37.89,2.55l113.79 -0.04c17.02,-0.12 22.95,2.47 37.8,2.63l113.94 -0.16c15.97,0 21.01,2.74 37.76,2.67l113.92 -0.17c14.6,0.19 19.07,2.76 35.23,2.69 25.3,-0.09 50.6,-0.07 75.91,-0.07 28.22,0 50.57,2.69 75.82,2.55 25.28,-0.11 50.56,-0.02 75.84,-0.02 28.56,0 49.66,2.63 75.84,2.55 25.27,-0.09 50.56,0 75.84,0 28.84,0 48.2,2.54 75.83,2.52 25.28,-0.05 50.55,0 75.85,0 27.81,0 45.79,2.55 73.28,2.52 25.3,-0.02 50.57,0 75.87,0 28.49,0 47.3,2.53 75.81,2.53 25.3,0 50.57,0.02 75.85,0 27.6,-0.02 47,2.53 75.83,2.53 25.28,0 50.57,0.07 75.84,0 26.96,-0.07 47.08,2.52 75.84,2.52 -3.1,13.32 -147.76,287.97 -167.68,327.79l-254.48 493.79c-4.59,9.15 -8.5,17.1 -13.44,26.99 -5.44,10.89 -9.65,16.54 -15.22,27.77l-84.27 163.48c-53.93,108.75 -114.45,218.8 -168.52,326.96l-198.84 385.07zm-2242.23 -1908.58c0,128.21 39.24,253.02 123.3,349.43 31.25,35.84 65.3,70.53 105.18,97.04l63.04 38.08c9.89,4.96 24.74,13.69 34.55,15.99 0,26.89 -48.87,216.39 -55.82,250.05 -4.03,19.66 -9.77,42.5 -14.45,61.36l-173.41 751.83c-37.06,146.06 -64.51,293.2 -101.62,439.33 -10.8,42.56 -18.55,83.63 -28.79,125.42 -2.41,9.86 -4.87,21.47 -7.07,30.85 -9.26,39.1 -2.94,30.44 -41.37,34.47l-107.92 8.36c-21.77,2.29 -49.78,4.52 -71.55,6.81 -59.83,6.33 -117.26,6.98 -177.26,14.85 -10.54,1.39 -26.36,2.41 -34.86,3.05 -25.3,1.93 -45.68,4.06 -70.58,5.29l-69.77 6.07c-10.86,1.6 -25.97,2.15 -34.6,3.28 -11.03,1.46 -28.04,2.65 -37.32,3.16 -82.03,4.56 -166.11,16.33 -247.61,20.36 -8.87,0.42 -26.54,1.76 -37.27,3.17 -70.93,9.34 -141.25,7.7 -211.95,18.07 -71.97,10.56 -142.13,9.1 -214.12,18.44 -10.54,1.36 -26.07,2.75 -34.72,3.19l-177.33 14.81c-58.26,6.11 -118.11,7.21 -177.25,14.87 -11.28,1.46 -27.45,2.91 -37.22,3.22 -69.38,2.17 -143.41,15.99 -212.35,17.72 -66.13,1.64 -145.64,14.32 -214.8,17.72 -9.36,0.46 -23.58,1.66 -35.07,2.87l-69.03 6.81c-12.18,1.3 -27.15,2.59 -37.53,2.92 -46.05,1.43 -95.67,7.39 -141.92,12.25 -11.54,1.21 -25.69,2.41 -35.07,2.88 -15.03,0.73 -21.66,2.22 -35.35,2.57 -24.76,0.62 -46.28,5.05 -73.29,5.05 -6.44,-27.64 -15.63,-45.85 -25.99,-70.07 -9.45,-22.12 -19.76,-43.02 -33.15,-62.92 -79.59,-118.3 -185.27,-206.2 -335.21,-241.13 3.57,-15.41 2.22,-38.23 4.35,-53.79l3.32 -57.36c0.24,-22.14 2.59,-34.72 2.38,-55.76 -0.11,-13.75 1.61,-17.55 2.43,-27.88 2.3,-27.57 -0.18,-55.92 4.15,-84.37l8.5 -143.16c0.82,-9.67 -0.53,-20.38 0.26,-30.06l12.39 -197.45c0.79,-9.68 -0.53,-20.38 0.26,-30.06l12.39 -197.43c0.79,-9.68 -0.56,-20.41 0.26,-30.09 6.16,-74.61 8.38,-150.78 12.48,-227.63 0.61,-11.29 2.53,-12.12 2.65,-25.18l4.97 -86.04c2.15,-40.41 2.88,-75.88 5.03,-116.31l7.6 -111.2c2.15,-40.42 2.87,-75.89 5.05,-116.31l7.59 -111.21c2.16,-40.43 2.88,-75.89 5.03,-116.31l7.6 -111.21c2.18,-40.4 2.89,-75.89 5.04,-116.3 0.61,-11.24 2.51,-12.12 2.65,-25.16 0.09,-9.94 -0.76,-19.99 0.58,-29.75 3.73,-27.17 2.25,-59.01 4.52,-86.51l8.13 -141c3.72,-27.18 2.22,-59.02 4.49,-86.52l8.16 -141c1.92,-14.1 2.96,-41.25 4.21,-56.43l21.05 -398.6c7.95,-58.89 -18.23,-11.03 120.97,-61.02 41.53,-14.92 81.7,-36.5 118.48,-60.99 34.77,-23.16 69.01,-51.38 96.69,-82.82l52.47 -68.85 322.11 127.83c108.41,43.51 215.02,84.44 322.5,127.47 215.24,86.18 430.5,169.63 646.41,256.04l1251.3 495.48c13.64,5.46 29.45,10.74 41.17,16.97 -3.83,16.44 -14.16,33.04 -19.85,48.4 -6.49,17.42 -10.92,32.93 -16.45,51.81 -9.38,32.02 -16.77,82.37 -16.77,122.24zm1461.09 -2398.99l13.18 17.17c4.64,6.99 7.67,11.32 12.49,17.83 4.63,6.24 7.99,12.07 12.28,18.07 4.77,6.74 8.45,11.4 13.62,19.23 8.87,13.44 17.53,23.89 26.34,36.87 8.82,13.05 16.95,25.02 25.75,37.44l231.58 329.65c8.91,13.51 17.46,24.5 26.24,36.92l64.28 92.45c5.09,6.99 7.69,10.36 12.58,17.76 8.87,13.44 17.53,23.89 26.33,36.88 48.56,71.7 108.44,151.26 155.2,221.45l180.43 256.91c9.5,13.04 16.61,24.61 25.95,37.25l180.4 256.91c8.91,13.37 16.65,23.89 26.19,37l309.48 441.32c4.25,6.48 8.31,11.63 12.64,17.7l257.33 367.08c7.74,11.62 35.72,47.44 38.44,57.61 -170.73,0 -337.3,-7.6 -508.11,-7.6 -142.48,0.03 -298.1,-7.6 -444.91,-7.58 -24.67,0 -40.5,-2.66 -63.17,-2.54 -170.97,0.88 -338.04,-7.58 -508.13,-7.58 -102.34,0 -210.24,-5.09 -315.98,-5.04 -24.76,0.02 -39.64,-2.62 -63.2,-2.53l-98.63 0.05c-14.64,0.07 -19.5,-1.67 -30.29,-2.58 -1.47,-17.39 -10.54,-48.8 -15.76,-65.13 -11.25,-35.49 -31.13,-79.01 -50.06,-111.73 -23.92,-41.37 -75.46,-103.52 -110.74,-131.92 -20.43,-16.44 -76.23,-60.64 -96.46,-65.34 7.19,-14.96 14.76,-42.86 20.55,-60.36 6.58,-19.86 13.69,-38.53 20.84,-60.02l163.68 -486.01c12.95,-38.85 25.67,-82.47 40.87,-120.91l388.88 -1153.16c4.49,-13.43 18.81,-50.31 19.89,-63.52zm-7887 3685.71c-14.52,-0.33 -29.28,-4.98 -45.4,-5.16 -119.06,-1.37 -189.04,10.33 -300.92,65.81 -11.16,5.53 -21.13,11.53 -31.85,18.71 -10.84,7.25 -22.06,13.78 -31.71,21.38 -29.56,23.23 -59.01,47.21 -82.7,76.55 -7.64,9.48 -17.37,18.88 -24.62,28.48l-41.44 64.71c-66.46,-15.49 -157.35,-44.79 -224.11,-64.07l-2023.71 -582.54c-75.75,-21.2 -148.44,-43.1 -223.9,-64.26 -74.08,-20.83 -1106.71,-322.57 -1128,-323.05 1.99,-8.52 7.89,-19.23 11.58,-28.87 51.59,-134.78 45.36,-295.17 -19.13,-423.64 -14.32,-28.47 -33.62,-53.56 -48.07,-80.87 23.05,-26.52 51.07,-48.8 72.95,-76.23 15.74,-19.74 38.3,-39 56.62,-57.1 7.96,-7.88 10.62,-12.65 17.66,-20.27 11.88,-12.86 24.16,-24.11 36.69,-36.62l93.4 -96.18c7.32,-8.74 9.66,-12 17.82,-20.13l221.19 -228.77c12.55,-12.53 26.45,-24.92 37.9,-37.91 46.86,-53.24 134.6,-142.17 184.56,-192.11l73.3 -75.86c61.68,-61.66 122.84,-130.41 184.54,-192.12l54.3 -56.92c18.37,-19.09 39.52,-37.1 56.89,-56.84 22.41,-25.41 55,-52.68 74.18,-77.53 11.32,-14.64 22.99,-24.65 35.83,-37.48l36.75 -39.05c10.61,-12.7 25.72,-25.98 37.81,-38.04 6.93,-6.95 12.02,-12.07 18.97,-18.95 7.85,-7.76 10.4,-12.78 17.64,-20.29l295.8 -305.83c12.76,-12.75 24.23,-23.63 36.71,-36.6l36.6 -39.25c81.4,-81.39 159.33,-165.94 240.21,-247.66 7.44,-7.53 9.9,-12.63 17.61,-20.32l56.89 -56.87c43.13,-48.96 108.99,-108.89 146.75,-154.06 17.06,-20.44 38.12,-38.06 56.81,-56.94l130.14 -135.3c6.69,-6.67 14.45,-11.07 17.07,-20.85 9.27,4.89 10.68,7.07 19.14,13.74l97.15 77.28c13.34,10.42 25.32,20.4 39.35,31.4l77.49 61.53c134.28,109.87 273.06,213.34 407.01,323.58l991.15 788.48c26.26,21.29 51.44,41.09 77.55,61.47l758.95 603.59c6.11,5.01 13.87,11.88 19.64,15.75 -10.68,22.27 -107.07,297.27 -119.13,330.86l-199.03 554.29c-27.27,73.01 -50.77,148.85 -79.45,221.33l-39.42 109.75c-12.72,38.25 -26.25,73.23 -39.75,111.91l-99.89 276.79c-13.09,36.15 -45.77,136.74 -60.37,167.15zm3139.64 740.68c-59.56,0 -169.74,44.61 -221.44,79.35 -49.81,33.47 -96.74,71.6 -133.92,118.88 -4.64,5.88 -7.46,8.9 -11.18,14.08l-30.33 45.52c-17.46,32.52 -39.5,67.04 -48.02,103.66l-2234.36 -557.33c-2.06,-62.26 0.24,-101.27 -21.45,-167.26 -15.35,-46.8 -34.09,-90.78 -58.69,-128.36 -6.61,-10.07 -11.66,-17.51 -18.22,-27.31 -30.92,-46.24 -72.36,-82.55 -114.84,-117.69 -10.03,-8.27 -45.33,-33.13 -57.58,-35.98l110.48 -309.15c8.18,-20.66 14.6,-40.04 21.9,-61.52 28.37,-83.56 60.61,-163.1 89.16,-247.07 7.29,-21.44 13.71,-40.86 21.86,-61.52 30.67,-77.51 61.37,-169.49 89.3,-249.46l111.84 -310.3c15.65,-41.96 28.55,-82.63 44.79,-124.58l110.73 -308.92c7.29,-22.28 15.15,-41.23 22.77,-63.16 25.58,-73.76 11.26,-57.49 84.59,-84.78 40.62,-15.13 81.03,-30.58 122.8,-46.59 41.25,-15.79 80.31,-29.51 120.98,-45.87 20.87,-8.4 39.61,-14.47 60.69,-22.7 21.27,-8.29 40.93,-16.09 62.15,-23.8 81.77,-29.61 164.03,-63.32 245.8,-92.94l121.07 -45.77c40.62,-16.14 80.96,-30.6 122.78,-46.61 102.33,-39.22 204.83,-75.14 306.22,-115.91l120.99 -45.87c99.8,-38.24 207.73,-81.11 307.9,-116.79 102.29,-36.44 202.52,-77.11 304.53,-115.08 29.89,-11.14 160.49,-58.69 184.93,-70.42 2.89,10.84 21.05,33.1 28.14,42.65 23.93,32.17 56.31,64.19 87.81,89.14l62.01 44.14c37.81,22.84 111.77,58.26 153.19,61.72 0,44.82 -6.19,95.77 -7.5,141.64 -0.35,12.09 -2.02,11.54 -2.62,22.65 -0.45,8.18 0.46,17.12 0.02,25.3 -0.58,10.94 -1.97,9.27 -2.55,20.2 -0.44,8.17 0.46,17.12 0.02,25.29 -0.6,11.15 -2.27,10.57 -2.64,22.66 -0.21,8.15 0.63,17.17 -0.05,25.25 -3.4,41.49 -7.17,163.72 -10.64,189.02 -4.64,33.72 -6.93,149.2 -11.59,190.66 -2.86,25.45 -2.11,48.64 -2.81,73.01l-5.16 68.18c-0.44,8.18 0.47,17.11 0.02,25.29 -0.6,11.12 -2.27,10.56 -2.62,22.65 -1.52,53.74 -10.49,150.34 -10.02,192.23 0.23,19.31 -2.67,28.04 -2.49,48.05 0.17,18.12 -2.55,28.01 -2.5,48.07 0.05,16.68 -2.56,26.3 -2.52,45.49 0.1,38.28 -5.66,80.8 -7.67,118.75 -0.43,8.15 0.44,17.12 0.02,25.29 -0.59,11.12 -2.27,10.57 -2.63,22.66 -0.7,24.39 0.05,47.55 -2.81,73.01 -1.48,13.27 -0.86,33.13 -2.85,47.72 -5.88,42.97 -1.57,99.07 -7.97,141.18 -4.68,31.01 -7.78,146.45 -11.41,190.8 -0.68,8.06 0.16,17.08 -0.05,25.23 -0.37,12.09 -2.04,11.54 -2.64,22.65 -0.44,8.18 0.46,17.12 0.02,25.3 -0.58,11.12 -2.27,10.56 -2.62,22.68l-15.02 285.77c0.4,46.17 -8.48,133.92 -10.09,189.63 -0.34,12.11 -2.04,11.53 -2.61,22.65 -0.44,8.18 0.43,17.14 0,25.29 -0.58,11.14 -2.27,10.56 -2.62,22.69l-11.1 216.39c-4.76,31.6 -0.66,61.57 -5.44,93.14 -4.38,28.91 -7.57,133.98 -8.57,168.41 -0.35,12.09 -2.02,11.53 -2.62,22.65 -0.43,8.18 0.46,17.12 0.02,25.3 -0.57,11.11 -2.27,10.56 -2.61,22.65 -0.23,8.16 0.62,17.16 -0.04,25.23 -0.82,9.82 -2.42,10.38 -2.42,22.89zm-5407.14 -4345.5c-2.99,4.48 -10.47,13.69 -14.55,18.32 -5.33,6.03 -10.61,10.64 -16.43,16.45l-391.79 404.47c-6.25,7.13 -7.95,10.59 -15.15,17.72l-65.71 68.26c-21.39,23.1 -45.78,44.04 -65.89,68.11 -24.69,29.53 -102.54,101.44 -131.31,134.12l-49.31 51.79c-6.1,6.1 -10.34,10.29 -16.47,16.38 -7.42,7.39 -9.41,11.86 -16.34,19.07 -21.42,22.25 -44.87,43.17 -64.62,66.82 -19.49,23.28 -48.12,43.78 -66.46,67.55 -20.09,26.01 -45.15,42.92 -66.04,67.91 -6.44,7.69 -7.93,10.34 -15.27,17.59l-180.75 185.8c-11.9,11.83 -19.57,22.12 -31.6,34.11 -16.76,16.75 -35.26,32.51 -50.44,50.69 -6.44,7.69 -7.92,10.33 -15.27,17.6l-50.61 50.5c-6.33,6.86 -8,10.73 -15.11,17.77 -78.1,77.74 -152.07,159.6 -230.06,237.59 -11.31,11.28 -22.19,21.25 -32.89,32.83l-31.58 34.17c-11.55,11.55 -21.22,21.33 -32.87,32.84 -7.37,7.27 -8.85,9.89 -15.27,17.58 -15.16,18.16 -33.67,34.01 -50.44,50.69l-82.03 84.8c-20.15,24.11 -44.49,44.96 -65.88,68.1l-146.83 153.98c-17.38,21.77 -52.01,46.83 -66.11,67.89 -94.1,-49.81 -123.66,-66.44 -234.31,-81.68l-74.19 -4.38c-13.14,0.16 -14.27,2.39 -25.18,2.64 -0.7,-30.57 -14.9,-131.75 -17.61,-171.99 -5.84,-86.52 -18.42,-171.74 -25.59,-257.54 -4.99,-59.6 -25.07,-210.82 -25.07,-260.62 5.65,-2.68 65.72,-22.28 90.18,-33.68 15.08,-6.99 24.76,-13.6 39.63,-21.05 26.18,-13.09 50.81,-32.58 73.23,-50.62 7.24,-5.86 9.65,-8.13 16.3,-14.03l32.87 -30.33c35.86,-36.25 67.23,-81.65 89.93,-127.49 39.42,-79.65 56.81,-161.66 57.28,-253.68 0.14,-22.44 -3.45,-38.82 -5.05,-58.12 43.18,-20.7 203.68,-77.66 260.74,-100.73l525.4 -202.64c130.93,-52.05 263.45,-99.54 394.4,-151.61 21.35,-8.5 43.66,-17.79 65.41,-25.6l525.7 -202.31c43.55,-16.1 301.44,-119.6 329.01,-126.04zm10356.75 -144.08l390.36 89.95c235.92,51.37 469.07,110.26 705.28,161.78l392.74 90.06c181.33,42.9 368.2,81.63 549.06,125.9 25.97,6.37 52.4,11.25 78.44,17.64l353.34 81.45c8.76,2.09 33.92,6.21 40.95,9.59 -3.45,41.56 -0.32,23.91 -0.07,60.76 0.12,18.42 4.87,42.94 8.3,59.95 17,84.73 53.14,166.53 108.85,232.41 5.51,6.51 9.52,11.62 15.02,17.83 6.14,6.88 9.74,13.46 17.06,18.34 -4.5,6.72 -10.43,13.54 -15.15,20.23 -5.47,7.81 -9.85,13.92 -15.92,22l-378.96 518.47c-5.51,8.13 -10.03,13.73 -16.1,21.81 -6.18,8.22 -10.05,14.13 -15.86,22.06l-158.19 215.9c-11.4,15.11 -21.39,29.22 -31.81,44.07l-348.09 475.99c-9.58,12.74 -21.01,33.8 -33.61,42.23 -3.12,-11.74 -65.78,-96.96 -75.11,-109.4l-63.39 -90.82c-54.38,-81.59 -113.03,-160 -168.86,-240.66l-77.39 -109.65c-4.66,-7 -7.67,-11.34 -12.51,-17.87 -35.33,-47.58 -67.31,-97.59 -102.17,-145.51 -39.94,-54.88 -75.92,-112.23 -116.66,-166.51 -8.94,-11.9 -16.35,-23.21 -24.97,-35.69l-181.51 -258.35c-68.36,-99.02 -136.74,-193.77 -205.23,-292.75l-154.21 -219.92c-9.04,-13.06 -17.65,-24.65 -26.29,-36.92l-38.41 -55.11c-4.72,-6.97 -7.94,-10.51 -12.7,-17.65l-231.31 -329.86c-9.59,-12.78 -17.1,-24.65 -26.01,-37.2l-103.25 -147.03c-4.83,-6.5 -7.85,-10.83 -12.51,-17.83 -5.46,-8.15 -8.61,-11.1 -13.15,-19.69zm-1046.55 1943.95c-92.4,-7.66 -146.51,-9.7 -242.39,20.53 -18.65,5.9 -67.48,25.99 -83.21,35.6 -27.05,16.47 -44.13,22.56 -75.29,46.05 -44,33.15 -12.96,37.18 -116.6,-4.31 -28.01,-11.21 -53.55,-21.43 -81.26,-32.49l-494.36 -195.74c-519.49,-207.77 -1045.05,-411.46 -1564.76,-619.34l-248.12 -98.22c-28.19,-11.28 -53.11,-21.56 -81.2,-32.54l-84.19 -32.1c10.22,-43.9 10.31,-75.78 9.9,-119.05 -0.09,-9.21 -1.77,-12.3 4.01,-16.19l1317.78 -322.81c39.01,-9.81 80.12,-19.95 119.85,-29.3l840.25 -206.31c240.07,-60.02 480.28,-115.87 718.92,-175.95l598.6 -147.12c39.57,-9.91 81.87,-20.52 121.84,-29.83 -8.51,36.62 -152.06,452.37 -164.62,490.08l-495.15 1469.04zm-8688.34 -2040.01c32.76,-15.71 120.78,-46.19 158.56,-61.39 104.95,-42.2 212.15,-80.12 317.4,-122.43l277.34 -106.91c13.07,-5.21 26.8,-10.64 40.16,-15.45l158.84 -61.09c53.37,-21.45 104.74,-40.41 158.9,-61.01 78.85,-30 157.54,-63.28 237.12,-91.52l238.9 -92.27c106.35,-38.28 211.63,-81.74 317.75,-122.09l435.83 -168.34c33.77,-13.43 171.14,-69.14 199.72,-75.81 6.53,4.38 9.91,8.78 15.76,14.59 81.95,81.57 234.07,142.13 345.74,142.13 61.2,0 101.97,-2.01 161.13,-15.79 10.07,-2.34 22.68,-6.95 33.52,-9.47 18.23,12.21 120.34,119.13 144.75,143.4l241.36 246.51c32.65,32.67 63.43,63.43 96.07,96.09l96.06 98.56c40.4,40.4 83.6,78.73 120.2,122.49 21.96,26.3 48.99,49.26 73.17,73.44l467.79 475.14c21.67,25.94 122.23,122.48 157.87,158.09l48.05 50.57c20.78,20.8 83.74,78.62 96.69,97.96 -79.43,118.6 -105.36,220.17 -95.97,363.93 0.87,13.8 4.95,26.71 4.95,40.54 -22.97,5.35 -44.4,16.39 -66.66,24.32 -88.86,31.64 -175.95,67.11 -264.1,99.93 -21.29,7.93 -43.87,17.28 -65.8,25.18 -155.69,56.13 -310.82,118.6 -465.83,176.28l-199.68 75.84c-132.94,49.13 -264.6,102.94 -398.1,150.47 -22.79,8.11 -43.38,16.24 -65.92,25.09l-399.77 151.31c-23.49,8.73 -191.38,75.46 -200.08,75.46 -10.54,0 -295.56,-231.54 -303.34,-237.64l-150.89 -119.59c-106.07,-86.36 -215.01,-168.96 -321.05,-255.32l-188.42 -150.3c-115.46,-94.87 -242.48,-192.51 -360.57,-286.57l-1022.19 -813.09c-13.18,-10.77 -24.81,-19.31 -38.13,-30.1 -8.84,-7.19 -32.31,-23.94 -37.13,-31.14zm-2788.26 859.48c-20.78,-39.24 -68.13,-104.31 -101.11,-126.38l194.67 -353.9c3.89,-7.56 6.65,-11.81 10.89,-19.44l401.97 -733.07c6.58,-13.33 14.8,-26.8 21.81,-38.85l86.87 -158.35c7.83,-14.01 13.34,-25.5 21.12,-39.54 43.55,-78.41 84.81,-159.11 129.84,-236.68l238.33 -434.1c7.56,-14.04 14.99,-26.5 22.75,-40.47l173.62 -316.8c12.85,-26.15 81.53,-140.35 85.93,-159.25 8.46,2.25 50.44,29.05 63.2,35.42 73.24,36.44 158.23,58.12 242.69,58.12 3.1,13.37 68.86,128.68 81.95,150.59l84.04 151.08c8.96,17.67 18.78,32.8 27.8,50.56l83.2 149.36c39.41,66.02 74.08,134.61 111.49,201.98 44.66,80.37 97.92,168.76 138.96,250.33 25.51,50.61 56.01,102.17 84.18,150.91l82.74 149.83c9.78,17.62 17.94,32.8 27.8,50.56 18.93,34.06 37.27,67.53 56.31,100.42l111.35 202.13c-17.21,1.44 -59.6,21.24 -77.66,28.51 -154.4,62.08 -310.11,119.02 -465.1,179.53 -154.57,60.34 -309.95,121.65 -465.5,179.1 -25.16,9.29 -52.54,19.88 -78.37,30.33 -128.55,52 -258.37,97.47 -386.77,149.15 -11.97,4.81 -25.84,9.89 -38.26,14.83 -13.07,5.18 -26.8,10.62 -40.17,15.44 -25.34,9.13 -50.64,19.02 -76.88,29.28l-775.31 299.08c-26,10.35 -53.83,18.53 -78.38,30.29zm8364.78 -60.67c-2.08,-8.96 -6.35,-12.94 -10.12,-20.2l-37.39 -61.21c-8.43,-12.61 -17.86,-24.08 -27.77,-35.42 -30.04,-34.48 -63.28,-67.58 -101.67,-92.98 -13.2,-8.76 -25.11,-18.93 -39.57,-26.18 -8.34,-4.2 -14.06,-6.65 -21.58,-11.26 -7.4,-4.51 -13.16,-8.45 -22.26,-10.58 0.22,-10.64 6.21,-27.36 9.08,-38.94l575.39 -2172.47c9.71,-37.83 81.26,-297.04 82.88,-316.51 109.68,0 175.01,-12.35 260.35,-50.6 27.65,-12.39 54.4,-29.5 79.89,-46.48l36.41 -26.78c4.58,6.26 14.23,11.16 21.75,16.14l67.25 46.51c8.29,5.55 14.22,10.43 22.21,15.71l45.01 30.83c9.01,5.98 15.06,10.82 23.75,16.73l157.28 108.13c8.97,6.21 14.66,10.7 23.74,16.7l134.46 93.05c15.74,10.4 30.28,20.55 46.54,31.8 8.51,5.89 13.64,10.01 22.24,15.71l271.97 188.09c8.22,5.51 14.62,9.4 22.56,15.36 44.25,33.22 91.43,61.31 136.16,93.88l408.06 282.07c8,5.29 13.95,10.15 22.22,15.71l181.02 124.83c9.36,6.2 14.82,10.75 23.75,16.72l544.4 375.75c43.68,32.45 89.83,61.84 134.62,92.88l318.19 220.25c7.95,5.98 14.36,9.84 22.59,15.33 8.27,5.57 14.22,10.42 22.21,15.73l113.76 78.34c15.84,10.47 106.35,69.84 113.73,80.89l-459.06 112.26c-154.33,38.66 -306.58,74.73 -460.58,113.24 -536.08,134.1 -1074.64,260.43 -1610.25,394.35l-921.67 225.99c-77.95,19.5 -153.93,38.54 -231.55,56.63zm-6564.91 -2543.06c16.22,-8.6 48.11,-20.29 74.8,-36.44l65.02 -46.21c31.34,-25.37 39.33,-32.06 65.69,-63.22 3.75,-4.45 6.14,-6.07 9.74,-10.52 32.56,-40.32 49.95,-68.52 73.77,-115.77 4.73,-9.38 7.34,-17.76 11.79,-26.15 61.51,14.34 129.07,35.05 191.57,51.1l724.57 193.07c16.52,4.15 31.41,7.97 47.88,12.79 65.07,19.02 131.32,33.31 193.45,51.75l95.84 25.47c89.21,21.95 199.89,53.72 291.2,77.89l287.7 76.34c31.23,8.58 64.42,18.07 97.57,26.29 126.59,31.32 260.69,71.77 387.3,103.11l674.44 179.99c33.22,8.31 65.35,18.81 97.55,26.31 0.44,19.37 18.88,54.16 22.74,70.79 -12.46,1.01 -27.19,9.19 -39.49,13.57 -14.82,5.26 -25.38,9.62 -40.33,15.29 -26.98,10.26 -51.49,19.5 -78.33,30.34l-237.28 91.36c-27.01,10.92 -54.32,21.5 -80.17,31.04l-158.9 61.04c-52.61,20.92 -105.15,40.63 -158.49,61.45l-1029.23 396.51c-126.59,50.93 -270.05,103.12 -398,153.07l-317.77 122.09c-8.32,0 -11.72,-14.08 -16.24,-21.68l-40.81 -72.93c-5.17,-8.6 -9.06,-16.47 -13.6,-24.32l-27.08 -48.75c-59.53,-111.56 -129.51,-233.5 -191.24,-344.69l-259.6 -468.45c-17.05,-33.05 -35.93,-64.07 -53.9,-97.75 -4.69,-8.77 -8.51,-15.35 -13.53,-24.41l-122.93 -220.84c-5.03,-9.04 -8.85,-15.65 -13.54,-24.39l-116.34 -209.78c-3.34,-6.16 -3.48,-9.13 -5.82,-14.36zm6109.87 2234.66c-63.81,-14.88 -212.64,17.84 -275.4,50.71l-60.8 35.25 -139.66 -140.95c-16.63,-16.61 -31.41,-31.39 -48.04,-48.02 -211.58,-211.61 -422.14,-432.18 -634.48,-642.09 -9.32,-9.2 -13.6,-16.28 -22.72,-25.29 -32.37,-32.02 -62.64,-62.59 -94.84,-94.79 -16.19,-16.21 -30.56,-30.56 -46.77,-46.77l-188.3 -190.85c-16.82,-16.81 -29.86,-32.38 -46.8,-49.29 -32.19,-32.22 -62.55,-62.59 -94.78,-94.81 -16.19,-16.19 -30.46,-30.62 -46.76,-46.74l-140.94 -144.74c9.17,-13.71 27.04,-27.86 39.76,-38.61 5.41,-4.59 5.18,-5.46 9.35,-10.87l27.87 -32.82c17.53,-23.4 34.44,-47.39 47.74,-73.59l26.27 -54.62c18.55,-46.54 35.65,-115.03 35.99,-166.23 0.11,-14.66 3.92,-21.74 2.52,-37.69 -1.15,-12.89 -2.43,-21.49 -2.43,-38.07 35.95,-17.24 222.19,-88.36 260.37,-103.64l1565.12 -624.04c43.9,-17.54 86.25,-33.99 130.37,-51.63l97.52 -39.01c10.52,-4.22 24.67,-11.03 34.66,-13.37 49.81,74.4 115.08,137.85 195.52,178.62 12.16,6.16 23.64,15.45 37.02,18.55l-82.37 314.5c-13.48,53.6 -28.72,104.29 -42,157.73 -51.24,206.5 -115.4,424.85 -167.36,631.45l-375.63 1421.72zm1433.33 -3018.33c16.66,-1.38 185.59,-52.4 202.55,-57.81 33.03,-10.59 66.25,-19.02 99.88,-29.03l710.19 -204.93c17.78,-5.12 32.68,-9.76 50.72,-14.99 18.03,-5.18 33.92,-9.08 51.13,-14.59 126.85,-40.56 281.37,-77.05 405.74,-117.56l76.54 -22.06c8.47,-2.44 18.13,-6.02 26.14,-6.68 6,11.34 10.13,24.39 16.02,37.08 16.19,35 37.27,68.43 60.87,98.37l92.17 92.39c97.31,77.54 251.93,133.95 401.59,115.28 9.14,-1.13 47.14,-6.28 53.75,-9.45 2.08,25.13 183.61,796.36 203.68,888.37 11.09,50.77 21.96,98.98 33.95,148.06l67.72 296.31c23,97.22 44.16,199.54 68.29,295.72 12.48,49.78 21.35,98.42 33.83,148.18 12.05,48.02 22.47,97.78 33.89,148.11 9.04,39.77 99.98,420.55 102.14,446.44l-221.75 -152.39c-8.06,-6.05 -13.84,-9.71 -22.47,-15.46l-379.71 -262.37c-8.29,-5.63 -13.32,-9.82 -22.19,-15.71 -8.43,-5.58 -14.57,-9.31 -22.73,-15.22l-312.37 -215.96c-7.8,-5.79 -14.5,-10.33 -22.37,-15.55 -7.99,-5.27 -13.92,-10.14 -22.21,-15.7l-757.86 -523.78c-96.6,-66.92 -192.25,-135.26 -290.22,-200.19 -8.9,-5.86 -13.93,-10.05 -22.22,-15.7l-402.18 -277.83c-14.56,-10.94 -28.28,-19.05 -43.32,-29.97l-67.19 -46.57c-7.44,-5.27 -15.29,-9.91 -22.72,-15.19 -14.74,-10.45 -28.96,-20.57 -44.51,-31.36l-157.26 -108.16c-4.07,-2.71 -6.92,-4.56 -10.54,-7.16 -6.58,-4.72 -4.45,-5.3 -12.69,-7.5 6.25,-26.92 65.72,-91.5 65.72,-265.44zm-1087 2.53c0,59.3 9.64,87.14 10.12,108.7l-450.33 179.11c-21.94,8.78 -42.96,18 -65.07,25.94 -73.45,26.46 -182.37,72.57 -258.51,103l-1259.96 501.95c-10.29,4.13 -22.8,10.64 -33.94,11.57 -1.32,-5.64 -13.01,-27.06 -16.86,-33.71 -3.83,-6.62 -6.11,-8.43 -10.47,-14.8 -21.03,-30.83 -29.16,-44.68 -57.98,-73.45 -78.32,-78.21 -148.87,-127.71 -263.54,-156.1 -14.33,-3.57 -24.6,-6.54 -41.67,-8.95 -11.53,-1.62 -15.25,1.35 -15.52,-7.76l23.84 -110.19c32.59,-138.03 61.14,-289.55 92.56,-430.71 6.62,-29.77 13.06,-58.59 18.97,-87.19 59,-285.68 124.48,-578.09 185.36,-863.74l13.27 -62.57c4.45,-25.73 9.78,-9.33 66.85,-14.04 88.51,-7.29 148.37,-23.14 225.09,-63.1 5.73,-2.98 10.35,-5.09 16.91,-8.35 21.54,-10.73 76.16,-50.22 92.48,-66.81 30.69,-31.2 43.86,-37.15 75.16,-81.54 5.78,-8.2 15.43,-24.95 22.77,-30.32 10.33,2.75 92.71,59.25 103.13,66.25l204.77 133.93c17.41,11.17 32.52,21.71 50.03,33.4 228.28,152.17 462.54,302.18 691.17,453.98l591.49 389.34c0,13.87 -5.23,37.8 -6.9,51.23 -2.31,18.81 -3.22,35.26 -3.22,54.93zm3521.36 -214.88c8.18,-5.46 17.79,-11.13 25.64,-17.32l47.05 -38.89c7.94,-8.04 14.36,-16.13 23.37,-22.15 12.46,8.34 37.38,36.14 49.92,48.67l1016.21 1003.58c17.62,17.63 34.07,31.53 51.82,49.3l558.71 551.03c65.42,62.95 121.7,124.41 190.85,188.34 4.78,4.43 7.9,7.97 12.6,12.68l736.85 729.32c9.64,9.68 17.26,14.54 26.59,23.97l151.66 151.7c17.75,17.74 34.17,31.67 51.81,49.29 60.58,60.58 115.94,118.02 178.25,175.65 60.58,56.06 126.06,131.37 190.81,188.4l37.29 38.52c-16.33,24.39 -23.1,33.18 -37.06,61.5 -14.69,29.77 -5.17,24.2 -55.38,13.28l-536.46 -123.33c-26.96,-6.4 -57.71,-12.51 -84.44,-19.23l-164.46 -37.75c-28.49,-6 -54.04,-12.23 -82.29,-18.83 -27.25,-6.37 -57.23,-12.77 -84.45,-19.21l-246.72 -56.62c-80.24,-20.12 -169.7,-37.36 -248.71,-57.16 -27.7,-6.95 -54.16,-12.91 -82.3,-18.81 -26.5,-5.58 -57,-13.78 -84.25,-19.39l-330.93 -76.07c-107.22,-26.27 -222.9,-49.34 -331.15,-75.84 -27.46,-6.74 -53.67,-12.44 -82.37,-18.76l-248.83 -57.03c-13.29,-3.24 -28.74,-6.61 -41.27,-9.29 -11.7,-2.5 -11.17,-1.14 -13.9,-11.38 -1.95,-7.29 -2.55,-13.24 -4.47,-20.8 -7,-27.72 -13.28,-54.89 -18.91,-82.23 -5.44,-26.38 -12.04,-54.69 -19.01,-82.09 -19.43,-76.55 -38.31,-169.22 -57.15,-248.73 -12.9,-54.56 -26.11,-110.31 -38.01,-166.74 -16.4,-77.76 -40.19,-167.11 -56.89,-246.47l-171.44 -746.19c-24.6,-111.88 -50.52,-219.29 -75.91,-331.08 -23.9,-105.21 -54.6,-228.05 -76.21,-330.78l-76.46 -333.06zm-9638.83 500.54c0,-45.43 -7.32,-89.88 -16.68,-127.41 -5.01,-20.06 -9.98,-38.12 -17.24,-56.1l-21.69 -51.59c8.43,-0.71 50.98,-18.76 62.81,-23.13l188.17 -74.75c84.73,-34.04 168.08,-65.68 252.07,-99.28 334.44,-133.9 672.77,-264.08 1007.55,-397.99 313.84,-125.53 630.42,-247.23 944.32,-372.69l1085.75 -429.04c12.49,-5.01 7.36,-6.86 14.94,20.27 18.16,64.92 42.88,109.35 78.97,163.72 17.2,25.87 38.75,49.11 60.54,70.91 7.26,7.22 13.93,14.91 21.62,21.37 26.66,22.42 101.55,78.71 135.76,86.68l-36.87 170.45c-32.69,166.95 -78.16,349.22 -110.82,516.09 -22.15,113.16 -51.63,230.51 -73.71,343.38 -22.33,113.99 -50.96,230.14 -74.15,345.53 -5.67,28.32 -11.74,56.72 -18.41,85.19 -6.49,27.54 -11.67,55.77 -18.28,85.38 -19.81,89.07 -10.42,85.73 -36.81,92.11 -7.99,1.92 -12.99,3.96 -21.19,6.62 -41.83,13.62 -68.96,26.34 -108.6,48.13 -25.75,14.17 -52.76,34.71 -75.57,53.33 -90.02,73.52 -166.4,199.34 -182.47,313.03 -4.1,29.03 2.63,19.44 -70.25,1.54 -161.12,-39.61 -334.17,-92.53 -494.96,-131.98 -132.79,-32.58 -277.55,-76.23 -411.02,-109.72 -29.51,-7.41 -54.9,-15.08 -83.95,-22.24l-329.14 -87.95c-27.58,-6.79 -53.22,-14.52 -81.9,-21.73l-83.86 -22.33c-148.66,-42.23 -303.33,-79.73 -453.04,-120.78l-700.2 -187.1c-54.86,-14.08 -109.31,-29.71 -165.88,-43.91 -56.24,-14.11 -109.89,-30.99 -165.81,-44.01zm4565.36 -1698.76l132.54 19.11c44.92,7.25 86.34,13.31 131.42,20.27 264.09,40.65 531.54,78.64 794.11,120.98 89.23,14.38 174.72,25.36 263.26,40.07 42.25,7.05 87.74,13.78 131.75,19.92 44.25,6.19 88.3,13.81 134,20.23 173.58,24.32 356.18,56.63 530.86,80.89 86.75,12.04 175.43,28.33 263.19,40.16 171.62,23.12 358.37,57.34 530.83,80.89 129.48,17.7 266.96,42.58 397.19,60.39l131.67 19.99c171.85,29.07 359.78,51.96 530.84,80.91l197.55 29.96c22.49,3.72 46.91,6.04 67.53,10.84 0,10.07 -1.3,13.15 -2.9,22.37l-7.23 76.21c-4.95,2.39 -18.02,5.58 -23.3,7.05 -9.64,2.7 -15.8,4.31 -25.62,7.22l-152.74 44.43c-67.41,18.93 -134.93,39.4 -203.9,59.02l-813.75 235.33c-68.96,19.92 -135.79,39.97 -203.87,59.02 -18.2,5.07 -191.82,57.05 -204.77,58.14l-33.7 -67.43c-5.37,-10.19 -13.29,-21.38 -20.11,-30.47 -7.64,-10.19 -13.19,-19.68 -21.44,-29.07 -8.41,-9.56 -15.06,-17.76 -22.96,-27.6 -7.02,-8.76 -16.7,-17.17 -25.02,-25.56 -33.82,-34.2 -78.64,-61.77 -119.34,-85.43 -64.54,-37.48 -160.15,-65.59 -242.79,-65.59 -68.62,0 -116.03,2.29 -181.09,23.65 -83.27,27.35 -125.23,54.08 -187.99,102.71 -27.32,21.17 -92.44,88.22 -98.57,111.25 -7.99,-1.85 -86.98,-54.61 -103.66,-65.69l-309.4 -203.8c-69.22,-46.11 -136.85,-89.52 -205.77,-135.48l-462.1 -303.85c-18.09,-12.07 -34.24,-21.98 -52.07,-33.88l-309.41 -203.76c-11.97,-7.99 -199.85,-133.22 -208.31,-135.49 0.99,-11.95 5.07,-24.83 5.07,-37.91z"/>
 </g>
</svg>
